<svg width="56" height="56" viewBox="0 0 56 56" fill="none" xmlns="http://www.w3.org/2000/svg">
<g id="Frame" clip-path="url(#clip0_546_585)">
<path id="Vector" d="M13.8391 16.1836L16.8141 26.0979M29.8971 39.1856L39.8161 42.1606" stroke="white" stroke-width="4.66667" stroke-linecap="round" stroke-linejoin="round"/>
<path id="Vector_2" d="M27.2603 28.7384L40.6979 15.3008" stroke="white" stroke-width="4.66667" stroke-linecap="round" stroke-linejoin="round"/>
<path id="Vector_3" d="M9.33325 12.832C9.33325 13.2917 9.42378 13.7468 9.59967 14.1714C9.77556 14.5961 10.0334 14.9819 10.3584 15.3069C10.6834 15.6319 11.0692 15.8897 11.4939 16.0656C11.9185 16.2415 12.3736 16.332 12.8333 16.332C13.2929 16.332 13.748 16.2415 14.1726 16.0656C14.5973 15.8897 14.9831 15.6319 15.3081 15.3069C15.6331 14.9819 15.8909 14.5961 16.0668 14.1714C16.2427 13.7468 16.3333 13.2917 16.3333 12.832C16.3333 12.3724 16.2427 11.9173 16.0668 11.4926C15.8909 11.068 15.6331 10.6822 15.3081 10.3572C14.9831 10.0322 14.5973 9.77434 14.1726 9.59845C13.748 9.42256 13.2929 9.33203 12.8333 9.33203C12.3736 9.33203 11.9185 9.42256 11.4939 9.59845C11.0692 9.77434 10.6834 10.0322 10.3584 10.3572C10.0334 10.6822 9.77556 11.068 9.59967 11.4926C9.42378 11.9173 9.33325 12.3724 9.33325 12.832Z" stroke="white" stroke-width="4.66667" stroke-linecap="round" stroke-linejoin="round"/>
<path id="Vector_4" d="M39.6667 12.832C39.6667 13.7603 40.0355 14.6505 40.6919 15.3069C41.3483 15.9633 42.2385 16.332 43.1667 16.332C44.095 16.332 44.9852 15.9633 45.6416 15.3069C46.298 14.6505 46.6667 13.7603 46.6667 12.832C46.6667 11.9038 46.298 11.0135 45.6416 10.3572C44.9852 9.70078 44.095 9.33203 43.1667 9.33203C42.2385 9.33203 41.3483 9.70078 40.6919 10.3572C40.0355 11.0135 39.6667 11.9038 39.6667 12.832Z" stroke="white" stroke-width="4.66667" stroke-linecap="round" stroke-linejoin="round"/>
<path id="Vector_5" d="M39.6667 43.168C39.6667 44.0962 40.0355 44.9865 40.6919 45.6428C41.3483 46.2992 42.2385 46.668 43.1667 46.668C44.095 46.668 44.9852 46.2992 45.6416 45.6428C46.298 44.9865 46.6667 44.0962 46.6667 43.168C46.6667 42.2397 46.298 41.3495 45.6416 40.6931C44.9852 40.0367 44.095 39.668 43.1667 39.668C42.2385 39.668 41.3483 40.0367 40.6919 40.6931C40.0355 41.3495 39.6667 42.2397 39.6667 43.168Z" stroke="white" stroke-width="4.66667" stroke-linecap="round" stroke-linejoin="round"/>
<path id="Vector_6" d="M9.33325 36.168C9.33325 38.9527 10.4395 41.6235 12.4086 43.5926C14.3778 45.5617 17.0485 46.668 19.8333 46.668C22.618 46.668 25.2887 45.5617 27.2579 43.5926C29.227 41.6235 30.3333 38.9527 30.3333 36.168C30.3333 33.3832 29.227 30.7125 27.2579 28.7433C25.2887 26.7742 22.618 25.668 19.8333 25.668C17.0485 25.668 14.3778 26.7742 12.4086 28.7433C10.4395 30.7125 9.33325 33.3832 9.33325 36.168Z" stroke="white" stroke-width="4.66667" stroke-linecap="round" stroke-linejoin="round"/>
</g>
<defs>
<clipPath id="clip0_546_585">
<rect width="56" height="56" fill="white"/>
</clipPath>
</defs>
</svg>
