<svg width="185" height="38" viewBox="0 0 185 38" fill="none" xmlns="http://www.w3.org/2000/svg">
<g clip-path="url(#clip0_532_3085)">
<path d="M5.1134 26.2528C2.88829 27.5668 2.14453 30.4365 3.45852 32.6616C4.7725 34.8867 7.6422 35.6304 9.86731 34.3164C12.0924 33.0024 12.8362 30.1327 11.5222 27.9076L9.14213 23.8789L5.1134 26.259V26.2528Z" fill="#E0E0E0"/>
<path d="M11.5593 22.4457L13.6171 25.929C16.2451 30.3792 21.9845 31.8605 26.4347 29.2325C30.8849 26.6046 32.3662 20.8652 29.7382 16.4149L27.6805 12.9316L11.5593 22.4457Z" fill="#FDC315"/>
<path d="M34.1327 9.12739C36.3578 7.8134 39.2275 8.55097 40.5415 10.7823C41.8555 13.0074 41.1179 15.8771 38.8866 17.1911C36.6553 18.505 33.7918 17.7675 32.4778 15.5362L30.0978 11.5074L34.1265 9.12739H34.1327Z" fill="#E0E0E0"/>
<path d="M13.456 7.23018C9.00578 9.85815 7.52444 15.5976 10.1524 20.0478L26.2736 10.5337C23.6456 6.08354 17.9062 4.6022 13.456 7.23018Z" fill="white"/>
<path d="M13.6567 16.1665C14.4586 15.6933 14.6828 14.588 14.1575 13.6977C13.6322 12.8073 12.5563 12.4691 11.7544 12.9422C10.9524 13.4153 10.7282 14.5206 11.2535 15.411C11.7788 16.3013 12.8547 16.6396 13.6567 16.1665Z" fill="#262626"/>
<path d="M12.83 13.9235C13.0354 13.9235 13.2019 13.757 13.2019 13.5516C13.2019 13.3462 13.0354 13.1797 12.83 13.1797C12.6246 13.1797 12.4581 13.3462 12.4581 13.5516C12.4581 13.757 12.6246 13.9235 12.83 13.9235Z" fill="white"/>
<path d="M21.1934 11.7211C21.9953 11.248 22.2196 10.1427 21.6942 9.25234C21.1689 8.36198 20.093 8.02374 19.2911 8.49686C18.4892 8.96998 18.265 10.0753 18.7903 10.9657C19.3156 11.856 20.3915 12.1943 21.1934 11.7211Z" fill="#262626"/>
<path d="M19.3069 10.0992C19.5123 10.0992 19.6788 9.93274 19.6788 9.72735C19.6788 9.52197 19.5123 9.35547 19.3069 9.35547C19.1016 9.35547 18.9351 9.52197 18.9351 9.72735C18.9351 9.93274 19.1016 10.0992 19.3069 10.0992Z" fill="white"/>
<path d="M32.7074 6.70358L28.6787 9.08363L28.6663 9.05884C26.435 5.33381 22.524 3.24506 18.4705 3.15829L18.4519 1.52201C18.4457 0.803031 17.8569 0.220413 17.1317 0.226611C16.4065 0.23281 15.8239 0.827823 15.8363 1.5468L15.8549 3.38762C14.5471 3.64794 13.2579 4.11899 12.0493 4.83177C10.8407 5.54454 9.80559 6.44946 8.94406 7.46594L7.33877 6.56103C6.70657 6.20774 5.90702 6.42467 5.55373 7.05687C5.20044 7.68907 5.41737 8.48862 6.04957 8.84191L7.47512 9.64766C5.59092 13.2301 5.52893 17.6679 7.71065 21.424L7.72305 21.4488L3.69431 23.8288C0.12423 25.9362 -1.0596 30.5227 1.04154 34.0866C3.14268 37.6505 7.73544 38.8343 11.2993 36.7332C13.3633 35.5121 14.6215 33.4606 14.9128 31.2541C18.018 33.3304 21.9786 33.913 25.6106 32.6672L28.189 33.8077C28.8212 34.0866 29.5464 33.6651 29.6084 32.9709L29.8563 30.1632C32.7012 27.591 34.102 23.8474 33.7921 20.1224C35.8622 20.9343 38.2671 20.8228 40.331 19.6079C43.8949 17.5068 45.0787 12.914 42.9776 9.35015C40.8764 5.78627 36.2837 4.60244 32.7198 6.70358H32.7074ZM30.036 16.9738L13.9707 26.4568C13.8467 26.277 13.7166 26.0973 13.605 25.9052L11.5596 22.4466L27.6808 12.9326L29.7261 16.3973L29.7571 16.4469C29.8563 16.6205 29.9493 16.8002 30.036 16.98V16.9738ZM13.4686 7.25521C17.9065 4.63963 23.6149 6.09617 26.2552 10.5092L10.1341 20.0232C7.5495 15.5792 9.03084 9.87079 13.4686 7.25521ZM9.86757 34.3097C7.64247 35.6237 4.77277 34.8861 3.45878 32.6548C2.1448 30.4235 2.88237 27.56 5.11367 26.2461L9.1424 23.866L11.1878 27.3307L11.5225 27.9009C12.8364 30.126 12.0989 32.9957 9.86757 34.3097ZM26.4226 29.2087C23.026 31.2107 18.8857 30.8202 15.9417 28.5517L30.91 19.7195C31.474 23.3949 29.8191 27.2068 26.4226 29.2087ZM38.8869 17.1845C36.6618 18.4985 33.7921 17.7609 32.4781 15.5296L32.1744 15.009C32.1744 15.009 32.1558 14.9718 32.1496 14.9594L30.1042 11.5009L34.133 9.12082C36.3581 7.80683 39.2278 8.5444 40.5417 10.7757C41.8557 13.007 41.1182 15.8705 38.8869 17.1845Z" fill="#262626"/>
</g>
<path d="M64.045 19.366C64.122 20.246 64.122 21.786 64.045 22.688C63.814 25.35 61.834 27.22 58.776 27.22C56.378 27.22 54.629 26.494 53.925 26.01C53.485 25.702 53.309 25.394 53.309 24.778V12.964C53.309 11.765 54.035 11.039 55.124 11.039C56.213 11.039 56.939 11.765 56.939 12.964V15.274C57.511 15.01 58.435 14.834 59.216 14.834C61.834 14.834 63.814 16.704 64.045 19.366ZM56.939 23.326C57.313 23.59 57.995 23.744 58.589 23.744C59.799 23.744 60.382 22.996 60.459 21.962C60.503 21.39 60.514 20.796 60.459 20.092C60.382 19.058 59.799 18.31 58.589 18.31C57.995 18.31 57.313 18.464 56.939 18.728V23.326ZM67.526 10.236C68.637 10.236 69.484 11.083 69.484 12.194C69.484 13.338 68.637 14.196 67.526 14.196C66.415 14.196 65.568 13.338 65.568 12.194C65.568 11.083 66.415 10.236 67.526 10.236ZM65.722 25.185V16.869C65.722 15.67 66.448 14.944 67.537 14.944C68.626 14.944 69.352 15.67 69.352 16.869V25.185C69.352 26.384 68.626 27.11 67.537 27.11C66.448 27.11 65.722 26.384 65.722 25.185ZM78.9705 23.634C80.1585 23.634 80.7965 24.305 80.7965 25.317C80.7965 26.329 80.1585 27 78.9705 27H72.3375C71.2375 27 70.6545 26.384 70.6545 25.471C70.6545 24.756 70.9405 24.316 71.3805 23.788L75.8685 18.398L72.7665 18.409C71.5785 18.409 70.9405 17.727 70.9405 16.726C70.9405 15.725 71.5785 15.054 72.7665 15.054H79.0145C80.0155 15.054 80.7415 15.483 80.7415 16.539C80.7415 17.342 80.4225 17.859 79.9495 18.42L75.6045 23.634H78.9705ZM92.938 19.366C93.015 20.246 93.015 21.786 92.938 22.688C92.707 25.35 90.727 27.22 87.669 27.22C85.271 27.22 83.522 26.494 82.818 26.01C82.378 25.702 82.202 25.394 82.202 24.778V12.964C82.202 11.765 82.928 11.039 84.017 11.039C85.106 11.039 85.832 11.765 85.832 12.964V15.274C86.404 15.01 87.328 14.834 88.109 14.834C90.727 14.834 92.707 16.704 92.938 19.366ZM85.832 23.326C86.206 23.59 86.888 23.744 87.482 23.744C88.692 23.744 89.275 22.996 89.352 21.962C89.396 21.39 89.407 20.796 89.352 20.092C89.275 19.058 88.692 18.31 87.482 18.31C86.888 18.31 86.206 18.464 85.832 18.728V23.326ZM99.917 27.22C96.705 27.22 94.538 25.295 94.329 22.633C94.263 21.808 94.252 20.389 94.318 19.652C94.571 16.869 96.595 14.834 99.818 14.834C103.041 14.834 104.911 16.825 104.911 19.938V20.444C104.911 21.907 104.581 22.116 103.294 22.116H97.673V22.281C97.662 23.337 98.597 24.052 100.027 24.052C100.929 24.052 101.523 23.854 101.864 23.733C102.315 23.579 102.634 23.392 103.052 23.392C103.91 23.392 104.548 23.942 104.548 24.877C104.548 25.779 103.899 26.263 103.349 26.505C102.634 26.824 101.303 27.22 99.917 27.22ZM97.684 19.784H101.655C101.754 18.563 100.929 17.76 99.664 17.76C98.454 17.76 97.772 18.574 97.684 19.784ZM111.696 27.22C108.484 27.22 106.317 25.295 106.108 22.633C106.042 21.808 106.031 20.389 106.097 19.652C106.35 16.869 108.374 14.834 111.597 14.834C114.82 14.834 116.69 16.825 116.69 19.938V20.444C116.69 21.907 116.36 22.116 115.073 22.116H109.452V22.281C109.441 23.337 110.376 24.052 111.806 24.052C112.708 24.052 113.302 23.854 113.643 23.733C114.094 23.579 114.413 23.392 114.831 23.392C115.689 23.392 116.327 23.942 116.327 24.877C116.327 25.779 115.678 26.263 115.128 26.505C114.413 26.824 113.082 27.22 111.696 27.22ZM109.463 19.784H113.434C113.533 18.563 112.708 17.76 111.443 17.76C110.233 17.76 109.551 18.574 109.463 19.784ZM129.253 27.22C125.447 27.22 122.543 24.547 122.257 20.906C122.169 19.773 122.18 18.64 122.268 17.496C122.543 13.855 125.447 11.182 129.253 11.182C133.048 11.182 135.996 13.855 136.249 17.496C136.326 18.629 136.326 19.762 136.238 20.906C135.963 24.547 133.048 27.22 129.253 27.22ZM125.953 17.925C125.909 18.75 125.909 19.63 125.964 20.477C126.085 22.512 127.394 23.788 129.253 23.788C131.09 23.788 132.41 22.512 132.542 20.477C132.597 19.652 132.575 18.772 132.52 17.925C132.388 15.879 131.09 14.614 129.253 14.614C127.394 14.614 126.063 15.89 125.953 17.925ZM140.767 27.11C139.678 27.11 138.952 26.384 138.952 25.185V19.036H138.644C137.764 19.036 137.104 18.376 137.104 17.452C137.104 16.528 137.764 15.868 138.644 15.868H138.952V15.307C138.952 12.337 140.668 11.039 143.484 11.039C143.946 11.039 144.87 11.149 145.332 11.281C146.311 11.556 146.905 12.029 146.905 12.975C146.905 13.8 146.344 14.449 145.486 14.449C145.288 14.449 145.035 14.416 144.76 14.35C144.353 14.251 144.012 14.229 143.814 14.229C142.934 14.229 142.582 14.724 142.582 15.593V15.868H144.265C145.277 15.868 145.915 16.528 145.915 17.452C145.915 18.376 145.277 19.036 144.265 19.036H142.582V25.185C142.582 26.384 141.856 27.11 140.767 27.11ZM149.668 27.11C148.579 27.11 147.853 26.384 147.853 25.185V19.036H147.545C146.665 19.036 146.005 18.376 146.005 17.452C146.005 16.528 146.665 15.868 147.545 15.868H147.853V15.307C147.853 12.337 149.569 11.039 152.385 11.039C152.847 11.039 153.771 11.149 154.233 11.281C155.212 11.556 155.806 12.029 155.806 12.975C155.806 13.8 155.245 14.449 154.387 14.449C154.189 14.449 153.936 14.416 153.661 14.35C153.254 14.251 152.913 14.229 152.715 14.229C151.835 14.229 151.483 14.724 151.483 15.593V15.868H153.166C154.178 15.868 154.816 16.528 154.816 17.452C154.816 18.376 154.178 19.036 153.166 19.036H151.483V25.185C151.483 26.384 150.757 27.11 149.668 27.11ZM156.279 12.194C156.279 11.083 157.126 10.236 158.237 10.236C159.348 10.236 160.195 11.083 160.195 12.194C160.195 13.338 159.348 14.196 158.237 14.196C157.126 14.196 156.279 13.338 156.279 12.194ZM156.433 25.185V16.869C156.433 15.67 157.159 14.944 158.248 14.944C159.337 14.944 160.063 15.67 160.063 16.869V25.185C160.063 26.384 159.337 27.11 158.248 27.11C157.159 27.11 156.433 26.384 156.433 25.185ZM165.316 20.07C165.261 20.741 165.261 21.313 165.316 21.984C165.404 23.029 166.108 23.744 167.219 23.744C168.066 23.744 168.561 23.337 168.902 22.941C169.199 22.589 169.584 22.105 170.409 22.072C171.388 22.039 172.202 22.688 172.202 23.744C172.202 24.327 171.971 24.811 171.729 25.152C170.981 26.208 169.529 27.22 167.153 27.22C164.117 27.22 161.961 25.306 161.719 22.644C161.642 21.797 161.653 20.268 161.73 19.41C161.972 16.748 164.117 14.834 167.153 14.834C169.529 14.834 170.959 15.846 171.718 16.902C171.96 17.243 172.202 17.727 172.202 18.31C172.202 19.366 171.388 20.004 170.409 19.982C169.617 19.96 169.232 19.509 168.902 19.113C168.561 18.706 168.066 18.31 167.219 18.31C166.108 18.31 165.404 19.025 165.316 20.07ZM178.871 27.22C175.659 27.22 173.492 25.295 173.283 22.633C173.217 21.808 173.206 20.389 173.272 19.652C173.525 16.869 175.549 14.834 178.772 14.834C181.995 14.834 183.865 16.825 183.865 19.938V20.444C183.865 21.907 183.535 22.116 182.248 22.116H176.627V22.281C176.616 23.337 177.551 24.052 178.981 24.052C179.883 24.052 180.477 23.854 180.818 23.733C181.269 23.579 181.588 23.392 182.006 23.392C182.864 23.392 183.502 23.942 183.502 24.877C183.502 25.779 182.853 26.263 182.303 26.505C181.588 26.824 180.257 27.22 178.871 27.22ZM176.638 19.784H180.609C180.708 18.563 179.883 17.76 178.618 17.76C177.408 17.76 176.726 18.574 176.638 19.784Z" fill="#262626"/>
<defs>
<clipPath id="clip0_532_3085">
<rect width="44" height="37.5478" fill="white" transform="translate(0 0.226562)"/>
</clipPath>
</defs>
</svg>
