<svg width="165" height="40" viewBox="0 0 165 40" fill="none" xmlns="http://www.w3.org/2000/svg">
<g clip-path="url(#clip0_553_5314)">
<path d="M6.1134 27.3399C3.88829 28.6698 3.14453 31.574 4.45852 33.8259C5.7725 36.0778 8.6422 36.8305 10.8673 35.5007C13.0924 34.1709 13.8362 31.2667 12.5222 29.0148L10.1421 24.9375L6.1134 27.3462V27.3399Z" fill="#E0E0E0"/>
<path d="M12.5593 23.488L14.6171 27.0132C17.2451 31.517 22.9845 33.0162 27.4347 30.3566C31.8849 27.6969 33.3662 21.8884 30.7382 17.3846L28.6805 13.8594L12.5593 23.488Z" fill="#2E90FA"/>
<path d="M35.1327 10.0063C37.3578 8.67651 40.2275 9.42296 41.5415 11.6811C42.8555 13.933 42.1179 16.8373 39.8866 18.1671C37.6553 19.4969 34.7918 18.7505 33.4778 16.4923L31.0978 12.415L35.1265 10.0063H35.1327Z" fill="#E0E0E0"/>
<path d="M14.456 8.08959C10.0058 10.7492 8.52444 16.5577 11.1524 21.0615L27.2736 11.4329C24.6456 6.92914 18.9062 5.42997 14.456 8.08959Z" fill="white"/>
<path d="M14.6567 17.1305C15.4586 16.6517 15.6828 15.5331 15.1575 14.632C14.6322 13.7309 13.5563 13.3886 12.7544 13.8674C11.9524 14.3462 11.7282 15.4648 12.2535 16.3659C12.7788 17.267 13.8547 17.6093 14.6567 17.1305Z" fill="#262626"/>
<path d="M13.83 14.8621C14.0354 14.8621 14.2019 14.6936 14.2019 14.4857C14.2019 14.2779 14.0354 14.1094 13.83 14.1094C13.6246 14.1094 13.4581 14.2779 13.4581 14.4857C13.4581 14.6936 13.6246 14.8621 13.83 14.8621Z" fill="white"/>
<path d="M22.1934 12.6305C22.9953 12.1517 23.2196 11.0331 22.6942 10.132C22.1689 9.2309 21.093 8.88858 20.2911 9.3674C19.4892 9.84622 19.265 10.9648 19.7903 11.8659C20.3156 12.767 21.3915 13.1093 22.1934 12.6305Z" fill="#262626"/>
<path d="M20.3069 10.991C20.5123 10.991 20.6788 10.8225 20.6788 10.6146C20.6788 10.4068 20.5123 10.2383 20.3069 10.2383C20.1016 10.2383 19.9351 10.4068 19.9351 10.6146C19.9351 10.8225 20.1016 10.991 20.3069 10.991Z" fill="white"/>
<path d="M33.7074 7.55502L29.6787 9.96373L29.6663 9.93864C27.435 6.16875 23.524 4.05485 19.4705 3.96704L19.4519 2.31104C19.4457 1.58341 18.8569 0.993777 18.1317 1.00005C17.4065 1.00632 16.8239 1.6085 16.8363 2.33613L16.8549 4.19912C15.5471 4.46258 14.2579 4.9393 13.0493 5.66066C11.8407 6.38202 10.8056 7.29784 9.94406 8.32656L8.33877 7.41075C7.70657 7.0532 6.90702 7.27275 6.55373 7.91256C6.20044 8.55238 6.41737 9.36155 7.04957 9.7191L8.47512 10.5345C6.59092 14.1602 6.52893 18.6514 8.71065 22.4527L8.72305 22.4778L4.69431 24.8865C1.12423 27.0192 -0.0595982 31.661 2.04154 35.2678C4.14268 38.8746 8.73544 40.0727 12.2993 37.9462C14.3633 36.7105 15.6215 34.6342 15.9128 32.4012C19.018 34.5025 22.9786 35.0922 26.6106 33.8313L29.189 34.9855C29.8212 35.2678 30.5464 34.8412 30.6084 34.1387L30.8563 31.2972C33.7012 28.694 35.102 24.9053 34.7921 21.1354C36.8622 21.9571 39.2671 21.8442 41.331 20.6148C44.8949 18.4883 46.0787 13.8403 43.9776 10.2335C41.8764 6.62666 37.2837 5.42857 33.7198 7.55502H33.7074ZM31.036 17.9489L14.9707 27.5461C14.8467 27.3642 14.7166 27.1823 14.605 26.9878L12.5596 23.4877L28.6808 13.8591L30.7261 17.3655L30.7571 17.4157C30.8563 17.5913 30.9493 17.7732 31.036 17.9551V17.9489ZM14.4686 8.11329C18.9065 5.46621 24.6149 6.94029 27.2552 11.4065L11.1341 21.035C8.5495 16.5375 10.0308 10.7604 14.4686 8.11329ZM10.8676 35.4936C8.64247 36.8234 5.77277 36.077 4.45878 33.8188C3.1448 31.5606 3.88237 28.6626 6.11367 27.3328L10.1424 24.9241L12.1878 28.4306L12.5225 29.0076C13.8364 31.2595 13.0989 34.1638 10.8676 35.4936ZM27.4226 30.3312C24.026 32.3573 19.8857 31.9621 16.9417 29.6663L31.91 20.7277C32.474 24.4474 30.8191 28.3051 27.4226 30.3312ZM39.8869 18.1621C37.6618 19.492 34.7921 18.7455 33.4781 16.4873L33.1744 15.9604C33.1744 15.9604 33.1558 15.9228 33.1496 15.9102L31.1042 12.4101L35.133 10.0014C37.3581 8.67156 40.2278 9.41801 41.5417 11.6762C42.8557 13.9343 42.1182 16.8323 39.8869 18.1621Z" fill="#262626"/>
</g>
<path d="M65.045 20.366C65.122 21.246 65.122 22.786 65.045 23.688C64.814 26.35 62.834 28.22 59.776 28.22C57.378 28.22 55.629 27.494 54.925 27.01C54.485 26.702 54.309 26.394 54.309 25.778V13.964C54.309 12.765 55.035 12.039 56.124 12.039C57.213 12.039 57.939 12.765 57.939 13.964V16.274C58.511 16.01 59.435 15.834 60.216 15.834C62.834 15.834 64.814 17.704 65.045 20.366ZM57.939 24.326C58.313 24.59 58.995 24.744 59.589 24.744C60.799 24.744 61.382 23.996 61.459 22.962C61.503 22.39 61.514 21.796 61.459 21.092C61.382 20.058 60.799 19.31 59.589 19.31C58.995 19.31 58.313 19.464 57.939 19.728V24.326ZM68.526 11.236C69.637 11.236 70.484 12.083 70.484 13.194C70.484 14.338 69.637 15.196 68.526 15.196C67.415 15.196 66.568 14.338 66.568 13.194C66.568 12.083 67.415 11.236 68.526 11.236ZM66.722 26.185V17.869C66.722 16.67 67.448 15.944 68.537 15.944C69.626 15.944 70.352 16.67 70.352 17.869V26.185C70.352 27.384 69.626 28.11 68.537 28.11C67.448 28.11 66.722 27.384 66.722 26.185ZM79.9705 24.634C81.1585 24.634 81.7965 25.305 81.7965 26.317C81.7965 27.329 81.1585 28 79.9705 28H73.3375C72.2375 28 71.6545 27.384 71.6545 26.471C71.6545 25.756 71.9405 25.316 72.3805 24.788L76.8685 19.398L73.7665 19.409C72.5785 19.409 71.9405 18.727 71.9405 17.726C71.9405 16.725 72.5785 16.054 73.7665 16.054H80.0145C81.0155 16.054 81.7415 16.483 81.7415 17.539C81.7415 18.342 81.4225 18.859 80.9495 19.42L76.6045 24.634H79.9705ZM93.938 20.366C94.015 21.246 94.015 22.786 93.938 23.688C93.707 26.35 91.727 28.22 88.669 28.22C86.271 28.22 84.522 27.494 83.818 27.01C83.378 26.702 83.202 26.394 83.202 25.778V13.964C83.202 12.765 83.928 12.039 85.017 12.039C86.106 12.039 86.832 12.765 86.832 13.964V16.274C87.404 16.01 88.328 15.834 89.109 15.834C91.727 15.834 93.707 17.704 93.938 20.366ZM86.832 24.326C87.206 24.59 87.888 24.744 88.482 24.744C89.692 24.744 90.275 23.996 90.352 22.962C90.396 22.39 90.407 21.796 90.352 21.092C90.275 20.058 89.692 19.31 88.482 19.31C87.888 19.31 87.206 19.464 86.832 19.728V24.326ZM100.917 28.22C97.705 28.22 95.538 26.295 95.329 23.633C95.263 22.808 95.252 21.389 95.318 20.652C95.571 17.869 97.595 15.834 100.818 15.834C104.041 15.834 105.911 17.825 105.911 20.938V21.444C105.911 22.907 105.581 23.116 104.294 23.116H98.673V23.281C98.662 24.337 99.597 25.052 101.027 25.052C101.929 25.052 102.523 24.854 102.864 24.733C103.315 24.579 103.634 24.392 104.052 24.392C104.91 24.392 105.548 24.942 105.548 25.877C105.548 26.779 104.899 27.263 104.349 27.505C103.634 27.824 102.303 28.22 100.917 28.22ZM98.684 20.784H102.655C102.754 19.563 101.929 18.76 100.664 18.76C99.454 18.76 98.772 19.574 98.684 20.784ZM112.696 28.22C109.484 28.22 107.317 26.295 107.108 23.633C107.042 22.808 107.031 21.389 107.097 20.652C107.35 17.869 109.374 15.834 112.597 15.834C115.82 15.834 117.69 17.825 117.69 20.938V21.444C117.69 22.907 117.36 23.116 116.073 23.116H110.452V23.281C110.441 24.337 111.376 25.052 112.806 25.052C113.708 25.052 114.302 24.854 114.643 24.733C115.094 24.579 115.413 24.392 115.831 24.392C116.689 24.392 117.327 24.942 117.327 25.877C117.327 26.779 116.678 27.263 116.128 27.505C115.413 27.824 114.082 28.22 112.696 28.22ZM110.463 20.784H114.434C114.533 19.563 113.708 18.76 112.443 18.76C111.233 18.76 110.551 19.574 110.463 20.784ZM126.26 28C124.61 28 123.73 27.131 123.73 25.47V14.932C123.73 13.282 124.61 12.402 126.26 12.402H133.014C134.147 12.402 134.851 13.084 134.851 14.118C134.851 15.152 134.147 15.834 133.014 15.834H127.459V18.639H132.409C133.454 18.639 134.114 19.277 134.114 20.234C134.114 21.191 133.454 21.829 132.409 21.829H127.459V24.568H133.036C134.169 24.568 134.873 25.25 134.873 26.284C134.873 27.318 134.169 28 133.036 28H126.26ZM148.471 24.678C149.01 25.327 149.307 25.899 149.307 26.482C149.307 27.505 148.548 28.165 147.58 28.165C146.755 28.165 146.227 27.659 145.743 27.054L142.751 23.336C142.454 22.962 142.432 22.951 141.882 22.951H140.463V26.119C140.463 27.362 139.726 28.11 138.604 28.11C137.482 28.11 136.745 27.362 136.745 26.119V14.932C136.745 13.282 137.614 12.402 139.264 12.402H143.532C147.129 12.402 148.999 14.723 148.999 17.748C148.999 19.563 148.064 21.213 146.238 22.027L148.471 24.678ZM140.463 19.574H143.18C144.687 19.574 145.248 18.848 145.248 17.759C145.248 16.593 144.687 15.834 143.18 15.834H140.463V19.574ZM157.694 12.402C160.939 12.402 163.304 14.36 163.304 17.902C163.304 21.202 161.071 23.347 157.496 23.347H154.713V26.119C154.713 27.362 153.976 28.11 152.854 28.11C151.732 28.11 150.995 27.362 150.995 26.119V14.932C150.995 13.282 151.864 12.402 153.514 12.402H157.694ZM154.713 19.915H157.375C158.926 19.915 159.564 19.079 159.564 17.924C159.564 16.67 158.904 15.834 157.419 15.834H154.713V19.915Z" fill="#262626"/>
<defs>
<clipPath id="clip0_553_5314">
<rect width="44" height="38" fill="white" transform="translate(1 1)"/>
</clipPath>
</defs>
</svg>
