<svg width="180" height="40" viewBox="0 0 180 40" fill="none" xmlns="http://www.w3.org/2000/svg">
<g clip-path="url(#clip0_553_5511)">
<path d="M6.1134 27.3399C3.88829 28.6698 3.14453 31.574 4.45852 33.8259C5.7725 36.0778 8.6422 36.8305 10.8673 35.5007C13.0924 34.1709 13.8362 31.2667 12.5222 29.0148L10.1421 24.9375L6.1134 27.3462V27.3399Z" fill="#E0E0E0"/>
<path d="M12.5593 23.488L14.6171 27.0132C17.2451 31.517 22.9845 33.0162 27.4347 30.3566C31.8849 27.6969 33.3662 21.8884 30.7382 17.3846L28.6805 13.8594L12.5593 23.488Z" fill="#FD853A"/>
<path d="M35.1327 10.0063C37.3578 8.67651 40.2275 9.42296 41.5415 11.6811C42.8555 13.933 42.1179 16.8373 39.8866 18.1671C37.6553 19.4969 34.7918 18.7505 33.4778 16.4923L31.0978 12.415L35.1265 10.0063H35.1327Z" fill="#E0E0E0"/>
<path d="M14.456 8.08959C10.0058 10.7492 8.52444 16.5577 11.1524 21.0615L27.2736 11.4329C24.6456 6.92914 18.9062 5.42997 14.456 8.08959Z" fill="white"/>
<path d="M14.6567 17.1305C15.4586 16.6517 15.6828 15.5331 15.1575 14.632C14.6322 13.7309 13.5563 13.3886 12.7544 13.8674C11.9524 14.3462 11.7282 15.4648 12.2535 16.3659C12.7788 17.267 13.8547 17.6093 14.6567 17.1305Z" fill="#262626"/>
<path d="M13.83 14.8621C14.0354 14.8621 14.2019 14.6936 14.2019 14.4857C14.2019 14.2779 14.0354 14.1094 13.83 14.1094C13.6246 14.1094 13.4581 14.2779 13.4581 14.4857C13.4581 14.6936 13.6246 14.8621 13.83 14.8621Z" fill="white"/>
<path d="M22.1934 12.6305C22.9953 12.1517 23.2196 11.0331 22.6942 10.132C22.1689 9.2309 21.093 8.88858 20.2911 9.3674C19.4892 9.84622 19.265 10.9648 19.7903 11.8659C20.3156 12.767 21.3915 13.1093 22.1934 12.6305Z" fill="#262626"/>
<path d="M20.3069 10.991C20.5123 10.991 20.6788 10.8225 20.6788 10.6146C20.6788 10.4068 20.5123 10.2383 20.3069 10.2383C20.1016 10.2383 19.9351 10.4068 19.9351 10.6146C19.9351 10.8225 20.1016 10.991 20.3069 10.991Z" fill="white"/>
<path d="M33.7074 7.55502L29.6787 9.96373L29.6663 9.93864C27.435 6.16875 23.524 4.05485 19.4705 3.96704L19.4519 2.31104C19.4457 1.58341 18.8569 0.993777 18.1317 1.00005C17.4065 1.00632 16.8239 1.6085 16.8363 2.33613L16.8549 4.19912C15.5471 4.46258 14.2579 4.9393 13.0493 5.66066C11.8407 6.38202 10.8056 7.29784 9.94406 8.32656L8.33877 7.41075C7.70657 7.0532 6.90702 7.27275 6.55373 7.91256C6.20044 8.55238 6.41737 9.36155 7.04957 9.7191L8.47512 10.5345C6.59092 14.1602 6.52893 18.6514 8.71065 22.4527L8.72305 22.4778L4.69431 24.8865C1.12423 27.0192 -0.0595982 31.661 2.04154 35.2678C4.14268 38.8746 8.73544 40.0727 12.2993 37.9462C14.3633 36.7105 15.6215 34.6342 15.9128 32.4012C19.018 34.5025 22.9786 35.0922 26.6106 33.8313L29.189 34.9855C29.8212 35.2678 30.5464 34.8412 30.6084 34.1387L30.8563 31.2972C33.7012 28.694 35.102 24.9053 34.7921 21.1354C36.8622 21.9571 39.2671 21.8442 41.331 20.6148C44.8949 18.4883 46.0787 13.8403 43.9776 10.2335C41.8764 6.62666 37.2837 5.42857 33.7198 7.55502H33.7074ZM31.036 17.9489L14.9707 27.5461C14.8467 27.3642 14.7166 27.1823 14.605 26.9878L12.5596 23.4877L28.6808 13.8591L30.7261 17.3655L30.7571 17.4157C30.8563 17.5913 30.9493 17.7732 31.036 17.9551V17.9489ZM14.4686 8.11329C18.9065 5.46621 24.6149 6.94029 27.2552 11.4065L11.1341 21.035C8.5495 16.5375 10.0308 10.7604 14.4686 8.11329ZM10.8676 35.4936C8.64247 36.8234 5.77277 36.077 4.45878 33.8188C3.1448 31.5606 3.88237 28.6626 6.11367 27.3328L10.1424 24.9241L12.1878 28.4306L12.5225 29.0076C13.8364 31.2595 13.0989 34.1638 10.8676 35.4936ZM27.4226 30.3312C24.026 32.3573 19.8857 31.9621 16.9417 29.6663L31.91 20.7277C32.474 24.4474 30.8191 28.3051 27.4226 30.3312ZM39.8869 18.1621C37.6618 19.492 34.7921 18.7455 33.4781 16.4873L33.1744 15.9604C33.1744 15.9604 33.1558 15.9228 33.1496 15.9102L31.1042 12.4101L35.133 10.0014C37.3581 8.67156 40.2278 9.41801 41.5417 11.6762C42.8557 13.9343 42.1182 16.8323 39.8869 18.1621Z" fill="#262626"/>
</g>
<path d="M65.045 20.366C65.122 21.246 65.122 22.786 65.045 23.688C64.814 26.35 62.834 28.22 59.776 28.22C57.378 28.22 55.629 27.494 54.925 27.01C54.485 26.702 54.309 26.394 54.309 25.778V13.964C54.309 12.765 55.035 12.039 56.124 12.039C57.213 12.039 57.939 12.765 57.939 13.964V16.274C58.511 16.01 59.435 15.834 60.216 15.834C62.834 15.834 64.814 17.704 65.045 20.366ZM57.939 24.326C58.313 24.59 58.995 24.744 59.589 24.744C60.799 24.744 61.382 23.996 61.459 22.962C61.503 22.39 61.514 21.796 61.459 21.092C61.382 20.058 60.799 19.31 59.589 19.31C58.995 19.31 58.313 19.464 57.939 19.728V24.326ZM68.526 11.236C69.637 11.236 70.484 12.083 70.484 13.194C70.484 14.338 69.637 15.196 68.526 15.196C67.415 15.196 66.568 14.338 66.568 13.194C66.568 12.083 67.415 11.236 68.526 11.236ZM66.722 26.185V17.869C66.722 16.67 67.448 15.944 68.537 15.944C69.626 15.944 70.352 16.67 70.352 17.869V26.185C70.352 27.384 69.626 28.11 68.537 28.11C67.448 28.11 66.722 27.384 66.722 26.185ZM79.9705 24.634C81.1585 24.634 81.7965 25.305 81.7965 26.317C81.7965 27.329 81.1585 28 79.9705 28H73.3375C72.2375 28 71.6545 27.384 71.6545 26.471C71.6545 25.756 71.9405 25.316 72.3805 24.788L76.8685 19.398L73.7665 19.409C72.5785 19.409 71.9405 18.727 71.9405 17.726C71.9405 16.725 72.5785 16.054 73.7665 16.054H80.0145C81.0155 16.054 81.7415 16.483 81.7415 17.539C81.7415 18.342 81.4225 18.859 80.9495 19.42L76.6045 24.634H79.9705ZM93.938 20.366C94.015 21.246 94.015 22.786 93.938 23.688C93.707 26.35 91.727 28.22 88.669 28.22C86.271 28.22 84.522 27.494 83.818 27.01C83.378 26.702 83.202 26.394 83.202 25.778V13.964C83.202 12.765 83.928 12.039 85.017 12.039C86.106 12.039 86.832 12.765 86.832 13.964V16.274C87.404 16.01 88.328 15.834 89.109 15.834C91.727 15.834 93.707 17.704 93.938 20.366ZM86.832 24.326C87.206 24.59 87.888 24.744 88.482 24.744C89.692 24.744 90.275 23.996 90.352 22.962C90.396 22.39 90.407 21.796 90.352 21.092C90.275 20.058 89.692 19.31 88.482 19.31C87.888 19.31 87.206 19.464 86.832 19.728V24.326ZM100.917 28.22C97.705 28.22 95.538 26.295 95.329 23.633C95.263 22.808 95.252 21.389 95.318 20.652C95.571 17.869 97.595 15.834 100.818 15.834C104.041 15.834 105.911 17.825 105.911 20.938V21.444C105.911 22.907 105.581 23.116 104.294 23.116H98.673V23.281C98.662 24.337 99.597 25.052 101.027 25.052C101.929 25.052 102.523 24.854 102.864 24.733C103.315 24.579 103.634 24.392 104.052 24.392C104.91 24.392 105.548 24.942 105.548 25.877C105.548 26.779 104.899 27.263 104.349 27.505C103.634 27.824 102.303 28.22 100.917 28.22ZM98.684 20.784H102.655C102.754 19.563 101.929 18.76 100.664 18.76C99.454 18.76 98.772 19.574 98.684 20.784ZM112.696 28.22C109.484 28.22 107.317 26.295 107.108 23.633C107.042 22.808 107.031 21.389 107.097 20.652C107.35 17.869 109.374 15.834 112.597 15.834C115.82 15.834 117.69 17.825 117.69 20.938V21.444C117.69 22.907 117.36 23.116 116.073 23.116H110.452V23.281C110.441 24.337 111.376 25.052 112.806 25.052C113.708 25.052 114.302 24.854 114.643 24.733C115.094 24.579 115.413 24.392 115.831 24.392C116.689 24.392 117.327 24.942 117.327 25.877C117.327 26.779 116.678 27.263 116.128 27.505C115.413 27.824 114.082 28.22 112.696 28.22ZM110.463 20.784H114.434C114.533 19.563 113.708 18.76 112.443 18.76C111.233 18.76 110.551 19.574 110.463 20.784ZM128.779 28.22C125.567 28.22 123.4 26.295 123.191 23.633C123.125 22.808 123.114 21.389 123.18 20.652C123.433 17.869 125.457 15.834 128.68 15.834C131.903 15.834 133.773 17.825 133.773 20.938V21.444C133.773 22.907 133.443 23.116 132.156 23.116H126.535V23.281C126.524 24.337 127.459 25.052 128.889 25.052C129.791 25.052 130.385 24.854 130.726 24.733C131.177 24.579 131.496 24.392 131.914 24.392C132.772 24.392 133.41 24.942 133.41 25.877C133.41 26.779 132.761 27.263 132.211 27.505C131.496 27.824 130.165 28.22 128.779 28.22ZM126.546 20.784H130.517C130.616 19.563 129.791 18.76 128.526 18.76C127.316 18.76 126.634 19.574 126.546 20.784ZM141.207 28.22C138.402 28.22 136.686 27.384 135.729 26.768C135.102 26.361 134.75 25.767 134.75 25.074C134.75 24.029 135.509 23.358 136.466 23.358C137.038 23.358 137.434 23.556 137.885 23.809C138.644 24.227 139.557 24.788 141.207 24.788C142.692 24.788 143.55 24.37 143.55 23.501C143.55 22.544 142.186 22.181 140.437 21.818C136.752 21.048 135.113 19.75 135.113 16.945C135.113 14.085 137.632 12.182 140.91 12.182C143.187 12.182 144.727 12.743 145.673 13.271C146.322 13.645 146.652 14.173 146.652 14.877C146.652 15.812 145.926 16.593 145.024 16.593C144.507 16.593 144.067 16.384 143.55 16.164C142.912 15.9 142.142 15.614 140.91 15.614C139.469 15.614 138.853 16.142 138.853 16.835C138.853 17.627 139.645 18.056 141.537 18.408C145.486 19.134 147.29 20.586 147.29 23.325C147.29 26.075 144.958 28.22 141.207 28.22ZM150.344 11.236C151.455 11.236 152.302 12.083 152.302 13.194C152.302 14.338 151.455 15.196 150.344 15.196C149.233 15.196 148.386 14.338 148.386 13.194C148.386 12.083 149.233 11.236 150.344 11.236ZM148.54 26.185V17.869C148.54 16.67 149.266 15.944 150.355 15.944C151.444 15.944 152.17 16.67 152.17 17.869V26.185C152.17 27.384 151.444 28.11 150.355 28.11C149.266 28.11 148.54 27.384 148.54 26.185ZM159.236 32.07C157.564 32.07 156.31 31.707 155.606 31.355C154.858 30.981 154.451 30.42 154.451 29.694C154.451 28.858 155.089 28.253 155.936 28.253C156.31 28.253 156.651 28.363 157.058 28.517C157.63 28.737 158.103 28.836 158.928 28.836C160.435 28.836 160.996 28.099 160.996 27.175V26.933C160.446 27.197 159.511 27.373 158.719 27.373C156.189 27.373 154.132 25.624 153.868 23.127C153.791 22.401 153.802 20.828 153.868 20.08C154.088 17.583 156.332 15.834 159.346 15.834C161.601 15.834 163.119 16.56 163.68 16.879C164.582 17.385 164.626 17.759 164.626 19.321V26.724C164.626 30.354 162.415 32.07 159.236 32.07ZM157.476 22.643C157.553 23.512 158.136 24.139 159.346 24.139C159.94 24.139 160.622 23.985 160.996 23.721V19.596C160.622 19.332 159.94 19.178 159.346 19.178C158.136 19.178 157.575 19.805 157.476 20.674C157.432 21.07 157.443 22.247 157.476 22.643ZM171.814 15.834C175.378 15.834 177.226 17.671 177.226 20.564V26.185C177.226 27.384 176.5 28.11 175.411 28.11C174.322 28.11 173.596 27.384 173.596 26.185V20.993C173.596 19.926 173.046 19.31 171.814 19.31C171.165 19.31 170.56 19.486 170.153 19.662V26.185C170.153 27.384 169.427 28.11 168.338 28.11C167.249 28.11 166.523 27.384 166.523 26.185V18.925C166.523 17.759 166.765 17.231 167.909 16.659C168.525 16.351 170.087 15.834 171.814 15.834Z" fill="#262626"/>
<defs>
<clipPath id="clip0_553_5511">
<rect width="44" height="38" fill="white" transform="translate(1 1)"/>
</clipPath>
</defs>
</svg>
