<svg width="94" height="80" viewBox="0 0 94 80" fill="none" xmlns="http://www.w3.org/2000/svg">
<g clip-path="url(#clip0_546_878)">
<path d="M11.2627 55.4523C6.57932 58.2519 5.01385 64.3661 7.77952 69.107C10.5452 73.8478 16.5853 75.4325 21.2687 72.6329C25.9521 69.8333 27.5176 63.7191 24.7519 58.9782L19.7424 50.3945L11.2627 55.4655V55.4523Z" fill="#E0E0E0"/>
<path d="M24.8301 47.341L29.1612 54.7626C34.6926 64.2443 46.7729 67.4004 56.1397 61.8012C65.5064 56.202 68.6244 43.9736 63.093 34.4919L58.7618 27.0703L24.8301 47.341Z" fill="#FDC315"/>
<path d="M72.3423 18.9648C77.0257 16.1652 83.0659 17.7367 85.8315 22.4907C88.5972 27.2315 87.0448 33.3458 82.3483 36.1454C77.6519 38.945 71.6248 37.3735 68.8591 32.6195L63.8496 24.0358L72.3293 18.9648H72.3423Z" fill="#E0E0E0"/>
<path d="M28.8222 14.9232C19.4554 20.5224 16.3375 32.7509 21.8689 42.2325L55.8006 21.9618C50.2692 12.4801 38.189 9.32398 28.8222 14.9232Z" fill="white"/>
<path d="M29.2447 33.9625C30.9325 32.9544 31.4045 30.5994 30.2989 28.7024C29.1932 26.8054 26.9286 26.0847 25.2407 27.0928C23.5529 28.1008 23.0809 30.4558 24.1865 32.3528C25.2922 34.2499 27.5568 34.9705 29.2447 33.9625Z" fill="#262626"/>
<path d="M27.5044 29.1862C27.9367 29.1862 28.2872 28.8315 28.2872 28.3939C28.2872 27.9563 27.9367 27.6016 27.5044 27.6016C27.0721 27.6016 26.7217 27.9563 26.7217 28.3939C26.7217 28.8315 27.0721 29.1862 27.5044 29.1862Z" fill="white"/>
<path d="M45.1077 24.4898C46.7956 23.4818 47.2675 21.1268 46.1619 19.2298C45.0562 17.3327 42.7916 16.6121 41.1038 17.6201C39.4159 18.6281 38.9439 20.9832 40.0496 22.8802C41.1552 24.7772 43.4198 25.4979 45.1077 24.4898Z" fill="#262626"/>
<path d="M41.1372 21.0378C41.5695 21.0378 41.92 20.6831 41.92 20.2455C41.92 19.8079 41.5695 19.4531 41.1372 19.4531C40.7049 19.4531 40.3545 19.8079 40.3545 20.2455C40.3545 20.6831 40.7049 21.0378 41.1372 21.0378Z" fill="white"/>
<path d="M69.3423 13.8L60.8626 18.871L60.8365 18.8182C56.1401 10.8816 47.9082 6.43127 39.3764 6.24639L39.3373 2.76009C39.3242 1.22823 38.0849 -0.0131013 36.5585 0.000104396C35.0322 0.0133101 33.8059 1.28106 33.832 2.81291L33.8711 6.735C31.1185 7.28964 28.405 8.29327 25.8611 9.81192C23.3172 11.3306 21.1386 13.2586 19.3252 15.4243L15.9464 13.4963C14.6157 12.7436 12.9329 13.2058 12.1893 14.5528C11.4457 15.8997 11.9023 17.6033 13.2329 18.356L16.2334 20.0727C12.2675 27.7056 12.1371 37.1609 16.7291 45.1635L16.7552 45.2163L8.27556 50.2873C0.761262 54.7773 -1.73046 64.5495 2.69202 72.1427C7.1145 79.736 16.7813 82.2583 24.2826 77.7815C28.6268 75.18 31.275 70.809 31.8882 66.1077C38.4241 70.5316 46.7602 71.773 54.405 69.1186L59.832 71.5485C61.1626 72.1427 62.689 71.2447 62.8194 69.7657L63.3413 63.7835C69.3292 58.3032 72.2775 50.3269 71.6253 42.3903C75.9825 44.1203 81.0442 43.8826 85.3884 41.2943C92.8897 36.8175 95.3814 27.0321 90.9589 19.4389C86.5364 11.8456 76.8696 9.32331 69.3684 13.8H69.3423ZM63.7196 35.6818L29.9053 55.8865C29.6443 55.5036 29.3704 55.1206 29.1356 54.7112L24.8305 47.3425L58.7622 27.0717L63.0673 34.4537L63.1325 34.5594C63.3413 34.9291 63.5369 35.3121 63.7196 35.695V35.6818ZM28.8486 14.9753C38.1892 9.40255 50.2043 12.5059 55.7617 21.9083L21.83 42.179C16.39 32.7106 19.5079 20.5481 28.8486 14.9753ZM21.269 72.6181C16.5856 75.4177 10.5455 73.8463 7.77982 69.0922C5.01415 64.3382 6.56658 58.2371 11.263 55.4375L19.7427 50.3666L24.0478 57.7485L24.7522 58.9635C27.5179 63.7043 25.9655 69.8185 21.269 72.6181ZM56.114 61.7499C48.965 66.0153 40.2505 65.1833 34.0538 60.3501L65.559 41.532C66.7462 49.3629 63.263 57.4844 56.114 61.7499ZM82.3488 36.1308C77.6654 38.9304 71.6253 37.359 68.8596 32.6049L68.2203 31.4956C68.2203 31.4956 68.1812 31.4164 68.1682 31.39L63.8631 24.0212L72.3428 18.9503C77.0261 16.1506 83.0663 17.7221 85.832 22.4762C88.5976 27.2302 87.0452 33.3312 82.3488 36.1308Z" fill="#262626"/>
</g>
<defs>
<clipPath id="clip0_546_878">
<rect width="92.6111" height="80" fill="white" transform="translate(0.5)"/>
</clipPath>
</defs>
</svg>
