<svg width="193" height="40" viewBox="0 0 193 40" fill="none" xmlns="http://www.w3.org/2000/svg">
<g clip-path="url(#clip0_553_5589)">
<path d="M6.17508 27.3399C3.92318 28.6698 3.17046 31.574 4.50027 33.8259C5.83008 36.0778 8.73434 36.8305 10.9862 35.5007C13.2381 34.1709 13.9909 31.2667 12.6611 29.0148L10.2523 24.9375L6.17508 27.3462V27.3399Z" fill="#E0E0E0"/>
<path d="M12.6985 23.488L14.781 27.0132C17.4406 31.517 23.2492 33.0162 27.753 30.3566C32.2568 27.6969 33.7559 21.8884 31.0963 17.3846L29.0138 13.8594L12.6985 23.488Z" fill="#36BFFA"/>
<path d="M35.5437 10.0063C37.7956 8.67651 40.6999 9.42296 42.0297 11.6811C43.3595 13.933 42.6131 16.8373 40.3549 18.1671C38.0967 19.4969 35.1987 18.7505 33.8689 16.4923L31.4602 12.415L35.5375 10.0063H35.5437Z" fill="#E0E0E0"/>
<path d="M14.618 8.08959C10.1142 10.7492 8.61502 16.5577 11.2746 21.0615L27.5899 11.4329C24.9303 6.92914 19.1218 5.42997 14.618 8.08959Z" fill="white"/>
<path d="M14.8212 17.1305C15.6328 16.6517 15.8597 15.5331 15.3281 14.632C14.7964 13.7309 13.7076 13.3886 12.896 13.8674C12.0844 14.3462 11.8575 15.4648 12.3891 16.3659C12.9207 17.267 14.0096 17.6093 14.8212 17.1305Z" fill="#262626"/>
<path d="M13.9845 14.8621C14.1924 14.8621 14.3609 14.6936 14.3609 14.4857C14.3609 14.2779 14.1924 14.1094 13.9845 14.1094C13.7767 14.1094 13.6082 14.2779 13.6082 14.4857C13.6082 14.6936 13.7767 14.8621 13.9845 14.8621Z" fill="white"/>
<path d="M22.4486 12.6305C23.2602 12.1517 23.4871 11.0331 22.9555 10.132C22.4239 9.2309 21.335 8.88858 20.5234 9.3674C19.7119 9.84622 19.4849 10.9648 20.0166 11.8659C20.5482 12.767 21.6371 13.1093 22.4486 12.6305Z" fill="#262626"/>
<path d="M20.5394 10.991C20.7473 10.991 20.9158 10.8225 20.9158 10.6146C20.9158 10.4068 20.7473 10.2383 20.5394 10.2383C20.3316 10.2383 20.1631 10.4068 20.1631 10.6146C20.1631 10.8225 20.3316 10.991 20.5394 10.991Z" fill="white"/>
<path d="M34.1011 7.55502L30.0239 9.96373L30.0113 9.93864C27.7532 6.16875 23.7951 4.05485 19.6928 3.96704L19.6739 2.31104C19.6677 1.58341 19.0718 0.993777 18.3379 1.00005C17.604 1.00632 17.0143 1.6085 17.0269 2.33613L17.0457 4.19912C15.7221 4.46258 14.4174 4.9393 13.1942 5.66066C11.9711 6.38202 10.9235 7.29784 10.0516 8.32656L8.427 7.41075C7.78718 7.0532 6.978 7.27275 6.62046 7.91256C6.26292 8.55238 6.48246 9.36155 7.12228 9.7191L8.565 10.5345C6.6581 14.1602 6.59537 18.6514 8.80336 22.4527L8.8159 22.4778L4.73865 24.8865C1.12558 27.0192 -0.0725056 31.661 2.05394 35.2678C4.18038 38.8746 8.82845 40.0727 12.4352 37.9462C14.5241 36.7105 15.7974 34.6342 16.0922 32.4012C19.2349 34.5025 23.2431 35.0922 26.9189 33.8313L29.5283 34.9855C30.1682 35.2678 30.9021 34.8412 30.9648 34.1387L31.2157 31.2972C34.0949 28.694 35.5125 24.9053 35.1989 21.1354C37.2939 21.9571 39.7277 21.8442 41.8166 20.6148C45.4234 18.4883 46.6214 13.8403 44.495 10.2335C42.3685 6.62666 37.7205 5.42857 34.1137 7.55502H34.1011ZM31.3976 17.9489L15.1388 27.5461C15.0133 27.3642 14.8816 27.1823 14.7687 26.9878L12.6987 23.4877L29.014 13.8591L31.084 17.3655L31.1153 17.4157C31.2157 17.5913 31.3098 17.7732 31.3976 17.9551V17.9489ZM14.6307 8.11329C19.1219 5.46621 24.8991 6.94029 27.5713 11.4065L11.256 21.035C8.64027 16.5375 10.1394 10.7604 14.6307 8.11329ZM10.9863 35.4936C8.73436 36.8234 5.8301 36.077 4.50029 33.8188C3.17048 31.5606 3.91693 28.6626 6.1751 27.3328L10.2524 24.9241L12.3223 28.4306L12.6611 29.0076C13.9909 31.2595 13.2444 34.1638 10.9863 35.4936ZM27.7406 30.3312C24.3032 32.3573 20.113 31.9621 17.1335 29.6663L32.2821 20.7277C32.8529 24.4474 31.1781 28.3051 27.7406 30.3312ZM40.355 18.1621C38.1031 19.492 35.1989 18.7455 33.8691 16.4873L33.5617 15.9604C33.5617 15.9604 33.5429 15.9228 33.5366 15.9102L31.4666 12.4101L35.5439 10.0014C37.7958 8.67156 40.7 9.41801 42.0298 11.6762C43.3596 13.9343 42.6132 16.8323 40.355 18.1621Z" fill="#262626"/>
</g>
<path d="M65.5748 20.366C65.6518 21.246 65.6518 22.786 65.5748 23.688C65.3438 26.35 63.3638 28.22 60.3058 28.22C57.9078 28.22 56.1588 27.494 55.4548 27.01C55.0148 26.702 54.8388 26.394 54.8388 25.778V13.964C54.8388 12.765 55.5648 12.039 56.6538 12.039C57.7428 12.039 58.4688 12.765 58.4688 13.964V16.274C59.0408 16.01 59.9648 15.834 60.7458 15.834C63.3638 15.834 65.3438 17.704 65.5748 20.366ZM58.4688 24.326C58.8428 24.59 59.5248 24.744 60.1188 24.744C61.3288 24.744 61.9118 23.996 61.9888 22.962C62.0328 22.39 62.0438 21.796 61.9888 21.092C61.9118 20.058 61.3288 19.31 60.1188 19.31C59.5248 19.31 58.8428 19.464 58.4688 19.728V24.326ZM69.0558 11.236C70.1668 11.236 71.0138 12.083 71.0138 13.194C71.0138 14.338 70.1668 15.196 69.0558 15.196C67.9448 15.196 67.0978 14.338 67.0978 13.194C67.0978 12.083 67.9448 11.236 69.0558 11.236ZM67.2518 26.185V17.869C67.2518 16.67 67.9778 15.944 69.0668 15.944C70.1558 15.944 70.8818 16.67 70.8818 17.869V26.185C70.8818 27.384 70.1558 28.11 69.0668 28.11C67.9778 28.11 67.2518 27.384 67.2518 26.185ZM80.5002 24.634C81.6882 24.634 82.3262 25.305 82.3262 26.317C82.3262 27.329 81.6882 28 80.5002 28H73.8672C72.7672 28 72.1842 27.384 72.1842 26.471C72.1842 25.756 72.4702 25.316 72.9102 24.788L77.3982 19.398L74.2962 19.409C73.1082 19.409 72.4702 18.727 72.4702 17.726C72.4702 16.725 73.1082 16.054 74.2962 16.054H80.5442C81.5452 16.054 82.2712 16.483 82.2712 17.539C82.2712 18.342 81.9522 18.859 81.4792 19.42L77.1342 24.634H80.5002ZM94.4678 20.366C94.5448 21.246 94.5448 22.786 94.4678 23.688C94.2368 26.35 92.2568 28.22 89.1988 28.22C86.8008 28.22 85.0518 27.494 84.3478 27.01C83.9078 26.702 83.7318 26.394 83.7318 25.778V13.964C83.7318 12.765 84.4578 12.039 85.5468 12.039C86.6358 12.039 87.3618 12.765 87.3618 13.964V16.274C87.9338 16.01 88.8578 15.834 89.6388 15.834C92.2568 15.834 94.2368 17.704 94.4678 20.366ZM87.3618 24.326C87.7358 24.59 88.4178 24.744 89.0118 24.744C90.2218 24.744 90.8048 23.996 90.8818 22.962C90.9258 22.39 90.9368 21.796 90.8818 21.092C90.8048 20.058 90.2218 19.31 89.0118 19.31C88.4178 19.31 87.7358 19.464 87.3618 19.728V24.326ZM101.447 28.22C98.2348 28.22 96.0678 26.295 95.8588 23.633C95.7928 22.808 95.7818 21.389 95.8478 20.652C96.1008 17.869 98.1248 15.834 101.348 15.834C104.571 15.834 106.441 17.825 106.441 20.938V21.444C106.441 22.907 106.111 23.116 104.824 23.116H99.2028V23.281C99.1918 24.337 100.127 25.052 101.557 25.052C102.459 25.052 103.053 24.854 103.394 24.733C103.845 24.579 104.164 24.392 104.582 24.392C105.44 24.392 106.078 24.942 106.078 25.877C106.078 26.779 105.429 27.263 104.879 27.505C104.164 27.824 102.833 28.22 101.447 28.22ZM99.2138 20.784H103.185C103.284 19.563 102.459 18.76 101.194 18.76C99.9838 18.76 99.3018 19.574 99.2138 20.784ZM113.226 28.22C110.014 28.22 107.847 26.295 107.638 23.633C107.572 22.808 107.561 21.389 107.627 20.652C107.88 17.869 109.904 15.834 113.127 15.834C116.35 15.834 118.22 17.825 118.22 20.938V21.444C118.22 22.907 117.89 23.116 116.603 23.116H110.982V23.281C110.971 24.337 111.906 25.052 113.336 25.052C114.238 25.052 114.832 24.854 115.173 24.733C115.624 24.579 115.943 24.392 116.361 24.392C117.219 24.392 117.857 24.942 117.857 25.877C117.857 26.779 117.208 27.263 116.658 27.505C115.943 27.824 114.612 28.22 113.226 28.22ZM110.993 20.784H114.964C115.063 19.563 114.238 18.76 112.973 18.76C111.763 18.76 111.081 19.574 110.993 20.784ZM126.79 28C125.14 28 124.26 27.131 124.26 25.47V14.932C124.26 13.282 125.14 12.402 126.79 12.402H133.544C134.677 12.402 135.381 13.084 135.381 14.118C135.381 15.152 134.677 15.834 133.544 15.834H127.989V18.639H132.939C133.984 18.639 134.644 19.277 134.644 20.234C134.644 21.191 133.984 21.829 132.939 21.829H127.989V24.568H133.566C134.699 24.568 135.403 25.25 135.403 26.284C135.403 27.318 134.699 28 133.566 28H126.79ZM149.001 24.678C149.54 25.327 149.837 25.899 149.837 26.482C149.837 27.505 149.078 28.165 148.11 28.165C147.285 28.165 146.757 27.659 146.273 27.054L143.281 23.336C142.984 22.962 142.962 22.951 142.412 22.951H140.993V26.119C140.993 27.362 140.256 28.11 139.134 28.11C138.012 28.11 137.275 27.362 137.275 26.119V14.932C137.275 13.282 138.144 12.402 139.794 12.402H144.062C147.659 12.402 149.529 14.723 149.529 17.748C149.529 19.563 148.594 21.213 146.768 22.027L149.001 24.678ZM140.993 19.574H143.71C145.217 19.574 145.778 18.848 145.778 17.759C145.778 16.593 145.217 15.834 143.71 15.834H140.993V19.574ZM158.224 12.402C161.469 12.402 163.834 14.36 163.834 17.902C163.834 21.202 161.601 23.347 158.026 23.347H155.243V26.119C155.243 27.362 154.506 28.11 153.384 28.11C152.262 28.11 151.525 27.362 151.525 26.119V14.932C151.525 13.282 152.394 12.402 154.044 12.402H158.224ZM155.243 19.915H157.905C159.456 19.915 160.094 19.079 160.094 17.924C160.094 16.67 159.434 15.834 157.949 15.834H155.243V19.915Z" fill="#262626"/>
<path fill-rule="evenodd" clip-rule="evenodd" d="M168.53 11C167.425 11 166.53 11.8954 166.53 13V24C166.53 25.1046 167.425 26 168.53 26H171.53V29L176.53 26H189.53C190.634 26 191.53 25.1046 191.53 24V13C191.53 11.8954 190.634 11 189.53 11H168.53Z" fill="#36BFFA"/>
<path d="M174.01 20.44C174.525 20.44 174.845 20.75 174.845 21.22C174.845 21.69 174.525 22 174.01 22H170.95C170.22 22 169.85 21.585 169.97 20.85L170.83 15.68C170.92 15.135 171.23 14.83 171.705 14.83C172.21 14.83 172.53 15.13 172.53 15.645C172.53 15.71 172.52 15.83 172.51 15.905L171.755 20.44H174.01ZM177.319 14.38C177.794 14.38 178.144 14.75 178.144 15.225C178.144 15.705 177.754 16.18 177.224 16.18C176.724 16.18 176.364 15.8 176.364 15.31C176.364 14.815 176.779 14.38 177.319 14.38ZM175.459 21.29C175.459 21.225 175.464 21.11 175.474 21.035L176.084 17.315C176.169 16.785 176.474 16.52 176.934 16.52C177.424 16.52 177.739 16.78 177.739 17.28C177.739 17.345 177.729 17.46 177.719 17.535L177.109 21.255C177.024 21.785 176.719 22.05 176.259 22.05C175.769 22.05 175.459 21.79 175.459 21.29ZM182.396 17.31C182.396 17.76 182.111 18.045 181.581 18.045H180.431L180.116 19.965C180.096 20.075 180.086 20.17 180.086 20.245C180.086 20.445 180.221 20.58 180.496 20.58C180.651 20.58 180.766 20.56 180.871 20.53C181.016 20.495 181.141 20.45 181.326 20.45C181.701 20.45 182.001 20.73 182.001 21.125C182.001 21.49 181.811 21.755 181.351 21.925C181.111 22.015 180.646 22.1 180.316 22.1C179.176 22.1 178.396 21.535 178.396 20.46C178.396 20.325 178.406 20.18 178.431 20.03L179.076 16.15C179.166 15.62 179.466 15.355 179.926 15.355C180.416 15.355 180.726 15.615 180.726 16.115C180.726 16.18 180.721 16.295 180.711 16.37L180.686 16.57H181.581C182.111 16.57 182.396 16.86 182.396 17.31ZM187.478 19.255C187.353 19.81 187.253 19.86 186.638 19.86H184.228L184.213 19.93C184.203 19.98 184.198 20.025 184.198 20.065C184.198 20.455 184.488 20.69 185.048 20.69C185.498 20.69 185.758 20.565 185.893 20.5C186.028 20.435 186.183 20.335 186.423 20.335C186.748 20.335 187.068 20.57 187.068 20.975C187.068 21.355 186.743 21.62 186.423 21.79C186.073 21.975 185.538 22.1 185.068 22.1C183.618 22.1 182.673 21.38 182.673 20.005C182.673 19.465 182.783 19 182.873 18.56C183.168 17.12 184.338 16.47 185.438 16.47C186.603 16.47 187.578 17.13 187.578 18.49C187.578 18.635 187.578 18.805 187.478 19.255ZM184.393 18.8H185.928C185.998 18.8 186.028 18.77 186.048 18.68C186.068 18.59 186.078 18.515 186.078 18.44C186.078 18.08 185.833 17.78 185.378 17.78C184.923 17.78 184.573 18.06 184.428 18.625C184.418 18.68 184.403 18.74 184.393 18.8Z" fill="white"/>
<defs>
<clipPath id="clip0_553_5589">
<rect width="44.5299" height="38" fill="white" transform="translate(1 1)"/>
</clipPath>
</defs>
</svg>
