<svg width="60" height="80" viewBox="0 0 60 80" fill="none" xmlns="http://www.w3.org/2000/svg">
<g id="Layer_1" clip-path="url(#clip0_587_3395)">
<path id="Vector" d="M30.3123 62.4766V68.2422" stroke="#5E6066" stroke-width="3" stroke-linecap="round" stroke-linejoin="round"/>
<path id="Vector_2" d="M1.69116 72.8359L25.1108 72.7195" stroke="#5E6066" stroke-width="3" stroke-linecap="round" stroke-linejoin="round"/>
<path id="Vector_3" d="M36.2583 72.8359H58.3127" stroke="#5E6066" stroke-width="3" stroke-linecap="round" stroke-linejoin="round"/>
<path id="Vector_4" d="M35.5438 73.47C35.5438 70.5815 33.2007 68.2422 30.3122 68.2422C27.4238 68.2422 25.0845 70.5853 25.0845 73.47C25.0845 76.3546 27.4276 78.6977 30.3122 78.6977C33.1969 78.6977 35.5438 76.3546 35.5438 73.47Z" stroke="#5E6066" stroke-width="3" stroke-linecap="round" stroke-linejoin="round"/>
<path id="Vector_5" d="M8.10352 44.9007C8.10352 45.5927 8.24643 46.2509 8.48714 46.8564H52.1372C52.3816 46.2509 52.5208 45.5927 52.5208 44.9044V39.6992H8.10352V44.9044V44.9007Z" stroke="#5E6066" stroke-width="3" stroke-linecap="round" stroke-linejoin="round"/>
<path id="Vector_6" d="M52.5208 16.918H8.10352V24.0789H52.5208V16.918Z" stroke="#5E6066" stroke-width="3" stroke-linecap="round" stroke-linejoin="round"/>
<path id="Vector_7" d="M4.24102 46.8594C3.40232 46.8594 2.72534 47.5364 2.72534 48.3751V60.9631C2.72534 61.8018 3.40232 62.4788 4.24102 62.4788H56.3834C57.2221 62.4788 57.8991 61.8018 57.8991 60.9631V48.3751C57.8991 47.5364 57.2221 46.8594 56.3834 46.8594H4.24102Z" fill="#FFD230" stroke="#5E6066" stroke-width="3" stroke-linecap="round" stroke-linejoin="round"/>
<path id="Vector_8" d="M4.24102 24.0781C3.40232 24.0781 2.72534 24.7551 2.72534 25.5938V38.1818C2.72534 39.0205 3.40232 39.6975 4.24102 39.6975H56.3834C57.2221 39.6975 57.8991 39.0205 57.8991 38.1818V25.5938C57.8991 24.7589 57.2221 24.0781 56.3834 24.0781H4.24102Z" fill="#FFD230" stroke="#5E6066" stroke-width="3" stroke-linecap="round" stroke-linejoin="round"/>
<path id="Vector_9" d="M56.3834 16.9163C57.2221 16.9163 57.8991 16.2393 57.8991 15.4006V2.81255C57.8991 1.97385 57.2221 1.29688 56.3834 1.29688H4.24102C3.40232 1.29688 2.72534 1.97385 2.72534 2.81255V15.4006C2.72534 16.2355 3.40232 16.9163 4.24102 16.9163H56.3834Z" fill="#FFD230" stroke="#5E6066" stroke-width="3" stroke-linecap="round" stroke-linejoin="round"/>
<path id="Vector_10" d="M49.4781 9.89964C49.0419 9.89964 48.6846 9.5461 48.6846 9.10607C48.6846 8.66603 49.0381 8.3125 49.4781 8.3125C49.9182 8.3125 50.2717 8.66603 50.2717 9.10607C50.2717 9.5461 49.9182 9.89964 49.4781 9.89964Z" fill="#FFD230" stroke="#5E6066" stroke-width="3" stroke-linecap="round" stroke-linejoin="round"/>
<path id="Vector_11" d="M49.4781 32.6809C49.0419 32.6809 48.6846 32.3274 48.6846 31.8873C48.6846 31.4473 49.0381 31.0938 49.4781 31.0938C49.9182 31.0938 50.2717 31.4473 50.2717 31.8873C50.2717 32.3274 49.9182 32.6809 49.4781 32.6809Z" fill="#FFD230" stroke="#5E6066" stroke-width="3" stroke-linecap="round" stroke-linejoin="round"/>
<path id="Vector_12" d="M49.4781 54.6653C49.0419 54.6653 48.6846 54.3117 48.6846 53.8717C48.6846 53.4317 49.0381 53.0781 49.4781 53.0781C49.9182 53.0781 50.2717 53.4317 50.2717 53.8717C50.2717 54.3117 49.9182 54.6653 49.4781 54.6653Z" fill="#FFD230" stroke="#5E6066" stroke-width="3" stroke-linecap="round" stroke-linejoin="round"/>
<path id="Vector_13" d="M42.8777 5.14062V13.0726" stroke="#5E6066" stroke-width="3" stroke-linejoin="round"/>
<path id="Vector_14" d="M42.8777 27.9219V35.85" stroke="#5E6066" stroke-width="3" stroke-linejoin="round"/>
<path id="Vector_15" d="M42.8777 50.7031V58.6313" stroke="#5E6066" stroke-width="3" stroke-linejoin="round"/>
<path id="Vector_16" d="M11.1274 27.5703H8.10352V30.5941H11.1274V27.5703Z" fill="#5E6066"/>
<path id="Vector_17" d="M17.9274 27.5703H14.9036V30.5941H17.9274V27.5703Z" fill="#5E6066"/>
<path id="Vector_18" d="M24.7121 27.5703H21.6882V30.5941H24.7121V27.5703Z" fill="#5E6066"/>
<path id="Vector_19" d="M11.1274 33.1797H8.10352V36.2035H11.1274V33.1797Z" fill="#5E6066"/>
<path id="Vector_20" d="M17.9274 33.1797H14.9036V36.2035H17.9274V33.1797Z" fill="#5E6066"/>
<path id="Vector_21" d="M24.7121 33.1797H21.6882V36.2035H24.7121V33.1797Z" fill="#5E6066"/>
<path id="Vector_22" d="M11.1349 4.79297H8.11108V7.8168H11.1349V4.79297Z" fill="#5E6066"/>
<path id="Vector_23" d="M17.9347 4.79297H14.9109V7.8168H17.9347V4.79297Z" fill="#5E6066"/>
<path id="Vector_24" d="M24.7196 4.79297H21.6958V7.8168H24.7196V4.79297Z" fill="#5E6066"/>
<path id="Vector_25" d="M11.1349 10.3984H8.11108V13.4223H11.1349V10.3984Z" fill="#5E6066"/>
<path id="Vector_26" d="M17.9347 10.3984H14.9109V13.4223H17.9347V10.3984Z" fill="#5E6066"/>
<path id="Vector_27" d="M24.7196 10.3984H21.6958V13.4223H24.7196V10.3984Z" fill="#5E6066"/>
<path id="Vector_28" d="M11.1349 50.7031H8.11108V53.727H11.1349V50.7031Z" fill="#5E6066"/>
<path id="Vector_29" d="M17.9347 50.7031H14.9109V53.727H17.9347V50.7031Z" fill="#5E6066"/>
<path id="Vector_30" d="M24.7196 50.7031H21.6958V53.727H24.7196V50.7031Z" fill="#5E6066"/>
<path id="Vector_31" d="M11.1349 56.3086H8.11108V59.3324H11.1349V56.3086Z" fill="#5E6066"/>
<path id="Vector_32" d="M17.9347 56.3086H14.9109V59.3324H17.9347V56.3086Z" fill="#5E6066"/>
<path id="Vector_33" d="M24.7196 56.3086H21.6958V59.3324H24.7196V56.3086Z" fill="#5E6066"/>
</g>
<defs>
<clipPath id="clip0_587_3395">
<rect width="59.213" height="80" fill="white" transform="translate(0.393555)"/>
</clipPath>
</defs>
</svg>
