<svg width="66" height="60" viewBox="0 0 66 60" fill="none" xmlns="http://www.w3.org/2000/svg">
<g id="Layer_1" clip-path="url(#clip0_587_3676)">
<path id="Vector" d="M27.2366 9.95312H38.7634" stroke="#5E6066" stroke-width="2" stroke-linecap="round" stroke-linejoin="round"/>
<path id="Vector_2" d="M27.2366 50.0469H38.7634" stroke="#5E6066" stroke-width="2" stroke-linecap="round" stroke-linejoin="round"/>
<path id="Vector_3" d="M11.5159 24.2383V35.7651" stroke="#5E6066" stroke-width="2" stroke-linecap="round" stroke-linejoin="round"/>
<path id="Vector_4" d="M54.4873 24.2383V35.7651" stroke="#5E6066" stroke-width="2" stroke-linecap="round" stroke-linejoin="round"/>
<path id="Vector_5" d="M21.6011 41.1406H1.50615C1.44194 41.1406 1.38989 41.1927 1.38989 41.2569V56.0651C1.38989 56.1293 1.44194 56.1813 1.50615 56.1813H21.6011C21.6653 56.1813 21.7173 56.1293 21.7173 56.0651V41.2569C21.7173 41.1927 21.6653 41.1406 21.6011 41.1406Z" stroke="#5E6066" stroke-width="2" stroke-linecap="round" stroke-linejoin="round"/>
<path id="Vector_6" d="M5.79028 58.9961H17.3171" stroke="#5E6066" stroke-width="2" stroke-linecap="round" stroke-linejoin="round"/>
<path id="Vector_7" d="M64.4939 41.1406H44.399C44.3348 41.1406 44.2827 41.1927 44.2827 41.2569V56.0651C44.2827 56.1293 44.3348 56.1813 44.399 56.1813H64.4939C64.5581 56.1813 64.6102 56.1293 64.6102 56.0651V41.2569C64.6102 41.1927 64.5581 41.1406 64.4939 41.1406Z" fill="#FFD230" stroke="#5E6066" stroke-width="2" stroke-linecap="round" stroke-linejoin="round"/>
<path id="Vector_8" d="M48.6831 58.9961H60.2128" stroke="#5E6066" stroke-width="2" stroke-linecap="round" stroke-linejoin="round"/>
<path id="Vector_9" d="M64.4939 1.00391H44.399C44.3348 1.00391 44.2827 1.05596 44.2827 1.12016V15.9283C44.2827 15.9925 44.3348 16.0446 44.399 16.0446H64.4939C64.5581 16.0446 64.6102 15.9925 64.6102 15.9283V1.12016C64.6102 1.05596 64.5581 1.00391 64.4939 1.00391Z" stroke="#5E6066" stroke-width="2" stroke-linecap="round" stroke-linejoin="round"/>
<path id="Vector_10" d="M48.6831 18.8594H60.2128" stroke="#5E6066" stroke-width="2" stroke-linecap="round" stroke-linejoin="round"/>
<path id="Vector_11" d="M21.6011 1.00391H1.50615C1.44194 1.00391 1.38989 1.05596 1.38989 1.12016V15.9283C1.38989 15.9925 1.44194 16.0446 1.50615 16.0446H21.6011C21.6653 16.0446 21.7173 15.9925 21.7173 15.9283V1.12016C21.7173 1.05596 21.6653 1.00391 21.6011 1.00391Z" fill="#FFD230" stroke="#5E6066" stroke-width="2" stroke-linecap="round" stroke-linejoin="round"/>
<path id="Vector_12" d="M5.79028 18.8594H17.3171" stroke="#5E6066" stroke-width="2" stroke-linecap="round" stroke-linejoin="round"/>
<path id="Vector_13" d="M42.6406 27.8915C42.5156 27.8915 42.3965 27.9002 42.2744 27.9089C42.4023 27.3974 42.4749 26.8655 42.4749 26.3162C42.4749 22.6658 39.5162 19.707 35.8658 19.707C34.0987 19.707 32.4943 20.4046 31.3085 21.5352C30.6371 21.2474 29.8989 21.0847 29.12 21.0847C26.0566 21.0847 23.5745 23.5667 23.5745 26.6301C23.5745 26.6446 23.5745 26.6592 23.5745 26.6708C21.139 26.8742 19.2236 28.9116 19.2236 31.3995C19.2236 34.024 21.3511 36.1486 23.9727 36.1486H42.6348C44.9163 36.1486 46.7648 34.3001 46.7648 32.0186C46.7648 29.7371 44.9163 27.8886 42.6348 27.8886L42.6406 27.8915Z" fill="#FFD230" stroke="#5E6066" stroke-width="2" stroke-linecap="round" stroke-linejoin="round"/>
</g>
<defs>
<clipPath id="clip0_587_3676">
<rect width="65.2257" height="60" fill="white" transform="translate(0.387207)"/>
</clipPath>
</defs>
</svg>
