<svg width="17" height="15" viewBox="0 0 17 15" fill="none" xmlns="http://www.w3.org/2000/svg">
<path d="M5.85352 8.58789H8.12109L9.08789 9.82715C9.69434 9.12402 10.0459 8.04297 10.0371 6.63672C10.0459 3.91211 8.74512 2.44434 6.78516 2.43555C4.80762 2.44434 3.51562 3.91211 3.51562 6.63672C3.51562 9.35254 4.80762 10.8291 6.78516 10.8379C7.04004 10.8379 7.28613 10.8115 7.51465 10.7588L5.85352 8.58789ZM0.826172 6.63672C0.826172 2.47949 3.39258 0.0976562 6.78516 0.0976562C10.1514 0.0976562 12.7266 2.47949 12.7266 6.63672C12.7266 8.91309 11.9531 10.6533 10.7051 11.7695L12.5156 14.0547H10.0371L9.01758 12.7891C8.33203 13.0439 7.57617 13.1758 6.78516 13.1758C3.39258 13.1758 0.826172 10.7764 0.826172 6.63672ZM15.3105 13.1582C14.4844 13.1582 13.8164 12.499 13.834 11.6816C13.8164 10.873 14.4844 10.2139 15.3105 10.2227C16.0928 10.2139 16.7695 10.873 16.7695 11.6816C16.7695 12.499 16.0928 13.1582 15.3105 13.1582Z" fill="black"/>
</svg>
