<svg width="56" height="56" viewBox="0 0 56 56" fill="none" xmlns="http://www.w3.org/2000/svg">
<g id="Frame" clip-path="url(#clip0_546_606)">
<path id="Vector" d="M45.5001 29.3365L28 46.6685L10.5001 29.3365C9.34576 28.2133 8.43655 26.8632 7.82966 25.3714C7.22278 23.8795 6.93136 22.2781 6.97377 20.6681C7.01618 19.058 7.3915 17.4742 8.07609 16.0163C8.76067 14.5585 9.7397 13.2581 10.9515 12.1972C12.1633 11.1363 13.5817 10.3378 15.1173 9.852C16.6529 9.36618 18.2724 9.20357 19.8739 9.37441C21.4754 9.54525 23.0242 10.0458 24.4228 10.8447C25.8213 11.6435 27.0393 12.7232 28 14.0159C28.965 12.7326 30.1844 11.6623 31.582 10.872C32.9795 10.0816 34.5252 9.58826 36.1222 9.42276C37.7192 9.25726 39.3332 9.42317 40.8632 9.91013C42.3931 10.3971 43.8061 11.1946 45.0137 12.2527C46.2212 13.3109 47.1974 14.6069 47.881 16.0596C48.5647 17.5124 48.9411 19.0906 48.9868 20.6955C49.0324 22.3005 48.7463 23.8975 48.1464 25.3868C47.5464 26.8761 46.6455 28.2255 45.5001 29.3505" stroke="white" stroke-width="4.66667" stroke-linecap="round" stroke-linejoin="round"/>
<path id="Vector_2" d="M27.9999 14L20.3162 21.6837C19.8788 22.1212 19.6331 22.7146 19.6331 23.3333C19.6331 23.952 19.8788 24.5454 20.3162 24.983L21.5832 26.25C23.1932 27.86 25.8066 27.86 27.4166 26.25L29.7499 23.9167C31.1423 22.5243 33.0308 21.7421 34.9999 21.7421C36.969 21.7421 38.8575 22.5243 40.2499 23.9167L45.4999 29.1667" stroke="white" stroke-width="4.66667" stroke-linecap="round" stroke-linejoin="round"/>
<path id="Vector_3" d="M29.1667 36.168L33.8334 40.8346" stroke="white" stroke-width="4.66667" stroke-linecap="round" stroke-linejoin="round"/>
<path id="Vector_4" d="M35 30.332L39.6667 34.9987" stroke="white" stroke-width="4.66667" stroke-linecap="round" stroke-linejoin="round"/>
</g>
<defs>
<clipPath id="clip0_546_606">
<rect width="56" height="56" fill="white"/>
</clipPath>
</defs>
</svg>
