<svg width="119" height="14" viewBox="0 0 119 14" fill="none" xmlns="http://www.w3.org/2000/svg">
<g id="typo">
<path d="M8.85621 7.52591C8.91973 8.2513 8.91973 9.52073 8.85621 10.2642C8.66566 12.4585 7.03234 14 4.50977 14C2.53164 14 1.08888 13.4016 0.508144 13.0026C0.145184 12.7487 0 12.4948 0 11.987V2.2487C0 1.26036 0.598883 0.661917 1.49721 0.661917C2.39553 0.661917 2.99442 1.26036 2.99442 2.2487V4.15285C3.46626 3.93523 4.22848 3.79016 4.87273 3.79016C7.03234 3.79016 8.66566 5.33161 8.85621 7.52591ZM2.99442 10.7902C3.30293 11.0078 3.86552 11.1347 4.35552 11.1347C5.35365 11.1347 5.83458 10.5181 5.89809 9.6658C5.93439 9.1943 5.94346 8.70466 5.89809 8.12435C5.83458 7.27202 5.35365 6.65544 4.35552 6.65544C3.86552 6.65544 3.30293 6.78238 2.99442 7V10.7902Z" fill="#262626"/>
<path d="M11.7277 0C12.6442 0 13.3429 0.698187 13.3429 1.61399C13.3429 2.55699 12.6442 3.26425 11.7277 3.26425C10.8112 3.26425 10.1125 2.55699 10.1125 1.61399C10.1125 0.698187 10.8112 0 11.7277 0ZM10.2396 12.3225V5.46762C10.2396 4.47927 10.8385 3.88083 11.7368 3.88083C12.6351 3.88083 13.234 4.47927 13.234 5.46762V12.3225C13.234 13.3109 12.6351 13.9093 11.7368 13.9093C10.8385 13.9093 10.2396 13.3109 10.2396 12.3225Z" fill="#262626"/>
<path d="M21.1683 11.044C22.1483 11.044 22.6746 11.5971 22.6746 12.4313C22.6746 13.2655 22.1483 13.8187 21.1683 13.8187H15.6967C14.7893 13.8187 14.3084 13.3109 14.3084 12.5583C14.3084 11.9689 14.5443 11.6062 14.9073 11.171L18.6095 6.72798L16.0506 6.73705C15.0706 6.73705 14.5443 6.17487 14.5443 5.34974C14.5443 4.52461 15.0706 3.9715 16.0506 3.9715H21.2046C22.0304 3.9715 22.6293 4.32513 22.6293 5.1956C22.6293 5.85751 22.3661 6.28368 21.9759 6.74611L18.3917 11.044H21.1683Z" fill="#262626"/>
<path d="M32.6903 7.52591C32.7538 8.2513 32.7538 9.52073 32.6903 10.2642C32.4998 12.4585 30.8665 14 28.3439 14C26.3658 14 24.923 13.4016 24.3423 13.0026C23.9793 12.7487 23.8341 12.4948 23.8341 11.987V2.2487C23.8341 1.26036 24.433 0.661917 25.3313 0.661917C26.2296 0.661917 26.8285 1.26036 26.8285 2.2487V4.15285C27.3004 3.93523 28.0626 3.79016 28.7068 3.79016C30.8665 3.79016 32.4998 5.33161 32.6903 7.52591ZM26.8285 10.7902C27.137 11.0078 27.6996 11.1347 28.1896 11.1347C29.1878 11.1347 29.6687 10.5181 29.7322 9.6658C29.7685 9.1943 29.7776 8.70466 29.7322 8.12435C29.6687 7.27202 29.1878 6.65544 28.1896 6.65544C27.6996 6.65544 27.137 6.78238 26.8285 7V10.7902Z" fill="#262626"/>
<path d="M38.4473 14C35.7977 14 34.0102 12.4132 33.8378 10.2189C33.7833 9.53886 33.7742 8.36917 33.8287 7.76166C34.0374 5.46762 35.707 3.79016 38.3657 3.79016C41.0244 3.79016 42.5669 5.43135 42.5669 7.99741V8.41451C42.5669 9.62047 42.2947 9.79275 41.2331 9.79275H36.5963V9.92876C36.5872 10.7992 37.3585 11.3886 38.5381 11.3886C39.2822 11.3886 39.7722 11.2254 40.0534 11.1256C40.4255 10.9987 40.6886 10.8446 41.0334 10.8446C41.7412 10.8446 42.2675 11.2979 42.2675 12.0687C42.2675 12.8122 41.7321 13.2111 41.2784 13.4106C40.6886 13.6736 39.5907 14 38.4473 14ZM36.6053 7.87047H39.881C39.9627 6.86399 39.2822 6.20207 38.2386 6.20207C37.2405 6.20207 36.6779 6.87306 36.6053 7.87047Z" fill="#262626"/>
<path d="M48.1643 14C45.5147 14 43.7271 12.4132 43.5547 10.2189C43.5003 9.53886 43.4912 8.36917 43.5457 7.76166C43.7544 5.46762 45.424 3.79016 48.0826 3.79016C50.7413 3.79016 52.2839 5.43135 52.2839 7.99741V8.41451C52.2839 9.62047 52.0117 9.79275 50.95 9.79275H46.3132V9.92876C46.3041 10.7992 47.0754 11.3886 48.2551 11.3886C48.9991 11.3886 49.4891 11.2254 49.7704 11.1256C50.1424 10.9987 50.4056 10.8446 50.7504 10.8446C51.4582 10.8446 51.9845 11.2979 51.9845 12.0687C51.9845 12.8122 51.4491 13.2111 50.9954 13.4106C50.4056 13.6736 49.3076 14 48.1643 14ZM46.3223 7.87047H49.598C49.6797 6.86399 48.9991 6.20207 47.9556 6.20207C46.9575 6.20207 46.3949 6.87306 46.3223 7.87047Z" fill="#262626"/>
<path d="M59.3528 13.8187C57.9917 13.8187 57.2658 13.0933 57.2658 11.7332V3.04663C57.2658 1.68653 57.9917 0.961139 59.3528 0.961139H63.4996C65.8498 0.961139 67.2472 2.32124 67.2472 4.48834C67.2472 5.76684 66.6211 6.69171 65.7409 7.16321V7.19948C66.8026 7.58031 67.592 8.64119 67.592 10.2461C67.592 12.6036 65.877 13.8187 63.4633 13.8187H59.3528ZM60.3147 10.9896H63.0459C63.9896 10.9896 64.4343 10.5181 64.4343 9.72927C64.4343 8.94041 63.9715 8.45078 63.0459 8.45078H60.3147V10.9896ZM60.3237 6.14767H62.8463C63.7174 6.14767 64.1348 5.67617 64.1348 4.95984C64.1348 4.20725 63.6811 3.79016 62.8463 3.79016H60.3237V6.14767Z" fill="#262626"/>
<path d="M70.2471 0C71.1636 0 71.8623 0.698187 71.8623 1.61399C71.8623 2.55699 71.1636 3.26425 70.2471 3.26425C69.3307 3.26425 68.632 2.55699 68.632 1.61399C68.632 0.698187 69.3307 0 70.2471 0ZM68.759 12.3225V5.46762C68.759 4.47927 69.3579 3.88083 70.2562 3.88083C71.1545 3.88083 71.7534 4.47927 71.7534 5.46762V12.3225C71.7534 13.3109 71.1545 13.9093 70.2562 13.9093C69.3579 13.9093 68.759 13.3109 68.759 12.3225Z" fill="#262626"/>
<path d="M79.6878 11.044C80.6678 11.044 81.1941 11.5971 81.1941 12.4313C81.1941 13.2655 80.6678 13.8187 79.6878 13.8187H74.2162C73.3088 13.8187 72.8279 13.3109 72.8279 12.5583C72.8279 11.9689 73.0638 11.6062 73.4267 11.171L77.1289 6.72798L74.5701 6.73705C73.5901 6.73705 73.0638 6.17487 73.0638 5.34974C73.0638 4.52461 73.5901 3.9715 74.5701 3.9715H79.7241C80.5498 3.9715 81.1487 4.32513 81.1487 5.1956C81.1487 5.85751 80.8856 6.28368 80.4954 6.74611L76.9111 11.044H79.6878Z" fill="#262626"/>
<path d="M87.9794 14C84.8217 14 82.4171 11.706 82.163 8.79534C82.0813 7.85233 82.0813 6.92746 82.163 5.98446C82.4171 3.07383 84.8217 0.779792 87.9794 0.779792C89.9938 0.779792 91.9266 1.74093 92.716 3.39119C92.8884 3.75389 92.952 4.09845 92.952 4.3886C92.952 5.23187 92.3349 5.78497 91.5001 5.78497C90.8468 5.78497 90.4294 5.44948 90.0937 4.93264C89.6853 4.29793 89.0411 3.69041 87.8887 3.69041C86.4005 3.69041 85.3389 4.81477 85.2482 6.40155C85.2119 7.0272 85.2119 7.75259 85.2482 8.37824C85.348 9.96503 86.4005 11.0894 87.8887 11.0894C89.0411 11.0894 89.6853 10.4819 90.0937 9.84715C90.4294 9.33031 90.8468 8.99482 91.5001 8.99482C92.3349 8.99482 92.952 9.54793 92.952 10.3912C92.952 10.6813 92.8884 11.0259 92.716 11.3886C91.9266 13.0389 89.9938 14 87.9794 14Z" fill="#262626"/>
<path d="M97.5023 14C94.8255 14 93.5279 12.4676 93.5279 10.772C93.5279 9.29404 94.6894 7.85233 97.2482 7.85233C97.9288 7.85233 98.5821 7.94301 99.181 8.08808V7.4715C99.181 6.82772 98.8089 6.41969 97.5204 6.41969C97.094 6.41969 96.6766 6.48316 96.3227 6.60104C95.9325 6.72798 95.6058 6.85492 95.2792 6.85492C94.5986 6.85492 94.0632 6.35622 94.0632 5.63083C94.0632 5.05959 94.3536 4.55181 95.1068 4.27072C95.7964 4.00777 96.6403 3.79016 97.711 3.79016C100.524 3.79016 102.03 4.97798 102.03 7.62565V11.9961C102.03 12.4948 101.894 12.7668 101.522 13.0026C100.878 13.4106 99.426 14 97.5023 14ZM96.3408 10.763C96.3408 11.3614 96.9397 11.6969 97.6838 11.6969C98.2464 11.6969 98.7908 11.5699 99.181 11.3886V9.95596C98.7001 9.81088 98.1919 9.73834 97.6656 9.73834C96.8217 9.73834 96.3408 10.1917 96.3408 10.763Z" fill="#262626"/>
<path d="M104.958 13.9093C104.06 13.9093 103.461 13.3109 103.461 12.3225V7.29016C103.461 5.17746 104.777 3.79016 106.782 3.79016C107.326 3.79016 107.88 3.84456 108.361 3.9715C109.196 4.19819 109.813 4.62435 109.813 5.46762C109.813 6.37435 109.223 6.91839 108.615 6.91839C108.334 6.91839 108.134 6.86399 107.934 6.81865C107.716 6.77332 107.499 6.72798 107.199 6.72798C106.673 6.72798 106.455 6.96373 106.455 7.52591V12.3225C106.455 13.3109 105.856 13.9093 104.958 13.9093Z" fill="#262626"/>
<path d="M117.503 0.661917C118.401 0.661917 119 1.26036 119 2.2487V11.987C119 12.4948 118.855 12.7487 118.492 13.0026C117.911 13.4016 116.468 14 114.49 14C111.95 14 110.316 12.4585 110.126 10.2642C110.062 9.52073 110.062 8.2513 110.126 7.52591C110.316 5.33161 111.95 3.79016 114.127 3.79016C114.772 3.79016 115.534 3.93523 116.006 4.15285V2.2487C116.006 1.26036 116.604 0.661917 117.503 0.661917ZM113.102 9.6658C113.174 10.5181 113.646 11.1347 114.644 11.1347C115.134 11.1347 115.697 11.0078 116.006 10.7902V7C115.697 6.78238 115.134 6.65544 114.644 6.65544C113.646 6.65544 113.165 7.27202 113.102 8.12435C113.057 8.70466 113.066 9.1943 113.102 9.6658Z" fill="#262626"/>
</g>
</svg>
