<svg width="112" height="14" viewBox="0 0 112 14" fill="none" xmlns="http://www.w3.org/2000/svg">
<g clip-path="url(#clip0_707_1078)">
<path d="M8.76037 10.3113C8.57226 12.4779 6.95666 14.0007 4.45949 14.0007C2.50086 14.0007 1.07338 13.4085 0.501647 13.0149C0.143855 12.7648 0 12.5146 0 12.0107V2.39903C0 1.42058 0.593861 0.832031 1.48281 0.832031C2.37176 0.832031 2.96562 1.42425 2.96562 2.39903V4.27869C3.43407 4.06535 4.18654 3.92189 4.82466 3.92189C6.96035 3.92189 8.57594 5.44475 8.76406 7.61133C8.82677 8.32862 8.82677 9.57927 8.76406 10.315L8.76037 10.3113ZM4.30826 11.172C5.2968 11.172 5.77263 10.5651 5.83533 9.72273C5.87222 9.25557 5.87959 8.7737 5.83533 8.19987C5.77263 7.35752 5.2968 6.75058 4.30826 6.75058C3.82506 6.75058 3.26808 6.87565 2.96193 7.09267V10.8336C3.26808 11.047 3.82506 11.172 4.30826 11.172Z" fill="#262626"/>
<path d="M13.2881 1.76853C13.2881 2.69917 12.5983 3.39806 11.6909 3.39806C10.7835 3.39806 10.0938 2.69917 10.0938 1.76853C10.0938 0.837894 10.7835 0.175781 11.6872 0.175781C12.5909 0.175781 13.2844 0.863642 13.2844 1.76853H13.2881ZM10.2192 5.572C10.2192 4.59722 10.813 4.005 11.702 4.005C12.5909 4.005 13.1848 4.59722 13.1848 5.572V12.3403C13.1848 13.315 12.5909 13.9073 11.702 13.9073C10.813 13.9073 10.2192 13.315 10.2192 12.3403V5.57568V5.572Z" fill="#262626"/>
<path d="M22.6053 12.4513C22.6053 13.2753 22.0852 13.8197 21.1151 13.8197H15.7003C14.804 13.8197 14.3281 13.3194 14.3281 12.5764C14.3281 11.9952 14.5605 11.6347 14.922 11.208L18.5847 6.81967L16.0544 6.82703C15.0843 6.82703 14.5642 6.27159 14.5642 5.45867C14.5642 4.64574 15.0843 4.09766 16.0544 4.09766H21.152C21.9672 4.09766 22.561 4.4471 22.561 5.30785C22.561 5.96261 22.2991 6.38194 21.9155 6.83807L18.3708 11.0829H21.1188C22.0889 11.0829 22.609 11.6273 22.609 12.4513H22.6053Z" fill="#262626"/>
<path d="M32.5885 10.3113C32.4004 12.4779 30.7848 14.0007 28.2876 14.0007C26.329 14.0007 24.9015 13.4085 24.3298 13.0149C23.972 12.7648 23.8281 12.5146 23.8281 12.0107V2.39903C23.8281 1.42425 24.422 0.832031 25.3109 0.832031C26.1999 0.832031 26.7937 1.42425 26.7937 2.39903V4.27869C27.2622 4.06535 28.0147 3.92189 28.6528 3.92189C30.7885 3.92189 32.4041 5.44475 32.5922 7.61133C32.6549 8.32862 32.6549 9.57927 32.5922 10.315L32.5885 10.3113ZM28.1364 11.172C29.1249 11.172 29.6008 10.5651 29.6635 9.72273C29.7003 9.25557 29.7077 8.7737 29.6635 8.19987C29.6008 7.35752 29.1249 6.75058 28.1364 6.75058C27.6532 6.75058 27.0962 6.87565 26.7901 7.09267V10.8336C27.0962 11.047 27.6532 11.172 28.1364 11.172Z" fill="#262626"/>
<path d="M33.811 10.2669C33.7557 9.59374 33.7483 8.4424 33.8036 7.83915C34.0102 5.57325 35.6627 3.91797 38.2926 3.91797C40.9226 3.91797 42.4496 5.54014 42.4496 8.07089V8.48287C42.4496 9.67467 42.1804 9.84387 41.1291 9.84387H36.5405V9.97998C36.5332 10.8407 37.293 11.4219 38.4623 11.4219C39.2 11.4219 39.6832 11.2601 39.9599 11.1607C40.3287 11.0357 40.5869 10.8849 40.93 10.8849C41.6308 10.8849 42.1509 11.3336 42.1509 12.0951C42.1509 12.8565 41.6197 13.2243 41.1734 13.4193C40.5906 13.6804 39.5025 14.0005 38.3738 14.0005C35.7512 14.0005 33.9844 12.4335 33.8147 10.2669H33.811ZM39.7902 7.9495C39.8713 6.95633 39.1963 6.30157 38.1635 6.30157C37.1307 6.30157 36.618 6.96369 36.5479 7.9495H39.7902Z" fill="#262626"/>
<path d="M43.5141 10.2669C43.4588 9.59374 43.4514 8.4424 43.5067 7.83915C43.7133 5.57325 45.3658 3.91797 47.9957 3.91797C50.6257 3.91797 52.1528 5.54014 52.1528 8.07089V8.48287C52.1528 9.67467 51.8835 9.84387 50.8323 9.84387H46.2437V9.97998C46.2363 10.8407 46.9961 11.4219 48.1654 11.4219C48.9031 11.4219 49.3863 11.2601 49.663 11.1607C50.0318 11.0357 50.29 10.8849 50.6331 10.8849C51.3339 10.8849 51.854 11.3336 51.854 12.0951C51.854 12.8565 51.3228 13.2243 50.8765 13.4193C50.2937 13.6804 49.2056 14.0005 48.0769 14.0005C45.4543 14.0005 43.6875 12.4335 43.5178 10.2669H43.5141ZM49.4933 7.9495C49.5745 6.95633 48.8994 6.30157 47.8666 6.30157C46.8338 6.30157 46.3211 6.96369 46.251 7.9495H49.4933Z" fill="#262626"/>
<path d="M57.2656 11.7593V3.18491C57.2656 1.84229 57.9849 1.125 59.3312 1.125H64.842C65.7678 1.125 66.3395 1.68044 66.3395 2.52279C66.3395 3.36515 65.7641 3.92059 64.842 3.92059H60.3087V6.20487H64.3477C65.1998 6.20487 65.7383 6.72353 65.7383 7.50335C65.7383 8.28317 65.1998 8.80183 64.3477 8.80183H60.3087V11.0309H64.8604C65.7862 11.0309 66.358 11.5864 66.358 12.4287C66.358 13.2711 65.7826 13.8265 64.8604 13.8265H59.3312C57.9849 13.8265 57.2656 13.1203 57.2656 11.7666V11.7593Z" fill="#262626"/>
<path d="M78.2234 12.5832C78.2234 13.4145 77.6038 13.9516 76.8144 13.9516C76.1394 13.9516 75.7115 13.5396 75.3168 13.0467L72.875 10.0194C72.6316 9.71407 72.6131 9.70671 72.1668 9.70671H71.0086V12.2853C71.0086 13.2968 70.4073 13.9038 69.4926 13.9038C68.5778 13.9038 67.9766 13.2968 67.9766 12.2853V3.18491C67.9766 1.84229 68.6848 1.125 70.0311 1.125H73.5131C76.4492 1.125 77.9763 3.0157 77.9763 5.47655C77.9763 6.95527 77.2128 8.29788 75.7226 8.96L77.5447 11.1192C77.9837 11.6489 78.2271 12.1124 78.2271 12.5869L78.2234 12.5832ZM73.2217 6.96262C74.45 6.96262 74.9111 6.3704 74.9111 5.48391C74.9111 4.53488 74.4537 3.91691 73.2217 3.91691H71.0049V6.95895H73.2217V6.96262Z" fill="#262626"/>
<path d="M89.7315 5.60162C89.7315 8.28685 87.9093 10.0341 84.9917 10.0341H82.7195V12.289C82.7195 13.3005 82.1183 13.9074 81.2035 13.9074C80.2887 13.9074 79.6875 13.3005 79.6875 12.289V3.18491C79.6875 1.84229 80.3957 1.125 81.742 1.125H85.154C87.8024 1.125 89.7315 2.71775 89.7315 5.60162ZM84.8921 7.23851C86.1573 7.23851 86.6774 6.558 86.6774 5.61633C86.6774 4.59741 86.1388 3.91691 84.9253 3.91691H82.7158V7.23851H84.8884H84.8921Z" fill="#262626"/>
<path d="M110.397 0H93.9055C93.0203 0 92.3047 0.71361 92.3047 1.59643V10.4025C92.3047 11.2853 93.0203 11.9989 93.9055 11.9989H96.3732V13.8198L99.3683 11.9989H110.401C111.286 11.9989 112.002 11.2853 112.002 10.4025V1.59643C112.002 0.71361 111.286 0 110.401 0H110.397Z" fill="#36BFFA"/>
<path d="M98.951 8.37512C98.951 8.77975 98.6744 9.04459 98.2318 9.04459H95.5981C94.9711 9.04459 94.6502 8.68779 94.7535 8.05878L95.4949 3.61895C95.5723 3.15179 95.8379 2.89062 96.2473 2.89062C96.6826 2.89062 96.9592 3.14811 96.9592 3.58952C96.9592 3.6447 96.9518 3.74769 96.9408 3.8139L96.2916 7.70933H98.2318C98.6744 7.70933 98.951 7.97418 98.951 8.3788V8.37512Z" fill="white"/>
<path d="M99.4991 8.21842L100.023 5.02556C100.097 4.56944 100.359 4.34138 100.753 4.34138C101.174 4.34138 101.447 4.56576 101.447 4.99246C101.447 5.04764 101.439 5.14695 101.428 5.21316L100.904 8.40602C100.831 8.86214 100.569 9.0902 100.174 9.0902C99.7536 9.0902 99.4844 8.86582 99.4844 8.43912C99.4844 8.38395 99.4881 8.28463 99.4991 8.21842ZM101.797 3.2305C101.797 3.64249 101.461 4.05079 101.004 4.05079C100.573 4.05079 100.263 3.72341 100.263 3.30407C100.263 2.88473 100.62 2.50586 101.085 2.50586C101.495 2.50586 101.797 2.8222 101.797 3.2305Z" fill="white"/>
<path d="M104.756 5.64965H103.768L103.495 7.29758C103.476 7.39322 103.469 7.47414 103.469 7.53667C103.469 7.70956 103.583 7.82359 103.823 7.82359C103.956 7.82359 104.055 7.8052 104.148 7.77945C104.273 7.75002 104.38 7.70956 104.539 7.70956C104.863 7.70956 105.121 7.94865 105.121 8.29075C105.121 8.60341 104.959 8.83147 104.561 8.97861C104.354 9.05585 103.952 9.12942 103.668 9.12942C102.687 9.12942 102.016 8.64387 102.016 7.72059C102.016 7.60288 102.023 7.4815 102.045 7.35275L102.602 4.02012C102.68 3.564 102.938 3.33594 103.332 3.33594C103.753 3.33594 104.022 3.56032 104.022 3.98701C104.022 4.04219 104.019 4.14151 104.007 4.20772L103.985 4.3806H104.756C105.214 4.3806 105.457 4.63074 105.457 5.01697C105.457 5.4032 105.21 5.64965 104.756 5.64965Z" fill="white"/>
<path d="M109.115 7.20604H107.038L107.023 7.26489C107.016 7.30903 107.008 7.34581 107.008 7.37892C107.008 7.71366 107.259 7.91597 107.739 7.91597C108.126 7.91597 108.351 7.80929 108.465 7.75412C108.583 7.69894 108.716 7.61066 108.923 7.61066C109.203 7.61066 109.48 7.81297 109.48 8.15874C109.48 8.48612 109.199 8.71418 108.923 8.85764C108.62 9.01581 108.159 9.12248 107.757 9.12248C106.51 9.12248 105.695 8.50451 105.695 7.32374C105.695 6.86027 105.791 6.45932 105.869 6.08412C106.123 4.84818 107.13 4.28906 108.078 4.28906C109.081 4.28906 109.922 4.85554 109.922 6.02527C109.922 6.15033 109.922 6.29747 109.838 6.6837C109.731 7.1619 109.642 7.20236 109.115 7.20236V7.20604ZM108.502 6.29747C108.561 6.29747 108.587 6.27172 108.606 6.19448C108.624 6.11723 108.631 6.05102 108.631 5.98848C108.631 5.6795 108.421 5.42201 108.03 5.42201C107.639 5.42201 107.337 5.66111 107.211 6.14666C107.204 6.19447 107.189 6.24597 107.182 6.29747H108.502Z" fill="white"/>
</g>
<defs>
<clipPath id="clip0_707_1078">
<rect width="112" height="14" fill="white"/>
</clipPath>
</defs>
</svg>
