<svg width="89" height="14" viewBox="0 0 89 14" fill="none" xmlns="http://www.w3.org/2000/svg">
<path d="M8.76649 7.52591C8.82936 8.2513 8.82936 9.52073 8.76649 10.2642C8.57787 12.4585 6.9611 14 4.46408 14C2.50599 14 1.07785 13.4016 0.502995 13.0026C0.143713 12.7487 0 12.4948 0 11.987V2.2487C0 1.26036 0.592816 0.661917 1.48204 0.661917C2.37126 0.661917 2.96408 1.26036 2.96408 2.2487V4.15285C3.43115 3.93523 4.18564 3.79016 4.82337 3.79016C6.9611 3.79016 8.57787 5.33161 8.76649 7.52591ZM2.96408 10.7902C3.26947 11.0078 3.82636 11.1347 4.31139 11.1347C5.29942 11.1347 5.77546 10.5181 5.83834 9.6658C5.87427 9.1943 5.88325 8.70466 5.83834 8.12435C5.77546 7.27202 5.29942 6.65544 4.31139 6.65544C3.82636 6.65544 3.26947 6.78238 2.96408 7V10.7902Z" fill="black"/>
<path d="M11.6089 0C12.5161 0 13.2077 0.698187 13.2077 1.61399C13.2077 2.55699 12.5161 3.26425 11.6089 3.26425C10.7017 3.26425 10.0101 2.55699 10.0101 1.61399C10.0101 0.698187 10.7017 0 11.6089 0ZM10.1358 12.3225V5.46762C10.1358 4.47927 10.7286 3.88083 11.6179 3.88083C12.5071 3.88083 13.0999 4.47927 13.0999 5.46762V12.3225C13.0999 13.3109 12.5071 13.9093 11.6179 13.9093C10.7286 13.9093 10.1358 13.3109 10.1358 12.3225Z" fill="black"/>
<path d="M20.9539 11.044C21.9239 11.044 22.4449 11.5971 22.4449 12.4313C22.4449 13.2655 21.9239 13.8187 20.9539 13.8187H15.5377C14.6395 13.8187 14.1634 13.3109 14.1634 12.5583C14.1634 11.9689 14.397 11.6062 14.7563 11.171L18.4209 6.72798L15.888 6.73705C14.9179 6.73705 14.397 6.17487 14.397 5.34974C14.397 4.52461 14.9179 3.9715 15.888 3.9715H20.9898C21.8072 3.9715 22.4 4.32513 22.4 5.1956C22.4 5.85751 22.1395 6.28368 21.7533 6.74611L18.2054 11.044H20.9539Z" fill="black"/>
<path d="M32.3591 7.52591C32.422 8.2513 32.422 9.52073 32.3591 10.2642C32.1705 12.4585 30.5537 14 28.0567 14C26.0986 14 24.6705 13.4016 24.0956 13.0026C23.7364 12.7487 23.5926 12.4948 23.5926 11.987V2.2487C23.5926 1.26036 24.1855 0.661917 25.0747 0.661917C25.9639 0.661917 26.5567 1.26036 26.5567 2.2487V4.15285C27.0238 3.93523 27.7783 3.79016 28.416 3.79016C30.5537 3.79016 32.1705 5.33161 32.3591 7.52591ZM26.5567 10.7902C26.8621 11.0078 27.419 11.1347 27.904 11.1347C28.8921 11.1347 29.3681 10.5181 29.431 9.6658C29.4669 9.1943 29.4759 8.70466 29.431 8.12435C29.3681 7.27202 28.8921 6.65544 27.904 6.65544C27.419 6.65544 26.8621 6.78238 26.5567 7V10.7902Z" fill="black"/>
<path d="M38.0578 14C35.4351 14 33.6656 12.4132 33.4949 10.2189C33.4411 9.53886 33.4321 8.36917 33.486 7.76166C33.6925 5.46762 35.3452 3.79016 37.977 3.79016C40.6087 3.79016 42.1357 5.43135 42.1357 7.99741V8.41451C42.1357 9.62047 41.8662 9.79275 40.8153 9.79275H36.2255V9.92876C36.2165 10.7992 36.98 11.3886 38.1476 11.3886C38.8842 11.3886 39.3692 11.2254 39.6477 11.1256C40.0159 10.9987 40.2764 10.8446 40.6177 10.8446C41.3183 10.8446 41.8393 11.2979 41.8393 12.0687C41.8393 12.8122 41.3093 13.2111 40.8602 13.4106C40.2764 13.6736 39.1896 14 38.0578 14ZM36.2345 7.87047H39.477C39.5578 6.86399 38.8842 6.20207 37.8512 6.20207C36.8632 6.20207 36.3063 6.87306 36.2345 7.87047Z" fill="black"/>
<path d="M47.6763 14C45.0536 14 43.2841 12.4132 43.1135 10.2189C43.0596 9.53886 43.0506 8.36917 43.1045 7.76166C43.3111 5.46762 44.9638 3.79016 47.5955 3.79016C50.2273 3.79016 51.7542 5.43135 51.7542 7.99741V8.41451C51.7542 9.62047 51.4847 9.79275 50.4338 9.79275H45.844V9.92876C45.835 10.7992 46.5985 11.3886 47.7662 11.3886C48.5027 11.3886 48.9877 11.2254 49.2662 11.1256C49.6344 10.9987 49.8949 10.8446 50.2362 10.8446C50.9368 10.8446 51.4578 11.2979 51.4578 12.0687C51.4578 12.8122 50.9279 13.2111 50.4788 13.4106C49.8949 13.6736 48.8081 14 47.6763 14ZM45.853 7.87047H49.0955C49.1764 6.86399 48.5027 6.20207 47.4698 6.20207C46.4817 6.20207 45.9249 6.87306 45.853 7.87047Z" fill="black"/>
<path d="M58.7515 13.8187C57.4042 13.8187 56.6856 13.1023 56.6856 11.7332V3.04663C56.6856 1.68653 57.4042 0.961139 58.7515 0.961139H64.2665C65.1916 0.961139 65.7665 1.52332 65.7665 2.37565C65.7665 3.22798 65.1916 3.79016 64.2665 3.79016H59.7306V6.10233H63.7725C64.6258 6.10233 65.1647 6.62824 65.1647 7.4171C65.1647 8.20596 64.6258 8.73187 63.7725 8.73187H59.7306V10.9896H64.2845C65.2096 10.9896 65.7845 11.5518 65.7845 12.4041C65.7845 13.2565 65.2096 13.8187 64.2845 13.8187H58.7515Z" fill="black"/>
<path d="M76.888 11.0803C77.3281 11.6153 77.5706 12.0868 77.5706 12.5674C77.5706 13.4106 76.9509 13.9547 76.1604 13.9547C75.4868 13.9547 75.0556 13.5376 74.6604 13.0389L72.2173 9.97409C71.9748 9.6658 71.9568 9.65674 71.5077 9.65674H70.349V12.2681C70.349 13.2927 69.7472 13.9093 68.8311 13.9093C67.9149 13.9093 67.3131 13.2927 67.3131 12.2681V3.04663C67.3131 1.68653 68.0227 0.961139 69.37 0.961139H72.855C75.7922 0.961139 77.3191 2.87435 77.3191 5.36788C77.3191 6.86399 76.5556 8.22409 75.0646 8.89508L76.888 11.0803ZM70.349 6.87306H72.5676C73.7981 6.87306 74.2562 6.27461 74.2562 5.37694C74.2562 4.4158 73.7981 3.79016 72.5676 3.79016H70.349V6.87306Z" fill="black"/>
<path d="M84.4191 0.961139C87.0689 0.961139 89 2.57513 89 5.49482C89 8.21503 87.1766 9.98316 84.2575 9.98316H81.985V12.2681C81.985 13.2927 81.3832 13.9093 80.467 13.9093C79.5509 13.9093 78.9491 13.2927 78.9491 12.2681V3.04663C78.9491 1.68653 79.6587 0.961139 81.006 0.961139H84.4191ZM81.985 7.15415H84.1587C85.4251 7.15415 85.9461 6.46503 85.9461 5.51295C85.9461 4.47927 85.4072 3.79016 84.1946 3.79016H81.985V7.15415Z" fill="black"/>
</svg>
