<svg width="48" height="48" viewBox="0 0 48 48" fill="none" xmlns="http://www.w3.org/2000/svg">
<rect width="48" height="48" rx="8" fill="#6172F3"/>
<g clip-path="url(#clip0_707_1151)">
<path d="M16.1375 26.7903L17.6481 29.4068C19.5681 32.7009 23.7893 33.8256 27.0928 31.9198C30.3963 30.0139 31.5352 25.7927 29.6387 22.4798L28.1281 19.8633L16.1328 26.7903H16.1375Z" fill="#6172F3"/>
<path d="M11.3497 29.5814C9.69324 30.5367 9.12383 32.6543 10.0838 34.3108C11.0438 35.9673 13.1568 36.5367 14.8132 35.5767C16.4697 34.6167 17.0391 32.5037 16.0791 30.8473L14.3474 27.8496L11.3497 29.5814Z" fill="#E0E0E0"/>
<path d="M32.943 17.111C34.5994 16.1557 36.7171 16.7204 37.6724 18.3769C38.6277 20.0334 38.063 22.151 36.4065 23.1063C34.75 24.0616 32.6324 23.4969 31.6771 21.8404L29.9453 18.8428L32.943 17.111Z" fill="#E0E0E0"/>
<path d="M17.6362 15.5353C14.3233 17.4459 13.1892 21.6859 15.0998 24.9989L27.0951 18.0718C25.1845 14.7589 20.9445 13.6247 17.6315 15.5353H17.6362Z" fill="white"/>
<path d="M17.7448 22.1752C18.3412 21.8308 18.515 21.0152 18.133 20.3535C17.7509 19.6917 16.9577 19.4344 16.3612 19.7788C15.7648 20.1232 15.591 20.9388 15.973 21.6005C16.3551 22.2622 17.1483 22.5195 17.7448 22.1752Z" fill="#262626"/>
<path d="M17.1526 20.5182C17.306 20.5182 17.4303 20.3939 17.4303 20.2405C17.4303 20.0872 17.306 19.9629 17.1526 19.9629C16.9993 19.9629 16.875 20.0872 16.875 20.2405C16.875 20.3939 16.9993 20.5182 17.1526 20.5182Z" fill="white"/>
<path d="M23.3541 18.9408C23.9506 18.5964 24.1244 17.7808 23.7424 17.1191C23.3603 16.4573 22.5671 16.2001 21.9706 16.5444C21.3742 16.8888 21.2003 17.7044 21.5824 18.3661C21.9644 19.0279 22.7577 19.2851 23.3541 18.9408Z" fill="#262626"/>
<path d="M21.973 17.7369C22.1263 17.7369 22.2506 17.6126 22.2506 17.4593C22.2506 17.3059 22.1263 17.1816 21.973 17.1816C21.8196 17.1816 21.6953 17.3059 21.6953 17.4593C21.6953 17.6126 21.8196 17.7369 21.973 17.7369Z" fill="white"/>
<path d="M31.8972 15.2986L28.8996 17.0304C27.2807 14.2304 24.3866 12.6351 21.3749 12.541V11.3268C21.3749 10.7904 20.9419 10.3574 20.4055 10.3574C19.869 10.3574 19.436 10.7904 19.436 11.3268V12.6915C18.4666 12.8751 17.5066 13.2139 16.6031 13.7362C15.6996 14.2586 14.9372 14.9127 14.2925 15.6562L13.116 14.9739C12.6502 14.7057 12.0572 14.8657 11.7937 15.3268C11.5255 15.7927 11.6855 16.3857 12.1466 16.6492L13.1913 17.2515C11.7607 19.9104 11.6902 23.2186 13.309 26.028L10.3113 27.7598C7.65251 29.2939 6.74427 32.6821 8.27369 35.3315C9.8031 37.981 13.1913 38.8892 15.8407 37.3598C17.3749 36.4751 18.316 34.9692 18.5513 33.3457C20.8713 34.9315 23.8549 35.3786 26.5843 34.4233L28.4619 35.2751C28.9278 35.4868 29.469 35.1762 29.516 34.6633L29.7231 32.541C31.7796 30.6539 32.8102 27.9386 32.6031 25.2233C34.1278 25.8351 35.9019 25.7692 37.436 24.8845C40.0854 23.3551 40.9937 19.9668 39.4643 17.3174C37.9349 14.668 34.5466 13.7598 31.8972 15.2892V15.2986ZM15.836 30.4233L16.0713 30.828C17.0266 32.4845 16.4619 34.6021 14.8055 35.5574C13.149 36.5127 11.0313 35.948 10.076 34.2915C9.12075 32.6351 9.68545 30.5174 11.3419 29.5621L14.3396 27.8304L15.836 30.4233ZM17.6337 15.5292C20.9466 13.6186 25.1819 14.7527 27.0972 18.0657L15.1019 24.9927C13.1913 21.6798 14.3255 17.4445 17.6384 15.5292H17.6337ZM27.0972 31.9198C24.5702 33.3786 21.5113 33.0586 19.3513 31.3598L30.4854 24.9315C30.8807 27.6515 29.6243 30.461 27.0972 31.9198ZM29.8549 22.8939L17.9019 29.7974C17.8125 29.661 17.7184 29.5292 17.6384 29.388L16.1419 26.7951L28.1372 19.868L29.6337 22.461C29.7184 22.6021 29.7843 22.7527 29.8549 22.8986V22.8939ZM36.396 23.0962C34.7396 24.0515 32.6219 23.4868 31.6666 21.8304L31.4313 21.4257L29.9349 18.8327L32.9325 17.101C34.589 16.1457 36.7066 16.7104 37.6619 18.3668C38.6172 20.0233 38.0525 22.141 36.396 23.0962Z" fill="#262626"/>
</g>
<defs>
<clipPath id="clip0_707_1151">
<rect width="32.6776" height="27.7506" fill="white" transform="translate(7.53125 10.3535)"/>
</clipPath>
</defs>
</svg>
