<svg width="90" height="14" viewBox="0 0 90 14" fill="none" xmlns="http://www.w3.org/2000/svg">
<path d="M8.81213 7.52591C8.87533 8.2513 8.87533 9.52073 8.81213 10.2642C8.62252 12.4585 6.99733 14 4.48732 14C2.51904 14 1.08346 13.4016 0.505614 13.0026C0.144461 12.7487 0 12.4948 0 11.987V2.2487C0 1.26036 0.595902 0.661917 1.48975 0.661917C2.38361 0.661917 2.97951 1.26036 2.97951 2.2487V4.15285C3.44901 3.93523 4.20743 3.79015 4.84847 3.79015C6.99733 3.79015 8.62252 5.33161 8.81213 7.52591ZM2.97951 10.7902C3.28649 11.0078 3.84628 11.1347 4.33383 11.1347C5.327 11.1347 5.80553 10.5181 5.86873 9.6658C5.90485 9.1943 5.91388 8.70466 5.86873 8.12435C5.80553 7.27202 5.327 6.65544 4.33383 6.65544C3.84628 6.65544 3.28649 6.78238 2.97951 7V10.7902Z" fill="#262626"/>
<path d="M11.6693 0C12.5812 0 13.2765 0.698187 13.2765 1.61399C13.2765 2.55699 12.5812 3.26425 11.6693 3.26425C10.7574 3.26425 10.0622 2.55699 10.0622 1.61399C10.0622 0.698187 10.7574 0 11.6693 0ZM10.1886 12.3225V5.46762C10.1886 4.47927 10.7845 3.88083 11.6784 3.88083C12.5722 3.88083 13.1681 4.47927 13.1681 5.46762V12.3225C13.1681 13.3109 12.5722 13.9093 11.6784 13.9093C10.7845 13.9093 10.1886 13.3109 10.1886 12.3225Z" fill="#262626"/>
<path d="M21.063 11.044C22.0381 11.044 22.5617 11.5971 22.5617 12.4313C22.5617 13.2655 22.0381 13.8187 21.063 13.8187H15.6186C14.7157 13.8187 14.2372 13.3109 14.2372 12.5583C14.2372 11.9689 14.4719 11.6062 14.8331 11.171L18.5168 6.72798L15.9707 6.73705C14.9956 6.73705 14.4719 6.17487 14.4719 5.34974C14.4719 4.52461 14.9956 3.9715 15.9707 3.9715H21.0991C21.9207 3.9715 22.5166 4.32513 22.5166 5.1956C22.5166 5.85751 22.2548 6.28368 21.8665 6.74611L18.3001 11.044H21.063Z" fill="#262626"/>
<path d="M32.5276 7.52591C32.5908 8.2513 32.5908 9.52073 32.5276 10.2642C32.338 12.4585 30.7128 14 28.2028 14C26.2345 14 24.7989 13.4016 24.2211 13.0026C23.8599 12.7487 23.7155 12.4948 23.7155 11.987V2.2487C23.7155 1.26036 24.3114 0.661917 25.2052 0.661917C26.0991 0.661917 26.695 1.26036 26.695 2.2487V4.15285C27.1645 3.93523 27.9229 3.79015 28.5639 3.79015C30.7128 3.79015 32.338 5.33161 32.5276 7.52591ZM26.695 10.7902C27.0019 11.0078 27.5617 11.1347 28.0493 11.1347C29.0425 11.1347 29.521 10.5181 29.5842 9.6658C29.6203 9.1943 29.6293 8.70466 29.5842 8.12435C29.521 7.27202 29.0425 6.65544 28.0493 6.65544C27.5617 6.65544 27.0019 6.78238 26.695 7V10.7902Z" fill="#262626"/>
<path d="M38.2559 14C35.6195 14 33.8409 12.4132 33.6693 10.2189C33.6151 9.53886 33.6061 8.36917 33.6603 7.76166C33.8679 5.46762 35.5292 3.79015 38.1747 3.79015C40.8201 3.79015 42.355 5.43135 42.355 7.99741V8.41451C42.355 9.62047 42.0842 9.79275 41.0278 9.79275H36.4141V9.92876C36.405 10.7992 37.1725 11.3886 38.3462 11.3886C39.0866 11.3886 39.5742 11.2254 39.854 11.1256C40.2242 10.9987 40.4861 10.8446 40.8292 10.8446C41.5334 10.8446 42.0571 11.2979 42.0571 12.0687C42.0571 12.8122 41.5244 13.2111 41.0729 13.4106C40.4861 13.6736 39.3936 14 38.2559 14ZM36.4231 7.87047H39.6825C39.7638 6.86399 39.0866 6.20207 38.0483 6.20207C37.0551 6.20207 36.4953 6.87306 36.4231 7.87047Z" fill="#262626"/>
<path d="M47.9245 14C45.2881 14 43.5094 12.4132 43.3379 10.2189C43.2837 9.53886 43.2747 8.36917 43.3289 7.76166C43.5365 5.46762 45.1978 3.79015 47.8433 3.79015C50.4887 3.79015 52.0236 5.43135 52.0236 7.99741V8.41451C52.0236 9.62047 51.7528 9.79275 50.6964 9.79275H46.0827V9.92876C46.0736 10.7992 46.8411 11.3886 48.0148 11.3886C48.7552 11.3886 49.2427 11.2254 49.5226 11.1256C49.8928 10.9987 50.1547 10.8446 50.4977 10.8446C51.202 10.8446 51.7257 11.2979 51.7257 12.0687C51.7257 12.8122 51.193 13.2111 50.7415 13.4106C50.1547 13.6736 49.0622 14 47.9245 14ZM46.0917 7.87047H49.3511C49.4323 6.86399 48.7552 6.20207 47.7169 6.20207C46.7237 6.20207 46.1639 6.87306 46.0917 7.87047Z" fill="#262626"/>
<path d="M62.3799 14C59.2379 14 56.8453 11.706 56.5925 8.79534C56.5112 7.85233 56.5112 6.92746 56.5925 5.98446C56.8453 3.07383 59.2379 0.779792 62.3799 0.779792C64.3843 0.779792 66.3075 1.74093 67.093 3.39119C67.2645 3.75389 67.3277 4.09845 67.3277 4.3886C67.3277 5.23186 66.7138 5.78497 65.8831 5.78497C65.2331 5.78497 64.8177 5.44948 64.4837 4.93264C64.0774 4.29793 63.4363 3.69041 62.2897 3.69041C60.8089 3.69041 59.7526 4.81477 59.6623 6.40155C59.6262 7.0272 59.6262 7.75259 59.6623 8.37824C59.7616 9.96503 60.8089 11.0894 62.2897 11.0894C63.4363 11.0894 64.0774 10.4819 64.4837 9.84715C64.8177 9.33031 65.2331 8.99482 65.8831 8.99482C66.7138 8.99482 67.3277 9.54793 67.3277 10.3912C67.3277 10.6813 67.2645 11.0259 67.093 11.3886C66.3075 13.0389 64.3843 14 62.3799 14Z" fill="#262626"/>
<path d="M71.738 3.79015V6.64637H75.8552C76.7581 6.64637 77.3359 7.19041 77.3359 8.01554C77.3359 8.84067 76.7581 9.38472 75.8552 9.38472H71.738V12.2681C71.738 13.2927 71.1331 13.9093 70.2122 13.9093C69.2912 13.9093 68.6863 13.2927 68.6863 12.2681V3.04663C68.6863 1.68653 69.3996 0.961139 70.7539 0.961139H76.2886C77.2185 0.961139 77.7964 1.52332 77.7964 2.37565C77.7964 3.22798 77.2185 3.79015 76.2886 3.79015H71.738Z" fill="#262626"/>
<path d="M84.2113 14C81.0874 14 78.7038 11.7966 78.469 8.79534C78.3968 7.8614 78.4058 6.92746 78.4781 5.98446C78.7038 2.98316 81.0874 0.779792 84.2113 0.779792C87.3263 0.779792 89.746 2.98316 89.9537 5.98446C90.0169 6.91839 90.0169 7.85233 89.9446 8.79534C89.7189 11.7966 87.3263 14 84.2113 14ZM81.5027 6.33808C81.4666 7.01813 81.4666 7.74352 81.5117 8.44171C81.611 10.1192 82.6855 11.171 84.2113 11.171C85.7192 11.171 86.8026 10.1192 86.911 8.44171C86.9561 7.76166 86.938 7.03627 86.8929 6.33808C86.7846 4.65155 85.7192 3.60881 84.2113 3.60881C82.6855 3.60881 81.593 4.66062 81.5027 6.33808Z" fill="#262626"/>
</svg>
