<svg width="84" height="14" viewBox="0 0 84 14" fill="none" xmlns="http://www.w3.org/2000/svg">
<g id="typo">
<path d="M8.87797 7.52591C8.94164 8.2513 8.94164 9.52073 8.87797 10.2642C8.68694 12.4585 7.04962 14 4.52085 14C2.53786 14 1.09155 13.4016 0.509392 13.0026C0.14554 12.7487 0 12.4948 0 11.987V2.2487C0 1.26036 0.600354 0.661917 1.50089 0.661917C2.40142 0.661917 3.00177 1.26036 3.00177 2.2487V4.15285C3.47478 3.93523 4.23887 3.79015 4.8847 3.79015C7.04962 3.79015 8.68694 5.33161 8.87797 7.52591ZM3.00177 10.7902C3.31104 11.0078 3.87501 11.1347 4.36621 11.1347C5.3668 11.1347 5.84891 10.5181 5.91258 9.6658C5.94897 9.1943 5.95806 8.70466 5.91258 8.12435C5.84891 7.27202 5.3668 6.65544 4.36621 6.65544C3.87501 6.65544 3.31104 6.78238 3.00177 7V10.7902Z" fill="#262626"/>
<path d="M11.7565 0C12.6752 0 13.3756 0.698187 13.3756 1.61399C13.3756 2.55699 12.6752 3.26425 11.7565 3.26425C10.8378 3.26425 10.1374 2.55699 10.1374 1.61399C10.1374 0.698187 10.8378 0 11.7565 0ZM10.2647 12.3225V5.46762C10.2647 4.47927 10.8651 3.88083 11.7656 3.88083C12.6661 3.88083 13.2665 4.47927 13.2665 5.46762V12.3225C13.2665 13.3109 12.6661 13.9093 11.7656 13.9093C10.8651 13.9093 10.2647 13.3109 10.2647 12.3225Z" fill="#262626"/>
<path d="M21.2203 11.044C22.2027 11.044 22.7303 11.5971 22.7303 12.4313C22.7303 13.2655 22.2027 13.8187 21.2203 13.8187H15.7353C14.8257 13.8187 14.3435 13.3109 14.3435 12.5583C14.3435 11.9689 14.5801 11.6062 14.9439 11.171L18.6552 6.72798L16.09 6.73705C15.1076 6.73705 14.5801 6.17487 14.5801 5.34974C14.5801 4.52461 15.1076 3.9715 16.09 3.9715H21.2567C22.0845 3.9715 22.6848 4.32513 22.6848 5.1956C22.6848 5.85751 22.421 6.28368 22.0299 6.74611L18.4369 11.044H21.2203Z" fill="#262626"/>
<path d="M32.7706 7.52591C32.8343 8.2513 32.8343 9.52073 32.7706 10.2642C32.5796 12.4585 30.9423 14 28.4135 14C26.4305 14 24.9842 13.4016 24.402 13.0026C24.0382 12.7487 23.8927 12.4948 23.8927 11.987V2.2487C23.8927 1.26036 24.493 0.661917 25.3935 0.661917C26.2941 0.661917 26.8944 1.26036 26.8944 2.2487V4.15285C27.3674 3.93523 28.1315 3.79015 28.7774 3.79015C30.9423 3.79015 32.5796 5.33161 32.7706 7.52591ZM26.8944 10.7902C27.2037 11.0078 27.7677 11.1347 28.2589 11.1347C29.2595 11.1347 29.7416 10.5181 29.8052 9.6658C29.8416 9.1943 29.8507 8.70466 29.8052 8.12435C29.7416 7.27202 29.2595 6.65544 28.2589 6.65544C27.7677 6.65544 27.2037 6.78238 26.8944 7V10.7902Z" fill="#262626"/>
<path d="M38.5418 14C35.8857 14 34.0937 12.4132 33.9209 10.2189C33.8663 9.53886 33.8572 8.36917 33.9118 7.76166C34.121 5.46762 35.7947 3.79015 38.4599 3.79015C41.1251 3.79015 42.6715 5.43135 42.6715 7.99741V8.41451C42.6715 9.62047 42.3986 9.79275 41.3343 9.79275H36.6861V9.92876C36.677 10.7992 37.4502 11.3886 38.6327 11.3886C39.3786 11.3886 39.8698 11.2254 40.1518 11.1256C40.5248 10.9987 40.7886 10.8446 41.1342 10.8446C41.8437 10.8446 42.3713 11.2979 42.3713 12.0687C42.3713 12.8122 41.8346 13.2111 41.3798 13.4106C40.7886 13.6736 39.6879 14 38.5418 14ZM36.6952 7.87047H39.979C40.0609 6.86399 39.3786 6.20207 38.3326 6.20207C37.332 6.20207 36.768 6.87306 36.6952 7.87047Z" fill="#262626"/>
<path d="M48.2826 14C45.6265 14 43.8345 12.4132 43.6617 10.2189C43.6071 9.53886 43.598 8.36917 43.6526 7.76166C43.8618 5.46762 45.5355 3.79015 48.2007 3.79015C50.866 3.79015 52.4123 5.43135 52.4123 7.99741V8.41451C52.4123 9.62047 52.1394 9.79275 51.0752 9.79275H46.427V9.92876C46.4179 10.7992 47.1911 11.3886 48.3736 11.3886C49.1195 11.3886 49.6107 11.2254 49.8927 11.1256C50.2656 10.9987 50.5294 10.8446 50.875 10.8446C51.5846 10.8446 52.1121 11.2979 52.1121 12.0687C52.1121 12.8122 51.5755 13.2111 51.1207 13.4106C50.5294 13.6736 49.4287 14 48.2826 14ZM46.4361 7.87047H49.7198C49.8017 6.86399 49.1195 6.20207 48.0734 6.20207C47.0728 6.20207 46.5088 6.87306 46.4361 7.87047Z" fill="#262626"/>
<path d="M65.1974 0.961139C66.1343 0.961139 66.7165 1.52332 66.7165 2.35751C66.7165 3.22798 66.1343 3.79015 65.1974 3.79015H62.7323V12.2681C62.7323 13.2927 62.1229 13.9093 61.1951 13.9093C60.2672 13.9093 59.6578 13.2927 59.6578 12.2681V3.79015H57.2109C56.274 3.79015 55.6918 3.22798 55.6918 2.35751C55.6918 1.52332 56.274 0.961139 57.2109 0.961139H65.1974Z" fill="#262626"/>
<path d="M69.301 14C66.6176 14 65.3168 12.4676 65.3168 10.772C65.3168 9.29404 66.4811 7.85233 69.0463 7.85233C69.7285 7.85233 70.3834 7.94301 70.9838 8.08808V7.4715C70.9838 6.82772 70.6108 6.41969 69.3192 6.41969C68.8917 6.41969 68.4732 6.48316 68.1185 6.60104C67.7273 6.72798 67.3999 6.85492 67.0724 6.85492C66.3902 6.85492 65.8535 6.35622 65.8535 5.63083C65.8535 5.05959 66.1446 4.55181 66.8996 4.27072C67.5909 4.00777 68.4368 3.79015 69.5102 3.79015C72.33 3.79015 73.84 4.97798 73.84 7.62565V11.9961C73.84 12.4948 73.7036 12.7668 73.3306 13.0026C72.6848 13.4106 71.2294 14 69.301 14ZM68.1367 10.763C68.1367 11.3614 68.737 11.6969 69.4829 11.6969C70.0469 11.6969 70.5927 11.5699 70.9838 11.3886V9.95596C70.5017 9.81088 69.9923 9.73834 69.4647 9.73834C68.6188 9.73834 68.1367 10.1917 68.1367 10.763Z" fill="#262626"/>
<path d="M82.5446 13.9093C82.0716 13.9093 81.6986 13.7098 81.3075 13.2565L79.3791 11.044L77.4689 13.2565C77.0777 13.7098 76.7048 13.9093 76.2136 13.9093C75.4222 13.9093 74.7764 13.3381 74.7764 12.4858C74.7764 12.0596 75.022 11.6788 75.3312 11.3251L77.4689 8.84974L75.3949 6.46503C75.0856 6.1114 74.84 5.73057 74.84 5.3044C74.84 4.45207 75.4859 3.88083 76.2773 3.88083C76.7685 3.88083 77.1414 4.08031 77.5325 4.53368L79.4064 6.68264L81.262 4.53368C81.6532 4.08031 82.0261 3.88083 82.5173 3.88083C83.3087 3.88083 83.9636 4.45207 83.9636 5.3044C83.9636 5.73057 83.7089 6.1114 83.3996 6.46503L81.3166 8.87694L83.4451 11.3251C83.7544 11.6788 84 12.0596 84 12.4858C84 13.3381 83.3542 13.9093 82.5446 13.9093Z" fill="#262626"/>
</g>
</svg>
