<svg width="122" height="14" viewBox="0 0 122 14" fill="none" xmlns="http://www.w3.org/2000/svg">
<g id="typo">
<path d="M8.85868 7.52591C8.92221 8.2513 8.92221 9.52073 8.85868 10.2642C8.66807 12.4585 7.0343 14 4.51103 14C2.53235 14 1.08918 13.4016 0.508285 13.0026C0.145224 12.7487 0 12.4948 0 11.987V2.2487C0 1.26036 0.59905 0.661917 1.49763 0.661917C2.3962 0.661917 2.99525 1.26036 2.99525 2.2487V4.15285C3.46723 3.93523 4.22966 3.79015 4.87409 3.79015C7.0343 3.79015 8.66807 5.33161 8.85868 7.52591ZM2.99525 10.7902C3.30385 11.0078 3.8666 11.1347 4.35673 11.1347C5.35514 11.1347 5.8362 10.5181 5.89974 9.6658C5.93604 9.1943 5.94512 8.70466 5.89974 8.12435C5.8362 7.27202 5.35514 6.65544 4.35673 6.65544C3.8666 6.65544 3.30385 6.78238 2.99525 7V10.7902Z" fill="#262626"/>
<path d="M11.731 0C12.6477 0 13.3466 0.698187 13.3466 1.61399C13.3466 2.55699 12.6477 3.26425 11.731 3.26425C10.8142 3.26425 10.1154 2.55699 10.1154 1.61399C10.1154 0.698187 10.8142 0 11.731 0ZM10.2424 12.3225V5.46762C10.2424 4.47927 10.8415 3.88083 11.74 3.88083C12.6386 3.88083 13.2377 4.47927 13.2377 5.46762V12.3225C13.2377 13.3109 12.6386 13.9093 11.74 13.9093C10.8415 13.9093 10.2424 13.3109 10.2424 12.3225Z" fill="#262626"/>
<path d="M21.1742 11.044C22.1545 11.044 22.6809 11.5971 22.6809 12.4313C22.6809 13.2655 22.1545 13.8187 21.1742 13.8187H15.7011C14.7934 13.8187 14.3124 13.3109 14.3124 12.5583C14.3124 11.9689 14.5484 11.6062 14.9114 11.171L18.6147 6.72798L16.0551 6.73705C15.0748 6.73705 14.5484 6.17487 14.5484 5.34974C14.5484 4.52461 15.0748 3.9715 16.0551 3.9715H21.2105C22.0365 3.9715 22.6356 4.32513 22.6356 5.1956C22.6356 5.85751 22.3723 6.28368 21.982 6.74611L18.3968 11.044H21.1742Z" fill="#262626"/>
<path d="M32.6994 7.52591C32.763 8.2513 32.763 9.52073 32.6994 10.2642C32.5088 12.4585 30.875 14 28.3518 14C26.3731 14 24.9299 13.4016 24.349 13.0026C23.986 12.7487 23.8407 12.4948 23.8407 11.987V2.2487C23.8407 1.26036 24.4398 0.661917 25.3384 0.661917C26.2369 0.661917 26.836 1.26036 26.836 2.2487V4.15285C27.308 3.93523 28.0704 3.79015 28.7148 3.79015C30.875 3.79015 32.5088 5.33161 32.6994 7.52591ZM26.836 10.7902C27.1446 11.0078 27.7073 11.1347 28.1975 11.1347C29.1959 11.1347 29.6769 10.5181 29.7405 9.6658C29.7768 9.1943 29.7859 8.70466 29.7405 8.12435C29.6769 7.27202 29.1959 6.65544 28.1975 6.65544C27.7073 6.65544 27.1446 6.78238 26.836 7V10.7902Z" fill="#262626"/>
<path d="M38.458 14C35.8077 14 34.0196 12.4132 33.8472 10.2189C33.7927 9.53886 33.7836 8.36917 33.8381 7.76166C34.0469 5.46762 35.7169 3.79015 38.3764 3.79015C41.0358 3.79015 42.5788 5.43135 42.5788 7.99741V8.41451C42.5788 9.62047 42.3065 9.79275 41.2445 9.79275H36.6064V9.92876C36.5974 10.7992 37.3689 11.3886 38.5488 11.3886C39.2931 11.3886 39.7832 11.2254 40.0646 11.1256C40.4367 10.9987 40.6999 10.8446 41.0449 10.8446C41.7528 10.8446 42.2793 11.2979 42.2793 12.0687C42.2793 12.8122 41.7437 13.2111 41.2899 13.4106C40.6999 13.6736 39.6017 14 38.458 14ZM36.6155 7.87047H39.8921C39.9738 6.86399 39.2931 6.20207 38.2493 6.20207C37.2509 6.20207 36.6881 6.87306 36.6155 7.87047Z" fill="#262626"/>
<path d="M48.1777 14C45.5274 14 43.7393 12.4132 43.5668 10.2189C43.5124 9.53886 43.5033 8.36917 43.5578 7.76166C43.7665 5.46762 45.4366 3.79015 48.096 3.79015C50.7555 3.79015 52.2985 5.43135 52.2985 7.99741V8.41451C52.2985 9.62047 52.0262 9.79275 50.9642 9.79275H46.3261V9.92876C46.317 10.7992 47.0885 11.3886 48.2685 11.3886C49.0128 11.3886 49.5029 11.2254 49.7843 11.1256C50.1564 10.9987 50.4196 10.8446 50.7645 10.8446C51.4725 10.8446 51.9989 11.2979 51.9989 12.0687C51.9989 12.8122 51.4634 13.2111 51.0096 13.4106C50.4196 13.6736 49.3214 14 48.1777 14ZM46.3352 7.87047H49.6118C49.6935 6.86399 49.0128 6.20207 47.969 6.20207C46.9705 6.20207 46.4078 6.87306 46.3352 7.87047Z" fill="#262626"/>
<path d="M62.6641 14C59.5236 14 57.1274 11.7966 56.8915 8.79534C56.8188 7.8614 56.8279 6.92746 56.9005 5.98446C57.1274 2.98316 59.5236 0.779792 62.6641 0.779792C65.7955 0.779792 68.228 2.98316 68.4368 5.98446C68.5003 6.91839 68.5003 7.85233 68.4277 8.79534C68.2008 11.7966 65.7955 14 62.6641 14ZM59.9412 6.33808C59.9049 7.01813 59.9049 7.74352 59.9502 8.44171C60.0501 10.1192 61.1302 11.171 62.6641 11.171C64.1799 11.171 65.2691 10.1192 65.378 8.44171C65.4234 7.76166 65.4052 7.03627 65.3598 6.33808C65.2509 4.65155 64.1799 3.60881 62.6641 3.60881C61.1302 3.60881 60.0319 4.66062 59.9412 6.33808Z" fill="#262626"/>
<path d="M72.165 13.9093C71.2664 13.9093 70.6673 13.3109 70.6673 12.3225V7.25389H70.4132C69.6871 7.25389 69.1425 6.70984 69.1425 5.94819C69.1425 5.18653 69.6871 4.64249 70.4132 4.64249H70.6673V4.18005C70.6673 1.73187 72.0833 0.661917 74.4069 0.661917C74.7881 0.661917 75.5505 0.75259 75.9317 0.861399C76.7395 1.08808 77.2297 1.47798 77.2297 2.25777C77.2297 2.93782 76.7668 3.4728 76.0588 3.4728C75.8954 3.4728 75.6867 3.4456 75.4597 3.39119C75.1239 3.30959 74.8425 3.29145 74.6792 3.29145C73.953 3.29145 73.6626 3.69948 73.6626 4.4158V4.64249H75.0513C75.8863 4.64249 76.4128 5.18653 76.4128 5.94819C76.4128 6.70984 75.8863 7.25389 75.0513 7.25389H73.6626V12.3225C73.6626 13.3109 73.0635 13.9093 72.165 13.9093Z" fill="#262626"/>
<path d="M79.5091 13.9093C78.6106 13.9093 78.0115 13.3109 78.0115 12.3225V7.25389H77.7574C77.0313 7.25389 76.4867 6.70984 76.4867 5.94819C76.4867 5.18653 77.0313 4.64249 77.7574 4.64249H78.0115V4.18005C78.0115 1.73187 79.4275 0.661917 81.751 0.661917C82.1323 0.661917 82.8947 0.75259 83.2759 0.861399C84.0837 1.08808 84.5738 1.47798 84.5738 2.25777C84.5738 2.93782 84.1109 3.4728 83.403 3.4728C83.2396 3.4728 83.0308 3.4456 82.8039 3.39119C82.4681 3.30959 82.1867 3.29145 82.0233 3.29145C81.2972 3.29145 81.0068 3.69948 81.0068 4.4158V4.64249H82.3955C83.2305 4.64249 83.757 5.18653 83.757 5.94819C83.757 6.70984 83.2305 7.25389 82.3955 7.25389H81.0068V12.3225C81.0068 13.3109 80.4077 13.9093 79.5091 13.9093ZM84.9641 1.61399C84.9641 0.698187 85.663 0 86.5797 0C87.4965 0 88.1954 0.698187 88.1954 1.61399C88.1954 2.55699 87.4965 3.26425 86.5797 3.26425C85.663 3.26425 84.9641 2.55699 84.9641 1.61399ZM85.0912 12.3225V5.46762C85.0912 4.47927 85.6902 3.88083 86.5888 3.88083C87.4874 3.88083 88.0864 4.47927 88.0864 5.46762V12.3225C88.0864 13.3109 87.4874 13.9093 86.5888 13.9093C85.6902 13.9093 85.0912 13.3109 85.0912 12.3225Z" fill="#262626"/>
<path d="M92.4209 8.10622C92.3755 8.65933 92.3755 9.13083 92.4209 9.68394C92.4935 10.5453 93.0744 11.1347 93.9911 11.1347C94.69 11.1347 95.0985 10.7992 95.3799 10.4728C95.6249 10.1826 95.9426 9.78368 96.6233 9.75648C97.4312 9.72927 98.1028 10.2642 98.1028 11.1347C98.1028 11.6153 97.9122 12.0142 97.7125 12.2953C97.0953 13.1658 95.8972 14 93.9367 14C91.4316 14 89.6526 12.4223 89.4529 10.228C89.3894 9.52979 89.3984 8.26943 89.462 7.56218C89.6617 5.36788 91.4316 3.79015 93.9367 3.79015C95.8972 3.79015 97.0772 4.62435 97.7034 5.49482C97.9031 5.77591 98.1028 6.17487 98.1028 6.65544C98.1028 7.52591 97.4312 8.05181 96.6233 8.03368C95.9698 8.01554 95.6522 7.64378 95.3799 7.31736C95.0985 6.98187 94.69 6.65544 93.9911 6.65544C93.0744 6.65544 92.4935 7.24482 92.4209 8.10622Z" fill="#262626"/>
<path d="M103.606 14C100.956 14 99.1677 12.4132 98.9953 10.2189C98.9408 9.53886 98.9318 8.36917 98.9862 7.76166C99.195 5.46762 100.865 3.79015 103.524 3.79015C106.184 3.79015 107.727 5.43135 107.727 7.99741V8.41451C107.727 9.62047 107.455 9.79275 106.393 9.79275H101.755V9.92876C101.745 10.7992 102.517 11.3886 103.697 11.3886C104.441 11.3886 104.931 11.2254 105.213 11.1256C105.585 10.9987 105.848 10.8446 106.193 10.8446C106.901 10.8446 107.427 11.2979 107.427 12.0687C107.427 12.8122 106.892 13.2111 106.438 13.4106C105.848 13.6736 104.75 14 103.606 14ZM101.764 7.87047H105.04C105.122 6.86399 104.441 6.20207 103.397 6.20207C102.399 6.20207 101.836 6.87306 101.764 7.87047Z" fill="#262626"/>
<path d="M120.484 0.961139C121.419 0.961139 122 1.52332 122 2.35751C122 3.22798 121.419 3.79015 120.484 3.79015H118.024V12.2681C118.024 13.2927 117.416 13.9093 116.491 13.9093C115.565 13.9093 114.957 13.2927 114.957 12.2681V3.79015H112.515C111.58 3.79015 110.999 3.22798 110.999 2.35751C110.999 1.52332 111.58 0.961139 112.515 0.961139H120.484Z" fill="#262626"/>
</g>
</svg>
