<svg width="93" height="18" viewBox="0 0 93 18" fill="none" xmlns="http://www.w3.org/2000/svg">
<g id="typo">
<path d="M8.78576 7.94591C8.84877 8.66359 8.84877 9.91953 8.78576 10.6551C8.59672 12.8261 6.9764 14.3512 4.4739 14.3512C2.5115 14.3512 1.08022 13.7591 0.504101 13.3644C0.144029 13.1132 0 12.862 0 12.3596V2.7248C0 1.74696 0.594119 1.15488 1.4853 1.15488C2.37648 1.15488 2.97059 1.74696 2.97059 2.7248V4.60871C3.43869 4.3934 4.19484 4.24987 4.83397 4.24987C6.9764 4.24987 8.59672 5.77493 8.78576 7.94591ZM2.97059 11.1755C3.27666 11.3908 3.83477 11.5164 4.32087 11.5164C5.31106 11.5164 5.78816 10.9063 5.85117 10.0631C5.88718 9.59657 5.89618 9.11214 5.85117 8.53799C5.78816 7.69472 5.31106 7.0847 4.32087 7.0847C3.83477 7.0847 3.27666 7.21029 2.97059 7.42559V11.1755Z" fill="#262626"/>
<path d="M11.6344 0.5C12.5436 0.5 13.2367 1.19077 13.2367 2.09683C13.2367 3.02981 12.5436 3.72955 11.6344 3.72955C10.7252 3.72955 10.0321 3.02981 10.0321 2.09683C10.0321 1.19077 10.7252 0.5 11.6344 0.5ZM10.1581 12.6916V5.9095C10.1581 4.93166 10.7522 4.33958 11.6434 4.33958C12.5346 4.33958 13.1287 4.93166 13.1287 5.9095V12.6916C13.1287 13.6694 12.5346 14.2615 11.6434 14.2615C10.7522 14.2615 10.1581 13.6694 10.1581 12.6916Z" fill="#262626"/>
<path d="M20.9999 11.4266C21.9721 11.4266 22.4942 11.9739 22.4942 12.7992C22.4942 13.6245 21.9721 14.1718 20.9999 14.1718H15.5719C14.6717 14.1718 14.1946 13.6694 14.1946 12.9248C14.1946 12.3417 14.4286 11.9828 14.7887 11.5522L18.4614 7.15646L15.9229 7.16544C14.9507 7.16544 14.4286 6.60923 14.4286 5.79288C14.4286 4.97652 14.9507 4.42929 15.9229 4.42929H21.0359C21.8551 4.42929 22.4492 4.77916 22.4492 5.64037C22.4492 6.29525 22.1882 6.71689 21.8011 7.17441L18.2454 11.4266H20.9999Z" fill="#262626"/>
<path d="M32.4303 7.94591C32.4933 8.66359 32.4933 9.91953 32.4303 10.6551C32.2412 12.8261 30.6209 14.3512 28.1184 14.3512C26.156 14.3512 24.7247 13.7591 24.1486 13.3644C23.7885 13.1132 23.6445 12.862 23.6445 12.3596V2.7248C23.6445 1.74696 24.2386 1.15488 25.1298 1.15488C26.021 1.15488 26.6151 1.74696 26.6151 2.7248V4.60871C27.0832 4.3934 27.8393 4.24987 28.4785 4.24987C30.6209 4.24987 32.2412 5.77493 32.4303 7.94591ZM26.6151 11.1755C26.9212 11.3908 27.4793 11.5164 27.9654 11.5164C28.9556 11.5164 29.4327 10.9063 29.4957 10.0631C29.5317 9.59657 29.5407 9.11214 29.4957 8.53799C29.4327 7.69472 28.9556 7.0847 27.9654 7.0847C27.4793 7.0847 26.9212 7.21029 26.6151 7.42559V11.1755Z" fill="#262626"/>
<path d="M38.1415 14.3512C35.513 14.3512 33.7396 12.7813 33.5686 10.6103C33.5146 9.93747 33.5056 8.78021 33.5596 8.17916C33.7666 5.9095 35.4229 4.24987 38.0605 4.24987C40.698 4.24987 42.2283 5.87361 42.2283 8.4124V8.82507C42.2283 10.0182 41.9582 10.1887 40.905 10.1887H36.3051V10.3232C36.2961 11.1844 37.0613 11.7675 38.2315 11.7675C38.9696 11.7675 39.4557 11.6061 39.7348 11.5074C40.1039 11.3818 40.3649 11.2293 40.707 11.2293C41.4091 11.2293 41.9312 11.6778 41.9312 12.4404C41.9312 13.176 41.4001 13.5707 40.95 13.7681C40.3649 14.0282 39.2757 14.3512 38.1415 14.3512ZM36.3141 8.28681H39.5638C39.6448 7.29103 38.9696 6.63615 37.9344 6.63615C36.9442 6.63615 36.3861 7.3 36.3141 8.28681Z" fill="#262626"/>
<path d="M47.7811 14.3512C45.1526 14.3512 43.3793 12.7813 43.2082 10.6103C43.1542 9.93747 43.1452 8.78021 43.1992 8.17916C43.4063 5.9095 45.0626 4.24987 47.7001 4.24987C50.3377 4.24987 51.868 5.87361 51.868 8.4124V8.82507C51.868 10.0182 51.5979 10.1887 50.5447 10.1887H45.9448V10.3232C45.9358 11.1844 46.7009 11.7675 47.8712 11.7675C48.6093 11.7675 49.0954 11.6061 49.3745 11.5074C49.7435 11.3818 50.0046 11.2293 50.3467 11.2293C51.0488 11.2293 51.5709 11.6778 51.5709 12.4404C51.5709 13.176 51.0398 13.5707 50.5897 13.7681C50.0046 14.0282 48.9154 14.3512 47.7811 14.3512ZM45.9538 8.28681H49.2034C49.2844 7.29103 48.6093 6.63615 47.5741 6.63615C46.5839 6.63615 46.0258 7.3 45.9538 8.28681Z" fill="#262626"/>
<path d="M61.4732 14.3512C59.1777 14.3512 57.7734 13.6694 56.9903 13.167C56.4772 12.8351 56.1891 12.3507 56.1891 11.7855C56.1891 10.9332 56.8102 10.386 57.5934 10.386C58.0615 10.386 58.3855 10.5475 58.7546 10.7538C59.3757 11.0947 60.1229 11.5522 61.4732 11.5522C62.6884 11.5522 63.3905 11.2113 63.3905 10.5026C63.3905 9.72216 62.2743 9.42612 60.843 9.13008C57.8274 8.50211 56.4862 7.44353 56.4862 5.15594C56.4862 2.82348 58.5476 1.2715 61.2301 1.2715C63.0935 1.2715 64.3537 1.72902 65.1279 2.15963C65.659 2.46464 65.9291 2.89525 65.9291 3.46939C65.9291 4.23193 65.3349 4.86887 64.5968 4.86887C64.1737 4.86887 63.8136 4.69842 63.3905 4.519C62.8684 4.30369 62.2383 4.07045 61.2301 4.07045C60.0509 4.07045 59.5468 4.50106 59.5468 5.06623C59.5468 5.71214 60.1949 6.062 61.7432 6.34908C64.9749 6.94116 66.4512 8.12533 66.4512 10.3591C66.4512 12.6018 64.5428 14.3512 61.4732 14.3512Z" fill="#262626"/>
<path d="M68.9229 2.17757C69.814 2.17757 70.4081 2.76966 70.4081 3.74749V4.42929H72.4066C73.3607 4.42929 73.8649 4.95857 73.8649 5.76596C73.8649 6.57335 73.3607 7.10264 72.4066 7.10264H70.4081V10.4219C70.4081 11.3011 70.6872 11.624 71.4524 11.624C71.7764 11.624 72.0195 11.5612 72.1995 11.5074C72.4876 11.4177 72.7486 11.3011 73.0817 11.3011C73.7388 11.3011 74.2789 11.8393 74.2789 12.5749C74.2789 13.3464 73.8108 13.7412 73.1627 13.9834C72.6676 14.1628 71.9295 14.3512 71.2453 14.3512C69.0219 14.3512 67.4376 13.167 67.4376 10.7359V3.74749C67.4376 2.76966 68.0317 2.17757 68.9229 2.17757Z" fill="#262626"/>
<path d="M78.3791 14.3512C75.7236 14.3512 74.4363 12.8351 74.4363 11.1575C74.4363 9.69525 75.5885 8.26886 78.1271 8.26886C78.8022 8.26886 79.4503 8.35857 80.0444 8.50211V7.89208C80.0444 7.25515 79.6754 6.85145 78.3971 6.85145C77.974 6.85145 77.5599 6.91425 77.2089 7.03087C76.8218 7.15646 76.4977 7.28206 76.1737 7.28206C75.4985 7.28206 74.9674 6.78865 74.9674 6.07098C74.9674 5.5058 75.2555 5.00343 76.0026 4.72533C76.6868 4.46517 77.5239 4.24987 78.5861 4.24987C81.3767 4.24987 82.871 5.42507 82.871 8.04459V12.3686C82.871 12.862 82.736 13.1311 82.3669 13.3644C81.7278 13.7681 80.2875 14.3512 78.3791 14.3512ZM77.2269 11.1485C77.2269 11.7406 77.821 12.0726 78.5591 12.0726C79.1173 12.0726 79.6574 11.947 80.0444 11.7675V10.3501C79.5673 10.2066 79.0632 10.1348 78.5411 10.1348C77.704 10.1348 77.2269 10.5834 77.2269 11.1485Z" fill="#262626"/>
<path d="M86.1676 17.5C85.2765 17.5 84.6733 16.8182 84.6733 16.0826C84.6733 15.6071 84.8804 15.2483 85.2585 14.9253C85.7175 14.5396 86.3477 14.0282 86.6627 13.3464L83.7372 6.66306C83.5571 6.2504 83.5031 5.99921 83.5031 5.76596C83.5031 4.95857 84.1422 4.33958 85.0244 4.33958C85.7356 4.33958 86.2216 4.65356 86.4827 5.38918L88.202 10.2784C88.2561 10.4309 88.2741 10.4488 88.3461 10.4488C88.4181 10.4488 88.4361 10.4309 88.4901 10.2784L90.1284 5.37124C90.3625 4.68047 90.8396 4.33958 91.5507 4.33958C92.3609 4.33958 93 4.95857 93 5.73008C93 5.9723 92.955 6.23245 92.829 6.53747L89.9934 13.3106C89.1652 15.3021 88.3731 16.1454 87.3649 17.0156C87.0318 17.3026 86.6447 17.5 86.1676 17.5Z" fill="#262626"/>
</g>
</svg>
