<svg width="109" height="14" viewBox="0 0 109 14" fill="none" xmlns="http://www.w3.org/2000/svg">
<g id="typo">
<path d="M8.88542 7.52591C8.94914 8.2513 8.94914 9.52073 8.88542 10.2642C8.69423 12.4585 7.05553 14 4.52464 14C2.53999 14 1.09247 13.4016 0.509819 13.0026C0.145663 12.7487 0 12.4948 0 11.987V2.2487C0 1.26036 0.600858 0.661917 1.50215 0.661917C2.40343 0.661917 3.00429 1.26036 3.00429 2.2487V4.15285C3.47769 3.93523 4.24242 3.79015 4.8888 3.79015C7.05553 3.79015 8.69423 5.33161 8.88542 7.52591ZM3.00429 10.7902C3.31382 11.0078 3.87827 11.1347 4.36988 11.1347C5.37131 11.1347 5.85382 10.5181 5.91754 9.6658C5.95396 9.1943 5.96306 8.70466 5.91754 8.12435C5.85382 7.27202 5.37131 6.65544 4.36988 6.65544C3.87827 6.65544 3.31382 6.78238 3.00429 7V10.7902Z" fill="#262626"/>
<path d="M11.7664 0C12.6859 0 13.3869 0.698187 13.3869 1.61399C13.3869 2.55699 12.6859 3.26425 11.7664 3.26425C10.8469 3.26425 10.1459 2.55699 10.1459 1.61399C10.1459 0.698187 10.8469 0 11.7664 0ZM10.2733 12.3225V5.46762C10.2733 4.47927 10.8742 3.88083 11.7755 3.88083C12.6768 3.88083 13.2776 4.47927 13.2776 5.46762V12.3225C13.2776 13.3109 12.6768 13.9093 11.7755 13.9093C10.8742 13.9093 10.2733 13.3109 10.2733 12.3225Z" fill="#262626"/>
<path d="M21.2381 11.044C22.2214 11.044 22.7494 11.5971 22.7494 12.4313C22.7494 13.2655 22.2214 13.8187 21.2381 13.8187H15.7485C14.8381 13.8187 14.3556 13.3109 14.3556 12.5583C14.3556 11.9689 14.5923 11.6062 14.9564 11.171L18.6708 6.72798L16.1035 6.73705C15.1203 6.73705 14.5923 6.17487 14.5923 5.34974C14.5923 4.52461 15.1203 3.9715 16.1035 3.9715H21.2746C22.103 3.9715 22.7039 4.32513 22.7039 5.1956C22.7039 5.85751 22.4399 6.28368 22.0484 6.74611L18.4523 11.044H21.2381Z" fill="#262626"/>
<path d="M32.7981 7.52591C32.8618 8.2513 32.8618 9.52073 32.7981 10.2642C32.6069 12.4585 30.9682 14 28.4373 14C26.4527 14 25.0052 13.4016 24.4225 13.0026C24.0584 12.7487 23.9127 12.4948 23.9127 11.987V2.2487C23.9127 1.26036 24.5136 0.661917 25.4149 0.661917C26.3161 0.661917 26.917 1.26036 26.917 2.2487V4.15285C27.3904 3.93523 28.1551 3.79015 28.8015 3.79015C30.9682 3.79015 32.6069 5.33161 32.7981 7.52591ZM26.917 10.7902C27.2265 11.0078 27.791 11.1347 28.2826 11.1347C29.284 11.1347 29.7665 10.5181 29.8302 9.6658C29.8667 9.1943 29.8758 8.70466 29.8302 8.12435C29.7665 7.27202 29.284 6.65544 28.2826 6.65544C27.791 6.65544 27.2265 6.78238 26.917 7V10.7902Z" fill="#262626"/>
<path d="M38.5741 14C35.9158 14 34.1223 12.4132 33.9493 10.2189C33.8947 9.53886 33.8856 8.36917 33.9402 7.76166C34.1496 5.46762 35.8247 3.79015 38.4922 3.79015C41.1596 3.79015 42.7073 5.43135 42.7073 7.99741V8.41451C42.7073 9.62047 42.4342 9.79275 41.369 9.79275H36.7169V9.92876C36.7078 10.7992 37.4817 11.3886 38.6652 11.3886C39.4117 11.3886 39.9033 11.2254 40.1855 11.1256C40.5588 10.9987 40.8228 10.8446 41.1687 10.8446C41.8788 10.8446 42.4069 11.2979 42.4069 12.0687C42.4069 12.8122 41.8697 13.2111 41.4145 13.4106C40.8228 13.6736 39.7212 14 38.5741 14ZM36.726 7.87047H40.0125C40.0945 6.86399 39.4117 6.20207 38.3647 6.20207C37.3633 6.20207 36.7989 6.87306 36.726 7.87047Z" fill="#262626"/>
<path d="M48.3231 14C45.6648 14 43.8713 12.4132 43.6983 10.2189C43.6437 9.53886 43.6346 8.36917 43.6892 7.76166C43.8986 5.46762 45.5738 3.79015 48.2412 3.79015C50.9086 3.79015 52.4563 5.43135 52.4563 7.99741V8.41451C52.4563 9.62047 52.1832 9.79275 51.118 9.79275H46.4659V9.92876C46.4568 10.7992 47.2307 11.3886 48.4142 11.3886C49.1607 11.3886 49.6523 11.2254 49.9345 11.1256C50.3078 10.9987 50.5718 10.8446 50.9178 10.8446C51.6279 10.8446 52.1559 11.2979 52.1559 12.0687C52.1559 12.8122 51.6188 13.2111 51.1636 13.4106C50.5718 13.6736 49.4702 14 48.3231 14ZM46.475 7.87047H49.7616C49.8435 6.86399 49.1607 6.20207 48.1137 6.20207C47.1123 6.20207 46.5479 6.87306 46.475 7.87047Z" fill="#262626"/>
<path d="M61.0143 13.9093C59.5759 13.9093 58.9568 13.2383 58.6381 11.6878L56.8083 2.75648C56.7901 2.64767 56.7627 2.47539 56.7627 2.32124C56.7627 1.51425 57.2999 0.861399 58.3013 0.861399C59.1024 0.861399 59.676 1.35104 59.8126 2.26684L61.1144 10.8083C61.1235 10.8446 61.1417 10.8446 61.1781 10.8446C61.1963 10.8446 61.2237 10.8446 61.2328 10.7992L62.6439 3.11917C62.9261 1.55958 63.791 0.870466 65.0655 0.870466C66.3036 0.870466 67.1685 1.55052 67.4781 3.13731L68.962 10.7902C68.9711 10.8355 68.9893 10.8446 69.0166 10.8446C69.053 10.8446 69.0712 10.8355 69.0803 10.7992L70.3822 2.2487C70.5097 1.38731 71.0923 0.861399 71.9572 0.861399C72.8767 0.861399 73.4593 1.52332 73.4593 2.33031C73.4593 2.52073 73.432 2.67487 73.3956 2.83808L71.42 11.6788C71.0741 13.2293 70.4368 13.9093 68.9711 13.9093C67.6601 13.9093 66.9045 13.2202 66.6041 11.7422L65.1019 4.40673C65.0928 4.37047 65.0655 4.3614 65.0473 4.3614C65.0382 4.3614 65.02 4.3614 65.0109 4.39767L63.445 11.7513C63.1264 13.2293 62.3434 13.9093 61.0143 13.9093Z" fill="#262626"/>
<path d="M78.2971 14C75.7298 14 73.9636 12.4132 73.7633 10.2189C73.6996 9.52073 73.6996 8.26943 73.7633 7.57124C73.9636 5.37694 75.7298 3.79015 78.2971 3.79015C80.8644 3.79015 82.6305 5.37694 82.8308 7.57124C82.8945 8.26943 82.8945 9.52073 82.8308 10.2189C82.6305 12.4132 80.8644 14 78.2971 14ZM76.7312 9.67487C76.804 10.5453 77.3867 11.1347 78.2971 11.1347C79.2074 11.1347 79.7901 10.5453 79.8629 9.67487C79.9084 9.12176 79.9084 8.66839 79.8629 8.11528C79.7901 7.24482 79.2074 6.65544 78.2971 6.65544C77.3867 6.65544 76.804 7.24482 76.7312 8.11528C76.6857 8.66839 76.6857 9.12176 76.7312 9.67487Z" fill="#262626"/>
<path d="M85.6411 13.9093C84.7398 13.9093 84.1389 13.3109 84.1389 12.3225V7.29015C84.1389 5.17746 85.459 3.79015 87.4709 3.79015C88.0172 3.79015 88.5725 3.84456 89.055 3.9715C89.8926 4.19819 90.5117 4.62435 90.5117 5.46762C90.5117 6.37435 89.9199 6.91839 89.3099 6.91839C89.0277 6.91839 88.8274 6.86399 88.6271 6.81865C88.4087 6.77332 88.1902 6.72798 87.8897 6.72798C87.3617 6.72798 87.1432 6.96373 87.1432 7.52591V12.3225C87.1432 13.3109 86.5424 13.9093 85.6411 13.9093Z" fill="#262626"/>
<path d="M99.8426 11.2254C100.252 11.6606 100.38 12.1412 100.38 12.513C100.38 13.3834 99.788 13.9093 98.9777 13.9093C98.477 13.9093 98.04 13.737 97.5848 13.2202L95.3362 10.6995C94.9902 10.3187 94.8901 10.3005 94.4531 10.3005H94.2892V12.3225C94.2892 13.3109 93.6884 13.9093 92.7871 13.9093C91.8858 13.9093 91.2849 13.3109 91.2849 12.3225V2.2487C91.2849 1.26036 91.8858 0.661917 92.7871 0.661917C93.6884 0.661917 94.2892 1.26036 94.2892 2.2487V7.4715H94.3985C94.7171 7.4715 94.8446 7.43523 95.1905 7.07254L97.603 4.56995C98.0582 4.09845 98.4588 3.88083 98.9504 3.88083C99.7425 3.88083 100.371 4.45207 100.371 5.28627C100.371 5.73964 100.143 6.17487 99.7334 6.59197L97.5666 8.78627L99.8426 11.2254Z" fill="#262626"/>
<path d="M109 10.7811C109 12.8212 107.143 14 105.012 14C103.383 14 102.218 13.4922 101.671 13.1295C101.089 12.7487 100.888 12.3044 100.888 11.8148C100.888 11.2345 101.334 10.5635 102.035 10.5635C102.372 10.5635 102.664 10.6723 103.11 10.9262C103.62 11.2163 104.093 11.4249 105.049 11.4249C105.814 11.4249 106.105 11.1528 106.105 10.8446C106.105 10.5907 105.886 10.3821 105.267 10.2461L103.902 9.93782C102.491 9.62047 101.189 8.7228 101.189 6.98186C101.189 4.95078 103.01 3.79015 105.058 3.79015C106.269 3.79015 107.352 4.13471 107.898 4.49741C108.445 4.8601 108.636 5.2228 108.636 5.76684C108.636 6.37435 108.153 7.08161 107.416 7.08161C107.006 7.08161 106.706 6.93653 106.387 6.77332C106.232 6.69171 105.65 6.41969 105.012 6.41969C104.284 6.41969 104.029 6.67357 104.029 6.9456C104.029 7.23575 104.284 7.38083 104.94 7.52591L106.105 7.77979C108.081 8.20596 109 9.15803 109 10.7811Z" fill="#262626"/>
</g>
</svg>
