<svg width="100" height="18" viewBox="0 0 100 18" fill="none" xmlns="http://www.w3.org/2000/svg">
<g id="typo">
<path d="M8.73438 7.94984C8.79702 8.6679 8.79702 9.9245 8.73438 10.6605C8.54645 12.8326 6.9356 14.3585 4.44773 14.3585C2.49682 14.3585 1.0739 13.7661 0.501153 13.3712C0.143187 13.1199 0 12.8685 0 12.3659V2.72598C0 1.74762 0.590644 1.15523 1.47661 1.15523C2.36258 1.15523 2.95322 1.74762 2.95322 2.72598V4.61088C3.41858 4.39546 4.17031 4.25185 4.8057 4.25185C6.9356 4.25185 8.54645 5.77772 8.73438 7.94984ZM2.95322 11.1811C3.25749 11.3965 3.81234 11.5222 4.2956 11.5222C5.28 11.5222 5.75431 10.9118 5.81695 10.0681C5.85275 9.60137 5.8617 9.11668 5.81695 8.54224C5.75431 7.69852 5.28 7.08817 4.2956 7.08817C3.81234 7.08817 3.25749 7.21383 2.95322 7.42925V11.1811Z" fill="#262626"/>
<path d="M11.5664 0.5C12.4702 0.5 13.1593 1.19113 13.1593 2.09768C13.1593 3.03115 12.4702 3.73126 11.5664 3.73126C10.6625 3.73126 9.97342 3.03115 9.97342 2.09768C9.97342 1.19113 10.6625 0.5 11.5664 0.5ZM10.0987 12.698V5.91235C10.0987 4.934 10.6894 4.3416 11.5753 4.3416C12.4613 4.3416 13.0519 4.934 13.0519 5.91235V12.698C13.0519 13.6763 12.4613 14.2687 11.5753 14.2687C10.6894 14.2687 10.0987 13.6763 10.0987 12.698Z" fill="#262626"/>
<path d="M20.8771 11.4324C21.8436 11.4324 22.3627 11.9799 22.3627 12.8057C22.3627 13.6315 21.8436 14.179 20.8771 14.179H15.4808C14.5859 14.179 14.1116 13.6763 14.1116 12.9314C14.1116 12.3479 14.3442 11.9889 14.7022 11.5581L18.3535 7.15998L15.8298 7.16895C14.8633 7.16895 14.3442 6.61246 14.3442 5.79567C14.3442 4.97888 14.8633 4.43136 15.8298 4.43136H20.9129C21.7273 4.43136 22.3179 4.78141 22.3179 5.64308C22.3179 6.29831 22.0584 6.72017 21.6736 7.17793L18.1387 11.4324H20.8771Z" fill="#262626"/>
<path d="M32.2406 7.94984C32.3032 8.6679 32.3032 9.9245 32.2406 10.6605C32.0527 12.8326 30.4418 14.3585 27.954 14.3585C26.003 14.3585 24.5801 13.7661 24.0074 13.3712C23.6494 13.1199 23.5062 12.8685 23.5062 12.3659V2.72598C23.5062 1.74762 24.0969 1.15523 24.9828 1.15523C25.8688 1.15523 26.4594 1.74762 26.4594 2.72598V4.61088C26.9248 4.39546 27.6765 4.25185 28.3119 4.25185C30.4418 4.25185 32.0527 5.77772 32.2406 7.94984ZM26.4594 11.1811C26.7637 11.3965 27.3186 11.5222 27.8018 11.5222C28.7862 11.5222 29.2605 10.9118 29.3232 10.0681C29.359 9.60137 29.3679 9.11668 29.3232 8.54224C29.2605 7.69852 28.7862 7.08817 27.8018 7.08817C27.3186 7.08817 26.7637 7.21383 26.4594 7.42925V11.1811Z" fill="#262626"/>
<path d="M37.9184 14.3585C35.3053 14.3585 33.5423 12.7878 33.3723 10.6156C33.3186 9.94245 33.3096 8.78458 33.3633 8.18321C33.5691 5.91235 35.2158 4.25185 37.8379 4.25185C40.46 4.25185 41.9813 5.87645 41.9813 8.41658V8.82946C41.9813 10.0232 41.7129 10.1938 40.6658 10.1938H36.0928V10.3284C36.0838 11.1901 36.8445 11.7735 38.0079 11.7735C38.7417 11.7735 39.225 11.6119 39.5024 11.5132C39.8693 11.3875 40.1289 11.235 40.4689 11.235C41.167 11.235 41.686 11.6837 41.686 12.4467C41.686 13.1827 41.158 13.5776 40.7106 13.7751C40.1289 14.0354 39.046 14.3585 37.9184 14.3585ZM36.1017 8.29092H39.3324C39.4129 7.29461 38.7417 6.63939 37.7126 6.63939C36.7282 6.63939 36.1733 7.30359 36.1017 8.29092Z" fill="#262626"/>
<path d="M47.5017 14.3585C44.8886 14.3585 43.1256 12.7878 42.9555 10.6156C42.9018 9.94245 42.8929 8.78458 42.9466 8.18321C43.1524 5.91235 44.7991 4.25185 47.4212 4.25185C50.0433 4.25185 51.5646 5.87645 51.5646 8.41658V8.82946C51.5646 10.0232 51.2962 10.1938 50.2491 10.1938H45.6761V10.3284C45.6671 11.1901 46.4278 11.7735 47.5912 11.7735C48.325 11.7735 48.8083 11.6119 49.0857 11.5132C49.4526 11.3875 49.7122 11.235 50.0522 11.235C50.7503 11.235 51.2693 11.6837 51.2693 12.4467C51.2693 13.1827 50.7413 13.5776 50.2939 13.7751C49.7122 14.0354 48.6293 14.3585 47.5017 14.3585ZM45.685 8.29092H48.9157C48.9962 7.29461 48.325 6.63939 47.2959 6.63939C46.3115 6.63939 45.7566 7.30359 45.685 8.29092Z" fill="#262626"/>
<path d="M60.5857 14.3585C57.9725 14.3585 56.2095 12.7878 56.0395 10.6156C55.9858 9.94245 55.9768 8.78458 56.0305 8.18321C56.2364 5.91235 57.883 4.25185 60.5051 4.25185C63.1272 4.25185 64.6486 5.87645 64.6486 8.41658V8.82946C64.6486 10.0232 64.3801 10.1938 63.3331 10.1938H58.76V10.3284C58.7511 11.1901 59.5118 11.7735 60.6752 11.7735C61.409 11.7735 61.8922 11.6119 62.1697 11.5132C62.5366 11.3875 62.7961 11.235 63.1362 11.235C63.8342 11.235 64.3533 11.6837 64.3533 12.4467C64.3533 13.1827 63.8253 13.5776 63.3778 13.7751C62.7961 14.0354 61.7133 14.3585 60.5857 14.3585ZM58.769 8.29092H61.9996C62.0802 7.29461 61.409 6.63939 60.3798 6.63939C59.3954 6.63939 58.8406 7.30359 58.769 8.29092Z" fill="#262626"/>
<path d="M70.697 14.3585C68.4149 14.3585 67.0189 13.6763 66.2403 13.1737C65.7302 12.8416 65.4438 12.3569 65.4438 11.7914C65.4438 10.9388 66.0613 10.3912 66.8399 10.3912C67.3052 10.3912 67.6274 10.5528 67.9943 10.7592C68.6118 11.1003 69.3546 11.5581 70.697 11.5581C71.9051 11.5581 72.6031 11.217 72.6031 10.5079C72.6031 9.72703 71.4934 9.43083 70.0705 9.13463C67.0725 8.50634 65.7391 7.4472 65.7391 5.1584C65.7391 2.82471 67.7885 1.27191 70.4553 1.27191C72.3078 1.27191 73.5607 1.72967 74.3303 2.16051C74.8583 2.46568 75.1268 2.89652 75.1268 3.47096C75.1268 4.2339 74.5361 4.87117 73.8023 4.87117C73.3817 4.87117 73.0237 4.70063 72.6031 4.52112C72.0841 4.3057 71.4576 4.07233 70.4553 4.07233C69.283 4.07233 68.7818 4.50317 68.7818 5.06864C68.7818 5.71489 69.4262 6.06494 70.9654 6.35216C74.1782 6.94456 75.6458 8.12936 75.6458 10.3643C75.6458 12.6082 73.7486 14.3585 70.697 14.3585Z" fill="#262626"/>
<path d="M78.1299 0.5C79.0338 0.5 79.7229 1.19113 79.7229 2.09768C79.7229 3.03115 79.0338 3.73126 78.1299 3.73126C77.2261 3.73126 76.537 3.03115 76.537 2.09768C76.537 1.19113 77.2261 0.5 78.1299 0.5ZM76.6623 12.698V5.91235C76.6623 4.934 77.2529 4.3416 78.1389 4.3416C79.0248 4.3416 79.6155 4.934 79.6155 5.91235V12.698C79.6155 13.6763 79.0248 14.2687 78.1389 14.2687C77.2529 14.2687 76.6623 13.6763 76.6623 12.698Z" fill="#262626"/>
<path d="M85.3645 17.5C84.0042 17.5 82.984 17.2038 82.4113 16.9166C81.8027 16.6114 81.4716 16.1536 81.4716 15.5612C81.4716 14.8791 81.9907 14.3854 82.6797 14.3854C82.984 14.3854 83.2614 14.4752 83.5926 14.6008C84.0579 14.7804 84.4427 14.8611 85.1139 14.8611C86.3399 14.8611 86.7964 14.2598 86.7964 13.5058V13.3083C86.3489 13.5238 85.5882 13.6674 84.9439 13.6674C82.8856 13.6674 81.2121 12.2402 80.9973 10.2027C80.9347 9.61035 80.9436 8.32682 80.9973 7.71647C81.1763 5.67899 83.0019 4.25185 85.454 4.25185C87.2886 4.25185 88.5235 4.84424 88.9799 5.10454C89.7138 5.51742 89.7496 5.8226 89.7496 7.09715V13.1378C89.7496 16.0998 87.9508 17.5 85.3645 17.5ZM83.9326 9.80781C83.9953 10.5169 84.4696 11.0285 85.454 11.0285C85.9372 11.0285 86.4921 10.9029 86.7964 10.6874V7.32154C86.4921 7.10612 85.9372 6.98046 85.454 6.98046C84.4696 6.98046 84.0132 7.49208 83.9326 8.20116C83.8968 8.52429 83.9058 9.48469 83.9326 9.80781Z" fill="#262626"/>
<path d="M95.597 4.25185C98.4965 4.25185 100 5.75079 100 8.1114V12.698C100 13.6763 99.4094 14.2687 98.5234 14.2687C97.6374 14.2687 97.0468 13.6763 97.0468 12.698V8.46146C97.0468 7.59081 96.5993 7.08817 95.597 7.08817C95.069 7.08817 94.5768 7.23178 94.2457 7.3754V12.698C94.2457 13.6763 93.655 14.2687 92.7691 14.2687C91.8831 14.2687 91.2925 13.6763 91.2925 12.698V6.77402C91.2925 5.8226 91.4893 5.39176 92.4201 4.92503C92.9212 4.67371 94.192 4.25185 95.597 4.25185Z" fill="#262626"/>
</g>
</svg>
