<svg width="109" height="14" viewBox="0 0 109 14" fill="none" xmlns="http://www.w3.org/2000/svg">
<g id="typo">
<path d="M8.86299 7.52591C8.92656 8.2513 8.92656 9.52073 8.86299 10.2642C8.67229 12.4585 7.03772 14 4.51322 14C2.53358 14 1.08971 13.4016 0.508532 13.0026C0.145295 12.7487 0 12.4948 0 11.987V2.2487C0 1.26036 0.599342 0.661917 1.49835 0.661917C2.39737 0.661917 2.99671 1.26036 2.99671 2.2487V4.15285C3.46892 3.93523 4.23172 3.79015 4.87646 3.79015C7.03772 3.79015 8.67229 5.33161 8.86299 7.52591ZM2.99671 10.7902C3.30546 11.0078 3.86848 11.1347 4.35885 11.1347C5.35775 11.1347 5.83904 10.5181 5.90261 9.6658C5.93893 9.1943 5.94801 8.70466 5.90261 8.12435C5.83904 7.27202 5.35775 6.65544 4.35885 6.65544C3.86848 6.65544 3.30546 6.78238 2.99671 7V10.7902Z" fill="#262626"/>
<path d="M11.7367 0C12.6539 0 13.3531 0.698187 13.3531 1.61399C13.3531 2.55699 12.6539 3.26425 11.7367 3.26425C10.8195 3.26425 10.1203 2.55699 10.1203 1.61399C10.1203 0.698187 10.8195 0 11.7367 0ZM10.2474 12.3225V5.46762C10.2474 4.47927 10.8467 3.88083 11.7458 3.88083C12.6448 3.88083 13.2441 4.47927 13.2441 5.46762V12.3225C13.2441 13.3109 12.6448 13.9093 11.7458 13.9093C10.8467 13.9093 10.2474 13.3109 10.2474 12.3225Z" fill="#262626"/>
<path d="M21.1845 11.044C22.1653 11.044 22.692 11.5971 22.692 12.4313C22.692 13.2655 22.1653 13.8187 21.1845 13.8187H15.7087C14.8006 13.8187 14.3194 13.3109 14.3194 12.5583C14.3194 11.9689 14.5555 11.6062 14.9187 11.171L18.6237 6.72798L16.0629 6.73705C15.0822 6.73705 14.5555 6.17487 14.5555 5.34974C14.5555 4.52461 15.0822 3.9715 16.0629 3.9715H21.2209C22.0472 3.9715 22.6466 4.32513 22.6466 5.1956C22.6466 5.85751 22.3832 6.28368 21.9927 6.74611L18.4058 11.044H21.1845Z" fill="#262626"/>
<path d="M32.7153 7.52591C32.7789 8.2513 32.7789 9.52073 32.7153 10.2642C32.5246 12.4585 30.8901 14 28.3656 14C26.3859 14 24.9421 13.4016 24.3609 13.0026C23.9976 12.7487 23.8523 12.4948 23.8523 11.987V2.2487C23.8523 1.26036 24.4517 0.661917 25.3507 0.661917C26.2497 0.661917 26.8491 1.26036 26.8491 2.2487V4.15285C27.3213 3.93523 28.0841 3.79015 28.7288 3.79015C30.8901 3.79015 32.5246 5.33161 32.7153 7.52591ZM26.8491 10.7902C27.1578 11.0078 27.7208 11.1347 28.2112 11.1347C29.2101 11.1347 29.6914 10.5181 29.755 9.6658C29.7913 9.1943 29.8004 8.70466 29.755 8.12435C29.6914 7.27202 29.2101 6.65544 28.2112 6.65544C27.7208 6.65544 27.1578 6.78238 26.8491 7V10.7902Z" fill="#262626"/>
<path d="M38.4768 14C35.8251 14 34.0362 12.4132 33.8637 10.2189C33.8092 9.53886 33.8001 8.36917 33.8546 7.76166C34.0634 5.46762 35.7343 3.79015 38.395 3.79015C41.0558 3.79015 42.5995 5.43135 42.5995 7.99741V8.41451C42.5995 9.62047 42.3271 9.79275 41.2646 9.79275H36.6243V9.92876C36.6152 10.7992 37.3871 11.3886 38.5676 11.3886C39.3122 11.3886 39.8026 11.2254 40.0841 11.1256C40.4564 10.9987 40.7198 10.8446 41.0648 10.8446C41.7731 10.8446 42.2998 11.2979 42.2998 12.0687C42.2998 12.8122 41.7641 13.2111 41.31 13.4106C40.7198 13.6736 39.621 14 38.4768 14ZM36.6333 7.87047H39.9116C39.9933 6.86399 39.3122 6.20207 38.2679 6.20207C37.269 6.20207 36.706 6.87306 36.6333 7.87047Z" fill="#262626"/>
<path d="M48.2012 14C45.5495 14 43.7606 12.4132 43.5881 10.2189C43.5336 9.53886 43.5245 8.36917 43.579 7.76166C43.7878 5.46762 45.4587 3.79015 48.1194 3.79015C50.7802 3.79015 52.3239 5.43135 52.3239 7.99741V8.41451C52.3239 9.62047 52.0515 9.79275 50.989 9.79275H46.3487V9.92876C46.3396 10.7992 47.1115 11.3886 48.292 11.3886C49.0366 11.3886 49.527 11.2254 49.8085 11.1256C50.1808 10.9987 50.4442 10.8446 50.7892 10.8446C51.4975 10.8446 52.0242 11.2979 52.0242 12.0687C52.0242 12.8122 51.4885 13.2111 51.0344 13.4106C50.4442 13.6736 49.3454 14 48.2012 14ZM46.3577 7.87047H49.636C49.7177 6.86399 49.0366 6.20207 47.9923 6.20207C46.9934 6.20207 46.4304 6.87306 46.3577 7.87047Z" fill="#262626"/>
<path d="M65.0874 0.961139C66.0228 0.961139 66.604 1.52332 66.604 2.35751C66.604 3.22798 66.0228 3.79015 65.0874 3.79015H62.6265V12.2681C62.6265 13.2927 62.0181 13.9093 61.0918 13.9093C60.1656 13.9093 59.5572 13.2927 59.5572 12.2681V3.79015H57.1144C56.1791 3.79015 55.5979 3.22798 55.5979 2.35751C55.5979 1.52332 56.1791 0.961139 57.1144 0.961139H65.0874Z" fill="#262626"/>
<path d="M69.1841 14C66.5052 14 65.2066 12.4676 65.2066 10.772C65.2066 9.29404 66.369 7.85233 68.9298 7.85233C69.6109 7.85233 70.2647 7.94301 70.8641 8.08808V7.4715C70.8641 6.82772 70.4917 6.41969 69.2022 6.41969C68.7754 6.41969 68.3577 6.48316 68.0036 6.60104C67.6131 6.72798 67.2862 6.85492 66.9593 6.85492C66.2782 6.85492 65.7424 6.35622 65.7424 5.63083C65.7424 5.05959 66.033 4.55181 66.7867 4.27072C67.4769 4.00777 68.3214 3.79015 69.3929 3.79015C72.208 3.79015 73.7155 4.97798 73.7155 7.62565V11.9961C73.7155 12.4948 73.5793 12.7668 73.2069 13.0026C72.5622 13.4106 71.1092 14 69.1841 14ZM68.0217 10.763C68.0217 11.3614 68.6211 11.6969 69.3657 11.6969C69.9287 11.6969 70.4736 11.5699 70.8641 11.3886V9.95596C70.3828 9.81088 69.8742 9.73834 69.3475 9.73834C68.503 9.73834 68.0217 10.1917 68.0217 10.763Z" fill="#262626"/>
<path d="M82.4054 13.9093C81.9332 13.9093 81.5608 13.7098 81.1703 13.2565L79.2452 11.044L77.3382 13.2565C76.9477 13.7098 76.5754 13.9093 76.085 13.9093C75.295 13.9093 74.6502 13.3381 74.6502 12.4858C74.6502 12.0596 74.8954 11.6788 75.2042 11.3251L77.3382 8.84974L75.2677 6.46503C74.959 6.1114 74.7138 5.73057 74.7138 5.3044C74.7138 4.45207 75.3586 3.88083 76.1486 3.88083C76.639 3.88083 77.0113 4.08031 77.4018 4.53368L79.2724 6.68264L81.1249 4.53368C81.5154 4.08031 81.8877 3.88083 82.3781 3.88083C83.1682 3.88083 83.822 4.45207 83.822 5.3044C83.822 5.73057 83.5677 6.1114 83.259 6.46503L81.1794 8.87694L83.3044 11.3251C83.6131 11.6788 83.8583 12.0596 83.8583 12.4858C83.8583 13.3381 83.2136 13.9093 82.4054 13.9093Z" fill="#262626"/>
<path d="M87.3122 13.8187C85.95 13.8187 85.2236 13.0933 85.2236 11.7332V3.04663C85.2236 1.68653 85.95 0.961139 87.3122 0.961139H91.4622C93.8141 0.961139 95.2126 2.32124 95.2126 4.48834C95.2126 5.76684 94.586 6.69171 93.7052 7.16321V7.19948C94.7676 7.58031 95.5577 8.64119 95.5577 10.2461C95.5577 12.6036 93.8414 13.8187 91.4258 13.8187H87.3122ZM88.2748 10.9896H91.0081C91.9525 10.9896 92.3975 10.5181 92.3975 9.72927C92.3975 8.94041 91.9344 8.45078 91.0081 8.45078H88.2748V10.9896ZM88.2838 6.14767H90.8083C91.6801 6.14767 92.0978 5.67617 92.0978 4.95984C92.0978 4.20725 91.6438 3.79015 90.8083 3.79015H88.2838V6.14767Z" fill="#262626"/>
<path d="M98.2148 0C99.132 0 99.8312 0.698187 99.8312 1.61399C99.8312 2.55699 99.132 3.26425 98.2148 3.26425C97.2977 3.26425 96.5984 2.55699 96.5984 1.61399C96.5984 0.698187 97.2977 0 98.2148 0ZM96.7256 12.3225V5.46762C96.7256 4.47927 97.3249 3.88083 98.2239 3.88083C99.1229 3.88083 99.7223 4.47927 99.7223 5.46762V12.3225C99.7223 13.3109 99.1229 13.9093 98.2239 13.9093C97.3249 13.9093 96.7256 13.3109 96.7256 12.3225Z" fill="#262626"/>
<path d="M102.85 13.9093C101.951 13.9093 101.351 13.3109 101.351 12.3225V2.2487C101.351 1.26036 101.951 0.661917 102.85 0.661917C103.749 0.661917 104.348 1.26036 104.348 2.2487V12.3225C104.348 13.3109 103.749 13.9093 102.85 13.9093Z" fill="#262626"/>
<path d="M107.502 13.9093C106.603 13.9093 106.003 13.3109 106.003 12.3225V2.2487C106.003 1.26036 106.603 0.661917 107.502 0.661917C108.401 0.661917 109 1.26036 109 2.2487V12.3225C109 13.3109 108.401 13.9093 107.502 13.9093Z" fill="#262626"/>
</g>
</svg>
