<svg width="222" height="199" viewBox="0 0 222 199" fill="none" xmlns="http://www.w3.org/2000/svg">
<g id="Bizbee_Symbol" clip-path="url(#clip0_2_26)" filter="url(#filter0_d_2_26)">
<path id="Vector" d="M52.5482 114.414C44.9121 118.929 42.3596 128.788 46.869 136.432C51.3784 144.077 61.2267 146.632 68.8628 142.118C76.499 137.603 79.0514 127.744 74.5421 120.1L66.3741 106.258L52.5482 114.435V114.414Z" fill="#E0E0E0"/>
<path id="Vector_2" d="M74.6697 101.34L81.7315 113.307C90.7502 128.596 110.447 133.685 125.719 124.657C140.991 115.628 146.075 95.9096 137.056 80.6203L129.995 68.653L74.6697 101.34Z" fill="#FDC315"/>
<path id="Vector_3" d="M152.137 55.5784C159.773 51.064 169.622 53.5981 174.131 61.264C178.64 68.9086 176.109 78.7678 168.452 83.2821C160.794 87.7965 150.967 85.2625 146.458 77.5966L138.29 63.7554L152.116 55.5784H152.137Z" fill="#E0E0E0"/>
<path id="Vector_4" d="M81.1785 49.0624C65.9062 58.0911 60.8225 77.8095 69.8412 93.0987L125.166 60.4122C116.147 45.123 96.4508 40.0337 81.1785 49.0624Z" fill="white"/>
<path id="Vector_5" d="M81.8673 79.7648C84.6193 78.1394 85.3889 74.3419 83.5861 71.283C81.7834 68.224 78.091 67.0619 75.339 68.6874C72.5869 70.3128 71.8174 74.1103 73.6201 77.1693C75.4229 80.2282 79.1152 81.3903 81.8673 79.7648Z" fill="#262626"/>
<path id="Vector_6" d="M79.0301 72.0601C79.735 72.0601 80.3064 71.4881 80.3064 70.7824C80.3064 70.0768 79.735 69.5048 79.0301 69.5048C78.3253 69.5048 77.7539 70.0768 77.7539 70.7824C77.7539 71.4881 78.3253 72.0601 79.0301 72.0601Z" fill="white"/>
<path id="Vector_7" d="M107.732 64.4877C110.484 62.8623 111.253 59.0648 109.451 56.0058C107.648 52.9469 103.955 51.7848 101.203 53.4103C98.4514 55.0357 97.6819 58.8332 99.4846 61.8921C101.287 64.9511 104.98 66.1132 107.732 64.4877Z" fill="#262626"/>
<path id="Vector_8" d="M101.258 58.9216C101.963 58.9216 102.534 58.3496 102.534 57.6439C102.534 56.9383 101.963 56.3663 101.258 56.3663C100.553 56.3663 99.9817 56.9383 99.9817 57.6439C99.9817 58.3496 100.553 58.9216 101.258 58.9216Z" fill="white"/>
<path id="Vector_9" d="M147.246 47.2524L133.42 55.4293L133.378 55.3441C125.72 42.5464 112.298 35.3702 98.3874 35.0721L98.3236 29.4505C98.3023 26.9803 96.2816 24.9787 93.7929 25C91.3043 25.0213 89.3048 27.0655 89.3474 29.5356L89.4112 35.86C84.9231 36.7543 80.4988 38.3727 76.351 40.8215C72.2033 43.2704 68.6511 46.3793 65.6945 49.8715L60.1854 46.7626C58.0158 45.5488 55.2719 46.2941 54.0594 48.4661C52.847 50.6381 53.5915 53.3851 55.7611 54.5988L60.6533 57.3671C54.1871 69.6751 53.9744 84.9217 61.4616 97.826L61.5042 97.9112L47.6783 106.088C35.4264 113.328 31.3637 129.086 38.5745 141.33C45.7852 153.574 61.5467 157.641 73.7773 150.423C80.8604 146.228 85.1783 139.179 86.178 131.599C96.8346 138.732 110.427 140.734 122.891 136.454L131.74 140.372C133.909 141.33 136.398 139.882 136.611 137.497L137.461 127.851C147.225 119.014 152.032 106.152 150.968 93.3542C158.073 96.1437 166.326 95.7604 173.409 91.5868C185.639 84.3681 189.702 68.5891 182.491 56.345C175.281 44.1008 159.519 40.0336 147.288 47.2524H147.246ZM138.078 82.5368L82.9449 115.117C82.5195 114.499 82.0728 113.882 81.69 113.222L74.6707 101.34L129.995 68.653L137.015 80.5564L137.121 80.7268C137.461 81.323 137.781 81.9405 138.078 82.5581V82.5368ZM81.222 49.1475C96.4517 40.1614 116.042 45.1655 125.103 60.327L69.7784 93.0135C60.9086 77.7456 65.9923 58.1337 81.222 49.1475ZM68.8638 142.097C61.2276 146.611 51.3794 144.077 46.87 136.411C42.3606 128.745 44.8918 118.907 52.5492 114.393L66.3751 106.216L73.3944 118.119L74.543 120.078C79.0524 127.723 76.5212 137.582 68.8638 142.097ZM125.678 124.571C114.021 131.449 99.8125 130.108 89.709 122.314L141.077 91.9701C143.013 104.598 137.334 117.693 125.678 124.571ZM168.453 83.2608C160.817 87.7751 150.968 85.2411 146.459 77.5752L145.417 75.7865C145.417 75.7865 145.353 75.6588 145.332 75.6162L138.312 63.734L152.138 55.5571C159.774 51.0427 169.623 53.5767 174.132 61.2426C178.641 68.9085 176.11 78.7464 168.453 83.2608Z" fill="#262626"/>
</g>
<defs>
<filter id="filter0_d_2_26" x="0" y="0" width="222" height="199" filterUnits="userSpaceOnUse" color-interpolation-filters="sRGB">
<feFlood flood-opacity="0" result="BackgroundImageFix"/>
<feColorMatrix in="SourceAlpha" type="matrix" values="0 0 0 0 0 0 0 0 0 0 0 0 0 0 0 0 0 0 127 0" result="hardAlpha"/>
<feOffset dy="10"/>
<feGaussianBlur stdDeviation="17.5"/>
<feComposite in2="hardAlpha" operator="out"/>
<feColorMatrix type="matrix" values="0 0 0 0 0.219608 0 0 0 0 0.278431 0 0 0 0 0.427451 0 0 0 0.08 0"/>
<feBlend mode="normal" in2="BackgroundImageFix" result="effect1_dropShadow_2_26"/>
<feBlend mode="normal" in="SourceGraphic" in2="effect1_dropShadow_2_26" result="shape"/>
</filter>
<clipPath id="clip0_2_26">
<rect width="152" height="129" fill="white" transform="translate(35 25)"/>
</clipPath>
</defs>
</svg>
