<svg width="421" height="370" viewBox="0 0 421 370" fill="none" xmlns="http://www.w3.org/2000/svg">
<g clip-path="url(#clip0_532_3074)" filter="url(#filter0_d_532_3074)">
<path d="M75.7908 232.939C58.0406 243.438 52.1074 266.366 62.5894 284.144C73.0714 301.923 95.9638 307.865 113.714 297.367C131.464 286.868 137.398 263.94 126.916 246.162L107.929 213.973L75.7908 232.989V232.939Z" fill="#E0E0E0"/>
<path d="M127.212 202.535L143.627 230.366C164.592 265.922 210.376 277.758 245.877 256.761C281.377 235.763 293.194 189.907 272.23 154.351L255.815 126.52L127.212 202.535Z" fill="#FDC315"/>
<path d="M307.286 96.1121C325.036 85.6135 347.929 91.5066 358.411 109.334C368.893 127.112 363.009 150.041 345.209 160.539C327.409 171.038 304.567 165.145 294.084 147.317L275.098 115.128L307.236 96.1121H307.286Z" fill="#E0E0E0"/>
<path d="M142.342 80.959C106.842 101.956 95.0245 147.813 115.989 183.369L244.591 107.354C223.627 71.7976 177.843 59.962 142.342 80.959Z" fill="white"/>
<path d="M143.943 152.36C150.34 148.58 152.129 139.749 147.939 132.635C143.748 125.521 135.165 122.819 128.768 126.599C122.371 130.379 120.582 139.21 124.773 146.324C128.963 153.438 137.546 156.14 143.943 152.36Z" fill="#262626"/>
<path d="M137.348 134.443C138.987 134.443 140.315 133.112 140.315 131.471C140.315 129.83 138.987 128.5 137.348 128.5C135.71 128.5 134.382 129.83 134.382 131.471C134.382 133.112 135.71 134.443 137.348 134.443Z" fill="white"/>
<path d="M204.065 116.831C210.462 113.051 212.251 104.22 208.061 97.1057C203.87 89.9919 195.287 87.2894 188.89 91.0695C182.493 94.8497 180.704 103.681 184.895 110.795C189.085 117.909 197.668 120.611 204.065 116.831Z" fill="#262626"/>
<path d="M189.017 103.888C190.655 103.888 191.984 102.558 191.984 100.917C191.984 99.2756 190.655 97.9453 189.017 97.9453C187.378 97.9453 186.05 99.2756 186.05 100.917C186.05 102.558 187.378 103.888 189.017 103.888Z" fill="white"/>
<path d="M295.916 76.7501L263.777 95.7663L263.678 95.5682C245.879 65.8059 214.68 49.1173 182.344 48.424L182.195 35.3503C182.146 29.6059 177.449 24.9509 171.664 25.0004C165.879 25.0499 161.231 29.804 161.33 35.5484L161.479 50.2562C151.046 52.3361 140.762 56.0998 131.12 61.7947C121.479 67.4897 113.222 74.7198 106.349 82.8413L93.5432 75.6111C88.4999 72.7884 82.1217 74.5217 79.3034 79.5728C76.4851 84.624 78.2156 91.0123 83.2589 93.835L94.6309 100.273C79.6001 128.896 79.1056 164.353 96.5098 194.363L96.6087 194.561L64.4703 213.577C35.9908 230.415 26.5471 267.06 43.3085 295.535C60.0698 324.01 96.7075 333.468 125.138 316.681C141.602 306.925 151.639 290.534 153.963 272.904C178.734 289.494 210.329 294.149 239.303 284.195L259.871 293.307C264.915 295.535 270.699 292.168 271.194 286.621L273.172 264.188C295.866 243.637 307.041 213.726 304.568 183.964C321.082 190.451 340.267 189.56 356.731 179.853C385.161 163.066 394.605 126.37 377.844 97.8957C361.082 69.421 324.445 59.9624 296.015 76.7501H295.916ZM274.606 158.807L146.448 234.574C145.459 233.138 144.421 231.702 143.531 230.167L127.214 202.534L255.817 126.519L272.133 154.201L272.381 154.598C273.172 155.984 273.913 157.42 274.606 158.856V158.807ZM142.443 81.1575C177.844 60.2595 223.382 71.897 244.445 107.156L115.842 183.171C95.2242 147.665 107.041 102.056 142.443 81.1575ZM113.716 297.318C95.9659 307.816 73.0735 301.923 62.5915 284.096C52.1094 266.268 57.9932 243.389 75.7929 232.891L107.931 213.875L124.248 241.557L126.918 246.113C137.4 263.891 131.516 286.819 113.716 297.318ZM245.78 256.562C218.685 272.557 185.657 269.437 162.171 251.313L281.577 180.745C286.076 210.111 272.875 240.567 245.78 256.562ZM345.211 160.491C327.461 170.989 304.568 165.096 294.086 147.268L291.664 143.109C291.664 143.109 291.515 142.812 291.466 142.712L275.149 115.08L307.288 96.0634C325.038 85.5649 347.93 91.458 358.412 109.286C368.894 127.113 363.011 149.992 345.211 160.491Z" fill="#262626"/>
</g>
<defs>
<filter id="filter0_d_532_3074" x="0" y="0" width="421" height="370" filterUnits="userSpaceOnUse" color-interpolation-filters="sRGB">
<feFlood flood-opacity="0" result="BackgroundImageFix"/>
<feColorMatrix in="SourceAlpha" type="matrix" values="0 0 0 0 0 0 0 0 0 0 0 0 0 0 0 0 0 0 127 0" result="hardAlpha"/>
<feOffset dy="10"/>
<feGaussianBlur stdDeviation="17.5"/>
<feComposite in2="hardAlpha" operator="out"/>
<feColorMatrix type="matrix" values="0 0 0 0 0.219608 0 0 0 0 0.278431 0 0 0 0 0.427451 0 0 0 0.08 0"/>
<feBlend mode="normal" in2="BackgroundImageFix" result="effect1_dropShadow_532_3074"/>
<feBlend mode="normal" in="SourceGraphic" in2="effect1_dropShadow_532_3074" result="shape"/>
</filter>
<clipPath id="clip0_532_3074">
<rect width="351" height="300" fill="white" transform="translate(35 25)"/>
</clipPath>
</defs>
</svg>
