<svg width="127" height="38" viewBox="0 0 127 38" fill="none" xmlns="http://www.w3.org/2000/svg">
<g clip-path="url(#clip0_532_3125)">
<path d="M5.1134 26.3399C2.88829 27.6698 2.14453 30.574 3.45852 32.8259C4.7725 35.0778 7.6422 35.8305 9.86731 34.5007C12.0924 33.1709 12.8362 30.2667 11.5222 28.0148L9.14213 23.9375L5.1134 26.3462V26.3399Z" fill="#E0E0E0"/>
<path d="M11.5593 22.488L13.6171 26.0132C16.2451 30.517 21.9845 32.0162 26.4347 29.3566C30.8849 26.6969 32.3662 20.8884 29.7382 16.3846L27.6805 12.8594L11.5593 22.488Z" fill="#FDC315"/>
<path d="M34.1327 9.00632C36.3578 7.67651 39.2275 8.42296 40.5415 10.6811C41.8555 12.933 41.1179 15.8373 38.8866 17.1671C36.6553 18.4969 33.7918 17.7505 32.4778 15.4923L30.0978 11.415L34.1265 9.00632H34.1327Z" fill="#E0E0E0"/>
<path d="M13.456 7.08959C9.00578 9.74921 7.52444 15.5577 10.1524 20.0615L26.2736 10.4329C23.6456 5.92914 17.9062 4.42997 13.456 7.08959Z" fill="white"/>
<path d="M13.6567 16.1305C14.4586 15.6517 14.6828 14.5331 14.1575 13.632C13.6322 12.7309 12.5563 12.3886 11.7544 12.8674C10.9524 13.3462 10.7282 14.4648 11.2535 15.3659C11.7788 16.267 12.8547 16.6093 13.6567 16.1305Z" fill="#262626"/>
<path d="M12.83 13.8621C13.0354 13.8621 13.2019 13.6936 13.2019 13.4857C13.2019 13.2779 13.0354 13.1094 12.83 13.1094C12.6246 13.1094 12.4581 13.2779 12.4581 13.4857C12.4581 13.6936 12.6246 13.8621 12.83 13.8621Z" fill="white"/>
<path d="M21.1934 11.6305C21.9953 11.1517 22.2196 10.0331 21.6942 9.13199C21.1689 8.2309 20.093 7.88858 19.2911 8.3674C18.4892 8.84622 18.265 9.96485 18.7903 10.8659C19.3156 11.767 20.3915 12.1093 21.1934 11.6305Z" fill="#262626"/>
<path d="M19.3069 9.99101C19.5123 9.99101 19.6788 9.8225 19.6788 9.61464C19.6788 9.40678 19.5123 9.23828 19.3069 9.23828C19.1016 9.23828 18.9351 9.40678 18.9351 9.61464C18.9351 9.8225 19.1016 9.99101 19.3069 9.99101Z" fill="white"/>
<path d="M32.7074 6.55502L28.6787 8.96373L28.6663 8.93864C26.435 5.16875 22.524 3.05485 18.4705 2.96704L18.4519 1.31104C18.4457 0.58341 17.8569 -0.00622311 17.1317 4.95882e-05C16.4065 0.00632228 15.8239 0.608501 15.8363 1.33613L15.8549 3.19912C14.5471 3.46258 13.2579 3.9393 12.0493 4.66066C10.8407 5.38202 9.80559 6.29784 8.94406 7.32656L7.33877 6.41075C6.70657 6.0532 5.90702 6.27275 5.55373 6.91256C5.20044 7.55238 5.41737 8.36155 6.04957 8.7191L7.47512 9.53455C5.59092 13.1602 5.52893 17.6514 7.71065 21.4527L7.72305 21.4778L3.69431 23.8865C0.12423 26.0192 -1.0596 30.661 1.04154 34.2678C3.14268 37.8746 7.73544 39.0727 11.2993 36.9462C13.3633 35.7105 14.6215 33.6342 14.9128 31.4012C18.018 33.5025 21.9786 34.0922 25.6106 32.8313L28.189 33.9855C28.8212 34.2678 29.5464 33.8412 29.6084 33.1387L29.8563 30.2972C32.7012 27.694 34.102 23.9053 33.7921 20.1354C35.8622 20.9571 38.2671 20.8442 40.331 19.6148C43.8949 17.4883 45.0787 12.8403 42.9776 9.23346C40.8764 5.62666 36.2837 4.42857 32.7198 6.55502H32.7074ZM30.036 16.9489L13.9707 26.5461C13.8467 26.3642 13.7166 26.1823 13.605 25.9878L11.5596 22.4877L27.6808 12.8591L29.7261 16.3655L29.7571 16.4157C29.8563 16.5913 29.9493 16.7732 30.036 16.9551V16.9489ZM13.4686 7.11329C17.9065 4.46621 23.6149 5.94029 26.2552 10.4065L10.1341 20.035C7.5495 15.5375 9.03084 9.76036 13.4686 7.11329ZM9.86757 34.4936C7.64247 35.8234 4.77277 35.077 3.45878 32.8188C2.1448 30.5606 2.88237 27.6626 5.11367 26.3328L9.1424 23.9241L11.1878 27.4306L11.5225 28.0076C12.8364 30.2595 12.0989 33.1638 9.86757 34.4936ZM26.4226 29.3312C23.026 31.3573 18.8857 30.9621 15.9417 28.6663L30.91 19.7277C31.474 23.4474 29.8191 27.3051 26.4226 29.3312ZM38.8869 17.1621C36.6618 18.492 33.7921 17.7455 32.4781 15.4873L32.1744 14.9604C32.1744 14.9604 32.1558 14.9228 32.1496 14.9102L30.1042 11.4101L34.133 9.00137C36.3581 7.67156 39.2278 8.41801 40.5417 10.6762C41.8557 12.9343 41.1182 15.8323 38.8869 17.1621Z" fill="#262626"/>
</g>
<path d="M64.688 19.7548C64.779 20.7948 64.779 22.6148 64.688 23.6808C64.415 26.8268 62.075 29.0368 58.461 29.0368C55.627 29.0368 53.56 28.1788 52.728 27.6068C52.208 27.2428 52 26.8788 52 26.1508V12.1888C52 10.7718 52.858 9.91384 54.145 9.91384C55.432 9.91384 56.29 10.7718 56.29 12.1888V14.9188C56.966 14.6068 58.058 14.3988 58.981 14.3988C62.075 14.3988 64.415 16.6088 64.688 19.7548ZM56.29 24.4348C56.732 24.7468 57.538 24.9288 58.24 24.9288C59.67 24.9288 60.359 24.0448 60.45 22.8228C60.502 22.1468 60.515 21.4448 60.45 20.6128C60.359 19.3908 59.67 18.5068 58.24 18.5068C57.538 18.5068 56.732 18.6888 56.29 19.0008V24.4348Z" fill="#262626"/>
<path d="M68.8019 8.96484C70.1149 8.96484 71.1159 9.96584 71.1159 11.2788C71.1159 12.6308 70.1149 13.6448 68.8019 13.6448C67.4889 13.6448 66.4879 12.6308 66.4879 11.2788C66.4879 9.96584 67.4889 8.96484 68.8019 8.96484ZM66.6699 26.6318V16.8038C66.6699 15.3868 67.5279 14.5288 68.8149 14.5288C70.1019 14.5288 70.9599 15.3868 70.9599 16.8038V26.6318C70.9599 28.0488 70.1019 28.9068 68.8149 28.9068C67.5279 28.9068 66.6699 28.0488 66.6699 26.6318Z" fill="#262626"/>
<path d="M82.3272 24.7988C83.7312 24.7988 84.4852 25.5918 84.4852 26.7878C84.4852 27.9838 83.7312 28.7768 82.3272 28.7768H74.4882C73.1882 28.7768 72.4992 28.0488 72.4992 26.9698C72.4992 26.1248 72.8372 25.6048 73.3572 24.9808L78.6612 18.6108L74.9952 18.6238C73.5912 18.6238 72.8372 17.8178 72.8372 16.6348C72.8372 15.4518 73.5912 14.6588 74.9952 14.6588H82.3792C83.5622 14.6588 84.4202 15.1658 84.4202 16.4138C84.4202 17.3628 84.0432 17.9738 83.4842 18.6368L78.3492 24.7988H82.3272Z" fill="#262626"/>
<path d="M98.8343 19.7548C98.9253 20.7948 98.9253 22.6148 98.8343 23.6808C98.5613 26.8268 96.2213 29.0368 92.6073 29.0368C89.7733 29.0368 87.7063 28.1788 86.8743 27.6068C86.3543 27.2428 86.1463 26.8788 86.1463 26.1508V12.1888C86.1463 10.7718 87.0043 9.91384 88.2913 9.91384C89.5783 9.91384 90.4363 10.7718 90.4363 12.1888V14.9188C91.1123 14.6068 92.2043 14.3988 93.1273 14.3988C96.2213 14.3988 98.5613 16.6088 98.8343 19.7548ZM90.4363 24.4348C90.8783 24.7468 91.6843 24.9288 92.3863 24.9288C93.8163 24.9288 94.5053 24.0448 94.5963 22.8228C94.6483 22.1468 94.6613 21.4448 94.5963 20.6128C94.5053 19.3908 93.8163 18.5068 92.3863 18.5068C91.6843 18.5068 90.8783 18.6888 90.4363 19.0008V24.4348Z" fill="#262626"/>
<path d="M107.082 29.0368C103.286 29.0368 100.725 26.7618 100.478 23.6158C100.4 22.6408 100.387 20.9638 100.465 20.0928C100.764 16.8038 103.156 14.3988 106.965 14.3988C110.774 14.3988 112.984 16.7518 112.984 20.4308V21.0288C112.984 22.7578 112.594 23.0048 111.073 23.0048H104.43V23.1998C104.417 24.4478 105.522 25.2928 107.212 25.2928C108.278 25.2928 108.98 25.0588 109.383 24.9158C109.916 24.7338 110.293 24.5128 110.787 24.5128C111.801 24.5128 112.555 25.1628 112.555 26.2678C112.555 27.3338 111.788 27.9058 111.138 28.1918C110.293 28.5688 108.72 29.0368 107.082 29.0368ZM104.443 20.2488H109.136C109.253 18.8058 108.278 17.8568 106.783 17.8568C105.353 17.8568 104.547 18.8188 104.443 20.2488Z" fill="#262626"/>
<path d="M121.003 29.0368C117.207 29.0368 114.646 26.7618 114.399 23.6158C114.321 22.6408 114.308 20.9638 114.386 20.0928C114.685 16.8038 117.077 14.3988 120.886 14.3988C124.695 14.3988 126.905 16.7518 126.905 20.4308V21.0288C126.905 22.7578 126.515 23.0048 124.994 23.0048H118.351V23.1998C118.338 24.4478 119.443 25.2928 121.133 25.2928C122.199 25.2928 122.901 25.0588 123.304 24.9158C123.837 24.7338 124.214 24.5128 124.708 24.5128C125.722 24.5128 126.476 25.1628 126.476 26.2678C126.476 27.3338 125.709 27.9058 125.059 28.1918C124.214 28.5688 122.641 29.0368 121.003 29.0368ZM118.364 20.2488H123.057C123.174 18.8058 122.199 17.8568 120.704 17.8568C119.274 17.8568 118.468 18.8188 118.364 20.2488Z" fill="#262626"/>
<defs>
<clipPath id="clip0_532_3125">
<rect width="44" height="38" fill="white"/>
</clipPath>
</defs>
</svg>
