<svg width="168" height="40" viewBox="0 0 168 40" fill="none" xmlns="http://www.w3.org/2000/svg">
<g clip-path="url(#clip0_553_5529)">
<path d="M6.1134 27.3399C3.88829 28.6698 3.14453 31.574 4.45852 33.8259C5.7725 36.0778 8.6422 36.8305 10.8673 35.5007C13.0924 34.1709 13.8362 31.2667 12.5222 29.0148L10.1421 24.9375L6.1134 27.3462V27.3399Z" fill="#E0E0E0"/>
<path d="M12.5593 23.488L14.6171 27.0132C17.2451 31.517 22.9845 33.0162 27.4347 30.3566C31.8849 27.6969 33.3662 21.8884 30.7382 17.3846L28.6805 13.8594L12.5593 23.488Z" fill="#F79009"/>
<path d="M35.1326 10.0063C37.3577 8.67651 40.2274 9.42296 41.5414 11.6811C42.8554 13.933 42.1178 16.8373 39.8865 18.1671C37.6552 19.4969 34.7917 18.7505 33.4777 16.4923L31.0977 12.415L35.1264 10.0063H35.1326Z" fill="#E0E0E0"/>
<path d="M14.4559 8.08959C10.0057 10.7492 8.52432 16.5577 11.1523 21.0615L27.2734 11.4329C24.6455 6.92914 18.9061 5.42997 14.4559 8.08959Z" fill="white"/>
<path d="M14.6568 17.1305C15.4587 16.6517 15.6829 15.5331 15.1576 14.632C14.6323 13.7309 13.5564 13.3886 12.7545 13.8674C11.9526 14.3462 11.7283 15.4648 12.2536 16.3659C12.7789 17.267 13.8549 17.6093 14.6568 17.1305Z" fill="#262626"/>
<path d="M13.8299 14.8621C14.0353 14.8621 14.2018 14.6936 14.2018 14.4857C14.2018 14.2779 14.0353 14.1094 13.8299 14.1094C13.6245 14.1094 13.458 14.2779 13.458 14.4857C13.458 14.6936 13.6245 14.8621 13.8299 14.8621Z" fill="white"/>
<path d="M22.1934 12.6305C22.9953 12.1517 23.2196 11.0331 22.6942 10.132C22.1689 9.2309 21.093 8.88858 20.2911 9.3674C19.4892 9.84622 19.265 10.9648 19.7903 11.8659C20.3156 12.767 21.3915 13.1093 22.1934 12.6305Z" fill="#262626"/>
<path d="M20.3069 10.991C20.5123 10.991 20.6788 10.8225 20.6788 10.6146C20.6788 10.4068 20.5123 10.2383 20.3069 10.2383C20.1016 10.2383 19.9351 10.4068 19.9351 10.6146C19.9351 10.8225 20.1016 10.991 20.3069 10.991Z" fill="white"/>
<path d="M33.7073 7.55502L29.6785 9.96373L29.6662 9.93864C27.4349 6.16875 23.5239 4.05485 19.4704 3.96704L19.4518 2.31104C19.4456 1.58341 18.8567 0.993777 18.1316 1.00005C17.4064 1.00632 16.8238 1.6085 16.8362 2.33613L16.8548 4.19912C15.547 4.46258 14.2578 4.9393 13.0492 5.66066C11.8405 6.38202 10.8055 7.29784 9.94394 8.32656L8.33864 7.41075C7.70644 7.0532 6.90689 7.27275 6.5536 7.91256C6.20032 8.55238 6.41725 9.36155 7.04945 9.7191L8.475 10.5345C6.59079 14.1602 6.52881 18.6514 8.71053 22.4527L8.72292 22.4778L4.69419 24.8865C1.12411 27.0192 -0.0597203 31.661 2.04142 35.2678C4.14256 38.8746 8.73532 40.0727 12.2992 37.9462C14.3632 36.7105 15.6214 34.6342 15.9127 32.4012C19.0179 34.5025 22.9785 35.0922 26.6105 33.8313L29.1889 34.9855C29.8211 35.2678 30.5463 34.8412 30.6083 34.1387L30.8562 31.2972C33.7011 28.694 35.1018 24.9053 34.7919 21.1354C36.8621 21.9571 39.2669 21.8442 41.3309 20.6148C44.8948 18.4883 46.0786 13.8403 43.9775 10.2335C41.8763 6.62666 37.2836 5.42857 33.7197 7.55502H33.7073ZM31.0359 17.9489L14.9706 27.5461C14.8466 27.3642 14.7164 27.1823 14.6049 26.9878L12.5595 23.4877L28.6807 13.8591L30.726 17.3655L30.757 17.4157C30.8562 17.5913 30.9491 17.7732 31.0359 17.9551V17.9489ZM14.4685 8.11329C18.9063 5.46621 24.6147 6.94029 27.2551 11.4065L11.134 21.035C8.54938 16.5375 10.0307 10.7604 14.4685 8.11329ZM10.8675 35.4936C8.64235 36.8234 5.77265 36.077 4.45866 33.8188C3.14467 31.5606 3.88224 28.6626 6.11354 27.3328L10.1423 24.9241L12.1876 28.4306L12.5223 29.0076C13.8363 31.2595 13.0988 34.1638 10.8675 35.4936ZM27.4225 30.3312C24.0259 32.3573 19.8856 31.9621 16.9415 29.6663L31.9098 20.7277C32.4739 24.4474 30.819 28.3051 27.4225 30.3312ZM39.8867 18.1621C37.6616 19.492 34.7919 18.7455 33.478 16.4873L33.1743 15.9604C33.1743 15.9604 33.1557 15.9228 33.1495 15.9102L31.1041 12.4101L35.1328 10.0014C37.3579 8.67156 40.2276 9.41801 41.5416 11.6762C42.8556 13.9343 42.118 16.8323 39.8867 18.1621Z" fill="#262626"/>
</g>
<path d="M65.045 20.366C65.122 21.246 65.122 22.786 65.045 23.688C64.814 26.35 62.834 28.22 59.776 28.22C57.378 28.22 55.629 27.494 54.925 27.01C54.485 26.702 54.309 26.394 54.309 25.778V13.964C54.309 12.765 55.035 12.039 56.124 12.039C57.213 12.039 57.939 12.765 57.939 13.964V16.274C58.511 16.01 59.435 15.834 60.216 15.834C62.834 15.834 64.814 17.704 65.045 20.366ZM57.939 24.326C58.313 24.59 58.995 24.744 59.589 24.744C60.799 24.744 61.382 23.996 61.459 22.962C61.503 22.39 61.514 21.796 61.459 21.092C61.382 20.058 60.799 19.31 59.589 19.31C58.995 19.31 58.313 19.464 57.939 19.728V24.326ZM68.526 11.236C69.637 11.236 70.484 12.083 70.484 13.194C70.484 14.338 69.637 15.196 68.526 15.196C67.415 15.196 66.568 14.338 66.568 13.194C66.568 12.083 67.415 11.236 68.526 11.236ZM66.722 26.185V17.869C66.722 16.67 67.448 15.944 68.537 15.944C69.626 15.944 70.352 16.67 70.352 17.869V26.185C70.352 27.384 69.626 28.11 68.537 28.11C67.448 28.11 66.722 27.384 66.722 26.185ZM79.9705 24.634C81.1585 24.634 81.7965 25.305 81.7965 26.317C81.7965 27.329 81.1585 28 79.9705 28H73.3375C72.2375 28 71.6545 27.384 71.6545 26.471C71.6545 25.756 71.9405 25.316 72.3805 24.788L76.8685 19.398L73.7665 19.409C72.5785 19.409 71.9405 18.727 71.9405 17.726C71.9405 16.725 72.5785 16.054 73.7665 16.054H80.0145C81.0155 16.054 81.7415 16.483 81.7415 17.539C81.7415 18.342 81.4225 18.859 80.9495 19.42L76.6045 24.634H79.9705ZM93.938 20.366C94.015 21.246 94.015 22.786 93.938 23.688C93.707 26.35 91.727 28.22 88.669 28.22C86.271 28.22 84.522 27.494 83.818 27.01C83.378 26.702 83.202 26.394 83.202 25.778V13.964C83.202 12.765 83.928 12.039 85.017 12.039C86.106 12.039 86.832 12.765 86.832 13.964V16.274C87.404 16.01 88.328 15.834 89.109 15.834C91.727 15.834 93.707 17.704 93.938 20.366ZM86.832 24.326C87.206 24.59 87.888 24.744 88.482 24.744C89.692 24.744 90.275 23.996 90.352 22.962C90.396 22.39 90.407 21.796 90.352 21.092C90.275 20.058 89.692 19.31 88.482 19.31C87.888 19.31 87.206 19.464 86.832 19.728V24.326ZM100.917 28.22C97.705 28.22 95.538 26.295 95.329 23.633C95.263 22.808 95.252 21.389 95.318 20.652C95.571 17.869 97.595 15.834 100.818 15.834C104.041 15.834 105.911 17.825 105.911 20.938V21.444C105.911 22.907 105.581 23.116 104.294 23.116H98.673V23.281C98.662 24.337 99.597 25.052 101.027 25.052C101.929 25.052 102.523 24.854 102.864 24.733C103.315 24.579 103.634 24.392 104.052 24.392C104.91 24.392 105.548 24.942 105.548 25.877C105.548 26.779 104.899 27.263 104.349 27.505C103.634 27.824 102.303 28.22 100.917 28.22ZM98.684 20.784H102.655C102.754 19.563 101.929 18.76 100.664 18.76C99.454 18.76 98.772 19.574 98.684 20.784ZM112.696 28.22C109.484 28.22 107.317 26.295 107.108 23.633C107.042 22.808 107.031 21.389 107.097 20.652C107.35 17.869 109.374 15.834 112.597 15.834C115.82 15.834 117.69 17.825 117.69 20.938V21.444C117.69 22.907 117.36 23.116 116.073 23.116H110.452V23.281C110.441 24.337 111.376 25.052 112.806 25.052C113.708 25.052 114.302 24.854 114.643 24.733C115.094 24.579 115.413 24.392 115.831 24.392C116.689 24.392 117.327 24.942 117.327 25.877C117.327 26.779 116.678 27.263 116.128 27.505C115.413 27.824 114.082 28.22 112.696 28.22ZM110.463 20.784H114.434C114.533 19.563 113.708 18.76 112.443 18.76C111.233 18.76 110.551 19.574 110.463 20.784ZM126.26 28C124.61 28 123.73 27.131 123.73 25.47V14.932C123.73 13.282 124.61 12.402 126.26 12.402H133.014C134.147 12.402 134.851 13.084 134.851 14.118C134.851 15.152 134.147 15.834 133.014 15.834H127.459V18.639H132.409C133.454 18.639 134.114 19.277 134.114 20.234C134.114 21.191 133.454 21.829 132.409 21.829H127.459V24.568H133.036C134.169 24.568 134.873 25.25 134.873 26.284C134.873 27.318 134.169 28 133.036 28H126.26ZM139.264 28C137.614 28 136.734 27.12 136.734 25.47V14.932C136.734 13.282 137.614 12.402 139.264 12.402H142.729C146.997 12.402 149.703 15.086 150 18.496C150.099 19.64 150.099 20.762 150 21.906C149.692 25.316 146.997 28 142.729 28H139.264ZM140.474 24.502H142.619C145.039 24.502 146.161 23.215 146.271 21.4C146.315 20.641 146.326 19.761 146.271 19.002C146.15 17.187 145.039 15.9 142.619 15.9H140.474V24.502ZM163.676 12.292C164.798 12.292 165.535 13.04 165.535 14.283V21.103C165.535 25.393 162.818 28.22 158.682 28.22C154.568 28.22 151.862 25.393 151.862 21.103V14.283C151.862 13.04 152.599 12.292 153.721 12.292C154.843 12.292 155.58 13.04 155.58 14.283V21.411C155.58 23.512 156.878 24.788 158.704 24.788C160.519 24.788 161.817 23.512 161.817 21.411V14.283C161.817 13.04 162.554 12.292 163.676 12.292Z" fill="#262626"/>
<defs>
<clipPath id="clip0_553_5529">
<rect width="44" height="38" fill="white" transform="translate(1 1)"/>
</clipPath>
</defs>
</svg>
