<svg width="20" height="20" viewBox="0 0 20 20" fill="none" xmlns="http://www.w3.org/2000/svg">
<g id="Frame" clip-path="url(#clip0_1218_5831)">
<path id="Vector" d="M3.33594 11.6667V9.16667C3.33594 7.39856 4.03832 5.70286 5.28856 4.45262C6.5388 3.20238 8.23449 2.5 10.0026 2.5C11.7707 2.5 13.4664 3.20238 14.7166 4.45262C15.9669 5.70286 16.6693 7.39856 16.6693 9.16667V11.6667" stroke="black" stroke-width="1.25" stroke-linecap="round" stroke-linejoin="round"/>
<path id="Vector_2" d="M15 15.834C15 17.2148 12.7617 18.334 10 18.334" stroke="black" stroke-width="1.25" stroke-linecap="round" stroke-linejoin="round"/>
<path id="Vector_3" d="M3.33594 11.6667C3.33594 11.2246 3.51153 10.8007 3.82409 10.4882C4.13665 10.1756 4.56058 10 5.0026 10H5.83594C6.27796 10 6.70189 10.1756 7.01445 10.4882C7.32701 10.8007 7.5026 11.2246 7.5026 11.6667V14.1667C7.5026 14.6087 7.32701 15.0326 7.01445 15.3452C6.70189 15.6577 6.27796 15.8333 5.83594 15.8333H5.0026C4.56058 15.8333 4.13665 15.6577 3.82409 15.3452C3.51153 15.0326 3.33594 14.6087 3.33594 14.1667V11.6667Z" stroke="black" stroke-width="1.25" stroke-linecap="round" stroke-linejoin="round"/>
<path id="Vector_4" d="M12.5 11.6667C12.5 11.2246 12.6756 10.8007 12.9882 10.4882C13.3007 10.1756 13.7246 10 14.1667 10H15C15.442 10 15.866 10.1756 16.1785 10.4882C16.4911 10.8007 16.6667 11.2246 16.6667 11.6667V14.1667C16.6667 14.6087 16.4911 15.0326 16.1785 15.3452C15.866 15.6577 15.442 15.8333 15 15.8333H14.1667C13.7246 15.8333 13.3007 15.6577 12.9882 15.3452C12.6756 15.0326 12.5 14.6087 12.5 14.1667V11.6667Z" stroke="black" stroke-width="1.25" stroke-linecap="round" stroke-linejoin="round"/>
</g>
<defs>
<clipPath id="clip0_1218_5831">
<rect width="20" height="20" fill="white"/>
</clipPath>
</defs>
</svg>
