<svg width="16" height="16" viewBox="0 0 16 16" fill="none" xmlns="http://www.w3.org/2000/svg">
<g id="Frame">
<path id="Vector" d="M5.9987 2H9.9987L11.332 3.33333H13.9987C14.3669 3.33333 14.6654 3.63181 14.6654 4V13.3333C14.6654 13.7015 14.3669 14 13.9987 14H1.9987C1.63051 14 1.33203 13.7015 1.33203 13.3333V4C1.33203 3.63181 1.63051 3.33333 1.9987 3.33333H4.66536L5.9987 2ZM7.9987 12.6667C10.2078 12.6667 11.9987 10.8758 11.9987 8.66667C11.9987 6.45753 10.2078 4.66667 7.9987 4.66667C5.78956 4.66667 3.9987 6.45753 3.9987 8.66667C3.9987 10.8758 5.78956 12.6667 7.9987 12.6667ZM7.9987 11.3333C6.52594 11.3333 5.33203 10.1394 5.33203 8.66667C5.33203 7.19393 6.52594 6 7.9987 6C9.47143 6 10.6654 7.19393 10.6654 8.66667C10.6654 10.1394 9.47143 11.3333 7.9987 11.3333Z" fill="#8D99A8"/>
</g>
</svg>
