<svg width="28" height="24" viewBox="0 0 28 24" fill="none" xmlns="http://www.w3.org/2000/svg">
<g id="Frame 548">
<g id="Group 196">
<path id="Vector" d="M11.4884 9.02969C12.0235 9.02969 12.4573 8.54341 12.4573 7.94355C12.4573 7.3437 12.0235 6.85742 11.4884 6.85742C10.9533 6.85742 10.5195 7.3437 10.5195 7.94355C10.5195 8.54341 10.9533 9.02969 11.4884 9.02969Z" fill="#FDB022"/>
<path id="Vector_2" d="M11.8445 7.70203C11.9636 7.70203 12.0601 7.60478 12.0601 7.4848C12.0601 7.36483 11.9636 7.26758 11.8445 7.26758C11.7254 7.26758 11.6289 7.36483 11.6289 7.4848C11.6289 7.60478 11.7254 7.70203 11.8445 7.70203Z" fill="#FDB022"/>
<path id="Vector_3" d="M16.5236 9.02969C17.0587 9.02969 17.4925 8.54341 17.4925 7.94355C17.4925 7.3437 17.0587 6.85742 16.5236 6.85742C15.9885 6.85742 15.5547 7.3437 15.5547 7.94355C15.5547 8.54341 15.9885 9.02969 16.5236 9.02969Z" fill="#FDB022"/>
<path id="Vector_4" d="M16.1648 7.70203C16.2839 7.70203 16.3805 7.60478 16.3805 7.4848C16.3805 7.36483 16.2839 7.26758 16.1648 7.26758C16.0458 7.26758 15.9492 7.36483 15.9492 7.4848C15.9492 7.60478 16.0458 7.70203 16.1648 7.70203Z" fill="#FDB022"/>
<path id="Vector_5" d="M23.6932 9.92141H20.9993V9.90731C20.9825 7.39087 19.6552 5.19322 17.6754 3.96039L18.1458 3.13944C18.353 2.77551 18.2298 2.31285 17.8686 2.10127C17.5074 1.8925 17.0481 2.01663 16.8381 2.38056L16.3088 3.30589C15.5864 3.05198 14.8107 2.90529 14.0014 2.90529C13.1921 2.90529 12.4164 3.05198 11.694 3.30589L11.1647 2.38056C10.9575 2.01663 10.4955 1.8925 10.1342 2.10127C9.77298 2.31003 9.64977 2.77551 9.85699 3.13944L10.3274 3.96039C8.34483 5.19604 7.0203 7.39087 7.0035 9.90731H7.0007V9.92141H4.30683C1.92659 9.92141 0 11.8652 0 14.2603C0 16.6554 1.92939 18.5992 4.30683 18.5992C5.68457 18.5992 6.91109 17.9447 7.69797 16.9291C8.63046 18.8813 10.4226 20.337 12.5845 20.7827L13.5282 22.1115C13.7606 22.4387 14.245 22.4387 14.4746 22.1115L15.4183 20.7827C17.5802 20.3342 19.3695 18.8813 20.3048 16.9319C21.0945 17.9447 22.3182 18.5992 23.6932 18.5992C26.0734 18.5992 28 16.6554 28 14.2603C28 11.8652 26.0706 9.92141 23.6932 9.92141ZM19.3667 14.2603H8.63326C8.62486 14.1333 8.61366 14.0064 8.61366 13.8766V11.5464H19.3835V13.9105C19.3835 14.029 19.3751 14.1446 19.3667 14.2603ZM14.0014 4.53025C16.9641 4.53025 19.3667 6.94231 19.3835 9.92141H8.61646C8.63326 6.93949 11.0359 4.53025 13.9986 4.53025H14.0014ZM4.30403 16.9742C2.81708 16.9742 1.61016 15.7611 1.61016 14.2603C1.61016 12.7595 2.81428 11.5464 4.30403 11.5464H6.9979V13.8766V14.2603C6.9979 15.7583 5.79378 16.9742 4.30403 16.9742ZM13.9986 19.3045C11.7304 19.3045 9.79258 17.8883 9.0001 15.8909H18.9971C18.2046 17.8911 16.2668 19.3045 13.9986 19.3045ZM23.6904 16.9742C22.2034 16.9742 20.9965 15.7611 20.9965 14.2603V13.9105C20.9965 13.9105 20.9965 13.8879 20.9965 13.8766V11.5464H23.6904C25.1773 11.5464 26.3842 12.7595 26.3842 14.2603C26.3842 15.7611 25.1773 16.9742 23.6904 16.9742Z" fill="#FDB022"/>
</g>
</g>
</svg>
