<svg width="28" height="20" viewBox="0 0 28 20" fill="none" xmlns="http://www.w3.org/2000/svg">
<g id="bizbee symbol" clip-path="url(#clip0_698_5949)">
<path id="Vector" d="M11.5826 6.96557C12.0986 6.96557 12.5168 6.4967 12.5168 5.91833C12.5168 5.33996 12.0986 4.87109 11.5826 4.87109C11.0667 4.87109 10.6484 5.33996 10.6484 5.91833C10.6484 6.4967 11.0667 6.96557 11.5826 6.96557Z" fill="#5F6B7A"/>
<path id="Vector_2" d="M11.9227 5.68257C12.0376 5.68257 12.1306 5.58879 12.1306 5.47312C12.1306 5.35744 12.0376 5.26367 11.9227 5.26367C11.8079 5.26367 11.7148 5.35744 11.7148 5.47312C11.7148 5.58879 11.8079 5.68257 11.9227 5.68257Z" fill="#5F6B7A"/>
<path id="Vector_3" d="M16.4342 6.96557C16.9501 6.96557 17.3684 6.4967 17.3684 5.91833C17.3684 5.33996 16.9501 4.87109 16.4342 4.87109C15.9183 4.87109 15.5 5.33996 15.5 5.91833C15.5 6.4967 15.9183 6.96557 16.4342 6.96557Z" fill="#5F6B7A"/>
<path id="Vector_4" d="M16.0907 5.68257C16.2055 5.68257 16.2986 5.58879 16.2986 5.47312C16.2986 5.35744 16.2055 5.26367 16.0907 5.26367C15.9759 5.26367 15.8828 5.35744 15.8828 5.47312C15.8828 5.58879 15.9759 5.68257 16.0907 5.68257Z" fill="#5F6B7A"/>
<path id="Vector_5" d="M23.3486 7.82134H20.7512V7.80774C20.735 5.38141 19.4552 3.26246 17.5463 2.07378L17.9999 1.28223C18.1997 0.931337 18.0809 0.485241 17.7326 0.281234C17.3843 0.079947 16.9415 0.199631 16.739 0.550523L16.2287 1.44271C15.5321 1.19791 14.7842 1.05646 14.0039 1.05646C13.2236 1.05646 12.4757 1.19791 11.7791 1.44271L11.2688 0.550523C11.069 0.199631 10.6235 0.079947 10.2752 0.281234C9.92691 0.482521 9.80811 0.931337 10.0079 1.28223L10.4615 2.07378C8.54991 3.26518 7.27281 5.38141 7.25661 7.80774H7.25391V7.82134H4.65651C2.36151 7.82134 0.503906 9.69548 0.503906 12.0048C0.503906 14.3142 2.36421 16.1883 4.65651 16.1883C5.98491 16.1883 7.16751 15.5573 7.92621 14.5781C8.82531 16.4604 10.5533 17.8639 12.6377 18.2937L13.5476 19.5749C13.7717 19.8904 14.2388 19.8904 14.4602 19.5749L15.3701 18.2937C17.4545 17.8612 19.1798 16.4604 20.0816 14.5808C20.843 15.5573 22.0229 16.1883 23.3486 16.1883C25.6436 16.1883 27.5012 14.3142 27.5012 12.0048C27.5012 9.69548 25.6409 7.82134 23.3486 7.82134ZM19.1771 12.0048H8.82801C8.81991 11.8824 8.80911 11.76 8.80911 11.6349V9.38811H19.1933V11.6675C19.1933 11.7818 19.1852 11.8933 19.1771 12.0048ZM14.0039 2.62324C16.8605 2.62324 19.1771 4.94892 19.1933 7.82134H8.81181C8.82801 4.9462 11.1446 2.62324 14.0012 2.62324H14.0039ZM4.65381 14.6216C3.22011 14.6216 2.05641 13.4519 2.05641 12.0048C2.05641 10.5578 3.21741 9.38811 4.65381 9.38811H7.25121V11.6349V12.0048C7.25121 13.4492 6.09021 14.6216 4.65381 14.6216ZM14.0012 16.8684C11.8142 16.8684 9.94581 15.5029 9.18171 13.5771H18.8207C18.0566 15.5056 16.1882 16.8684 14.0012 16.8684ZM23.3459 14.6216C21.9122 14.6216 20.7485 13.4519 20.7485 12.0048V11.6675C20.7485 11.6675 20.7485 11.6458 20.7485 11.6349V9.38811H23.3459C24.7796 9.38811 25.9433 10.5578 25.9433 12.0048C25.9433 13.4519 24.7796 14.6216 23.3459 14.6216Z" fill="#5F6B7A"/>
</g>
<defs>
<clipPath id="clip0_698_5949">
<rect width="27" height="19.6364" fill="white" transform="translate(0.5 0.181641)"/>
</clipPath>
</defs>
</svg>
