<svg width="187" height="40" viewBox="0 0 187 40" fill="none" xmlns="http://www.w3.org/2000/svg">
<g clip-path="url(#clip0_784_1148)">
<path d="M6.11291 27.3399C3.88781 28.6698 3.14404 31.574 4.45803 33.8259C5.77202 36.0778 8.64172 36.8305 10.8668 35.5007C13.0919 34.1709 13.8357 31.2667 12.5217 29.0148L10.1416 24.9375L6.11291 27.3462V27.3399Z" fill="#E0E0E0"/>
<path d="M12.5586 23.488L14.6163 27.0132C17.2443 31.517 22.9837 33.0162 27.4339 30.3566C31.8841 27.6969 33.3655 21.8884 30.7375 17.3846L28.6797 13.8594L12.5586 23.488Z" fill="#FDC315"/>
<path d="M35.1326 10.0083C37.3577 8.67846 40.2274 9.42491 41.5414 11.6831C42.8554 13.935 42.1178 16.8392 39.8865 18.1691C37.6552 19.4989 34.7917 18.7524 33.4777 16.4942L31.0977 12.417L35.1264 10.0083H35.1326Z" fill="#E0E0E0"/>
<path d="M14.4556 8.08764C10.0054 10.7473 8.52408 16.5558 11.1521 21.0596L27.2732 11.431C24.6452 6.92719 18.9058 5.42801 14.4556 8.08764Z" fill="white"/>
<path d="M14.657 17.1325C15.4589 16.6537 15.6832 15.535 15.1579 14.6339C14.6326 13.7329 13.5566 13.3905 12.7547 13.8694C11.9528 14.3482 11.7286 15.4668 12.2539 16.3679C12.7792 17.269 13.8551 17.6113 14.657 17.1325Z" fill="#262626"/>
<path d="M13.8309 14.8621C14.0363 14.8621 14.2028 14.6936 14.2028 14.4857C14.2028 14.2779 14.0363 14.1094 13.8309 14.1094C13.6255 14.1094 13.459 14.2779 13.459 14.4857C13.459 14.6936 13.6255 14.8621 13.8309 14.8621Z" fill="white"/>
<path d="M22.1941 12.6325C22.996 12.1537 23.2203 11.035 22.695 10.1339C22.1697 9.23285 21.0938 8.89054 20.2918 9.36935C19.4899 9.84817 19.2657 10.9668 19.791 11.8679C20.3163 12.769 21.3922 13.1113 22.1941 12.6325Z" fill="#262626"/>
<path d="M20.3074 10.993C20.5128 10.993 20.6793 10.8245 20.6793 10.6166C20.6793 10.4087 20.5128 10.2402 20.3074 10.2402C20.102 10.2402 19.9355 10.4087 19.9355 10.6166C19.9355 10.8245 20.102 10.993 20.3074 10.993Z" fill="white"/>
<path d="M33.7073 7.55502L29.6785 9.96373L29.6662 9.93864C27.4349 6.16875 23.5239 4.05485 19.4704 3.96704L19.4518 2.31104C19.4456 1.58341 18.8567 0.993777 18.1316 1.00005C17.4064 1.00632 16.8238 1.6085 16.8362 2.33613L16.8548 4.19912C15.547 4.46258 14.2578 4.9393 13.0492 5.66066C11.8405 6.38202 10.8055 7.29784 9.94394 8.32656L8.33864 7.41075C7.70644 7.0532 6.90689 7.27275 6.5536 7.91256C6.20032 8.55238 6.41725 9.36155 7.04945 9.7191L8.475 10.5345C6.59079 14.1602 6.52881 18.6514 8.71053 22.4527L8.72292 22.4778L4.69419 24.8865C1.12411 27.0192 -0.0597203 31.661 2.04142 35.2678C4.14256 38.8746 8.73532 40.0727 12.2992 37.9462C14.3632 36.7105 15.6214 34.6342 15.9127 32.4012C19.0179 34.5025 22.9785 35.0922 26.6105 33.8313L29.1889 34.9855C29.8211 35.2678 30.5463 34.8412 30.6083 34.1387L30.8562 31.2972C33.7011 28.694 35.1018 24.9053 34.7919 21.1354C36.8621 21.9571 39.2669 21.8442 41.3309 20.6148C44.8948 18.4883 46.0786 13.8403 43.9775 10.2335C41.8763 6.62666 37.2836 5.42857 33.7197 7.55502H33.7073ZM31.0359 17.9489L14.9706 27.5461C14.8466 27.3642 14.7164 27.1823 14.6049 26.9878L12.5595 23.4877L28.6807 13.8591L30.726 17.3655L30.757 17.4157C30.8562 17.5913 30.9491 17.7732 31.0359 17.9551V17.9489ZM14.4685 8.11329C18.9063 5.46621 24.6147 6.94029 27.2551 11.4065L11.134 21.035C8.54938 16.5375 10.0307 10.7604 14.4685 8.11329ZM10.8675 35.4936C8.64235 36.8234 5.77265 36.077 4.45866 33.8188C3.14467 31.5606 3.88224 28.6626 6.11354 27.3328L10.1423 24.9241L12.1876 28.4306L12.5223 29.0076C13.8363 31.2595 13.0988 34.1638 10.8675 35.4936ZM27.4225 30.3312C24.0259 32.3573 19.8856 31.9621 16.9415 29.6663L31.9098 20.7277C32.4739 24.4474 30.819 28.3051 27.4225 30.3312ZM39.8867 18.1621C37.6616 19.492 34.7919 18.7455 33.478 16.4873L33.1743 15.9604C33.1743 15.9604 33.1557 15.9228 33.1495 15.9102L31.1041 12.4101L35.1328 10.0014C37.3579 8.67156 40.2276 9.41801 41.5416 11.6762C42.8556 13.9343 42.118 16.8323 39.8867 18.1621Z" fill="#262626"/>
</g>
<path d="M65.045 20.366C65.122 21.246 65.122 22.786 65.045 23.688C64.814 26.35 62.834 28.22 59.776 28.22C57.378 28.22 55.629 27.494 54.925 27.01C54.485 26.702 54.309 26.394 54.309 25.778V13.964C54.309 12.765 55.035 12.039 56.124 12.039C57.213 12.039 57.939 12.765 57.939 13.964V16.274C58.511 16.01 59.435 15.834 60.216 15.834C62.834 15.834 64.814 17.704 65.045 20.366ZM57.939 24.326C58.313 24.59 58.995 24.744 59.589 24.744C60.799 24.744 61.382 23.996 61.459 22.962C61.503 22.39 61.514 21.796 61.459 21.092C61.382 20.058 60.799 19.31 59.589 19.31C58.995 19.31 58.313 19.464 57.939 19.728V24.326ZM68.526 11.236C69.637 11.236 70.484 12.083 70.484 13.194C70.484 14.338 69.637 15.196 68.526 15.196C67.415 15.196 66.568 14.338 66.568 13.194C66.568 12.083 67.415 11.236 68.526 11.236ZM66.722 26.185V17.869C66.722 16.67 67.448 15.944 68.537 15.944C69.626 15.944 70.352 16.67 70.352 17.869V26.185C70.352 27.384 69.626 28.11 68.537 28.11C67.448 28.11 66.722 27.384 66.722 26.185ZM79.9705 24.634C81.1585 24.634 81.7965 25.305 81.7965 26.317C81.7965 27.329 81.1585 28 79.9705 28H73.3375C72.2375 28 71.6545 27.384 71.6545 26.471C71.6545 25.756 71.9405 25.316 72.3805 24.788L76.8685 19.398L73.7665 19.409C72.5785 19.409 71.9405 18.727 71.9405 17.726C71.9405 16.725 72.5785 16.054 73.7665 16.054H80.0145C81.0155 16.054 81.7415 16.483 81.7415 17.539C81.7415 18.342 81.4225 18.859 80.9495 19.42L76.6045 24.634H79.9705ZM93.938 20.366C94.015 21.246 94.015 22.786 93.938 23.688C93.707 26.35 91.727 28.22 88.669 28.22C86.271 28.22 84.522 27.494 83.818 27.01C83.378 26.702 83.202 26.394 83.202 25.778V13.964C83.202 12.765 83.928 12.039 85.017 12.039C86.106 12.039 86.832 12.765 86.832 13.964V16.274C87.404 16.01 88.328 15.834 89.109 15.834C91.727 15.834 93.707 17.704 93.938 20.366ZM86.832 24.326C87.206 24.59 87.888 24.744 88.482 24.744C89.692 24.744 90.275 23.996 90.352 22.962C90.396 22.39 90.407 21.796 90.352 21.092C90.275 20.058 89.692 19.31 88.482 19.31C87.888 19.31 87.206 19.464 86.832 19.728V24.326ZM100.917 28.22C97.705 28.22 95.538 26.295 95.329 23.633C95.263 22.808 95.252 21.389 95.318 20.652C95.571 17.869 97.595 15.834 100.818 15.834C104.041 15.834 105.911 17.825 105.911 20.938V21.444C105.911 22.907 105.581 23.116 104.294 23.116H98.673V23.281C98.662 24.337 99.597 25.052 101.027 25.052C101.929 25.052 102.523 24.854 102.864 24.733C103.315 24.579 103.634 24.392 104.052 24.392C104.91 24.392 105.548 24.942 105.548 25.877C105.548 26.779 104.899 27.263 104.349 27.505C103.634 27.824 102.303 28.22 100.917 28.22ZM98.684 20.784H102.655C102.754 19.563 101.929 18.76 100.664 18.76C99.454 18.76 98.772 19.574 98.684 20.784ZM112.696 28.22C109.484 28.22 107.317 26.295 107.108 23.633C107.042 22.808 107.031 21.389 107.097 20.652C107.35 17.869 109.374 15.834 112.597 15.834C115.82 15.834 117.69 17.825 117.69 20.938V21.444C117.69 22.907 117.36 23.116 116.073 23.116H110.452V23.281C110.441 24.337 111.376 25.052 112.806 25.052C113.708 25.052 114.302 24.854 114.643 24.733C115.094 24.579 115.413 24.392 115.831 24.392C116.689 24.392 117.327 24.942 117.327 25.877C117.327 26.779 116.678 27.263 116.128 27.505C115.413 27.824 114.082 28.22 112.696 28.22ZM110.463 20.784H114.434C114.533 19.563 113.708 18.76 112.443 18.76C111.233 18.76 110.551 19.574 110.463 20.784ZM130.253 28.22C126.447 28.22 123.543 25.547 123.257 21.906C123.169 20.773 123.18 19.64 123.268 18.496C123.543 14.855 126.447 12.182 130.253 12.182C134.048 12.182 136.996 14.855 137.249 18.496C137.326 19.629 137.326 20.762 137.238 21.906C136.963 25.547 134.048 28.22 130.253 28.22ZM126.953 18.925C126.909 19.75 126.909 20.63 126.964 21.477C127.085 23.512 128.394 24.788 130.253 24.788C132.09 24.788 133.41 23.512 133.542 21.477C133.597 20.652 133.575 19.772 133.52 18.925C133.388 16.879 132.09 15.614 130.253 15.614C128.394 15.614 127.063 16.89 126.953 18.925ZM141.767 28.11C140.678 28.11 139.952 27.384 139.952 26.185V20.036H139.644C138.764 20.036 138.104 19.376 138.104 18.452C138.104 17.528 138.764 16.868 139.644 16.868H139.952V16.307C139.952 13.337 141.668 12.039 144.484 12.039C144.946 12.039 145.87 12.149 146.332 12.281C147.311 12.556 147.905 13.029 147.905 13.975C147.905 14.8 147.344 15.449 146.486 15.449C146.288 15.449 146.035 15.416 145.76 15.35C145.353 15.251 145.012 15.229 144.814 15.229C143.934 15.229 143.582 15.724 143.582 16.593V16.868H145.265C146.277 16.868 146.915 17.528 146.915 18.452C146.915 19.376 146.277 20.036 145.265 20.036H143.582V26.185C143.582 27.384 142.856 28.11 141.767 28.11ZM150.668 28.11C149.579 28.11 148.853 27.384 148.853 26.185V20.036H148.545C147.665 20.036 147.005 19.376 147.005 18.452C147.005 17.528 147.665 16.868 148.545 16.868H148.853V16.307C148.853 13.337 150.569 12.039 153.385 12.039C153.847 12.039 154.771 12.149 155.233 12.281C156.212 12.556 156.806 13.029 156.806 13.975C156.806 14.8 156.245 15.449 155.387 15.449C155.189 15.449 154.936 15.416 154.661 15.35C154.254 15.251 153.913 15.229 153.715 15.229C152.835 15.229 152.483 15.724 152.483 16.593V16.868H154.166C155.178 16.868 155.816 17.528 155.816 18.452C155.816 19.376 155.178 20.036 154.166 20.036H152.483V26.185C152.483 27.384 151.757 28.11 150.668 28.11ZM157.279 13.194C157.279 12.083 158.126 11.236 159.237 11.236C160.348 11.236 161.195 12.083 161.195 13.194C161.195 14.338 160.348 15.196 159.237 15.196C158.126 15.196 157.279 14.338 157.279 13.194ZM157.433 26.185V17.869C157.433 16.67 158.159 15.944 159.248 15.944C160.337 15.944 161.063 16.67 161.063 17.869V26.185C161.063 27.384 160.337 28.11 159.248 28.11C158.159 28.11 157.433 27.384 157.433 26.185ZM166.316 21.07C166.261 21.741 166.261 22.313 166.316 22.984C166.404 24.029 167.108 24.744 168.219 24.744C169.066 24.744 169.561 24.337 169.902 23.941C170.199 23.589 170.584 23.105 171.409 23.072C172.388 23.039 173.202 23.688 173.202 24.744C173.202 25.327 172.971 25.811 172.729 26.152C171.981 27.208 170.529 28.22 168.153 28.22C165.117 28.22 162.961 26.306 162.719 23.644C162.642 22.797 162.653 21.268 162.73 20.41C162.972 17.748 165.117 15.834 168.153 15.834C170.529 15.834 171.959 16.846 172.718 17.902C172.96 18.243 173.202 18.727 173.202 19.31C173.202 20.366 172.388 21.004 171.409 20.982C170.617 20.96 170.232 20.509 169.902 20.113C169.561 19.706 169.066 19.31 168.219 19.31C167.108 19.31 166.404 20.025 166.316 21.07ZM179.871 28.22C176.659 28.22 174.492 26.295 174.283 23.633C174.217 22.808 174.206 21.389 174.272 20.652C174.525 17.869 176.549 15.834 179.772 15.834C182.995 15.834 184.865 17.825 184.865 20.938V21.444C184.865 22.907 184.535 23.116 183.248 23.116H177.627V23.281C177.616 24.337 178.551 25.052 179.981 25.052C180.883 25.052 181.477 24.854 181.818 24.733C182.269 24.579 182.588 24.392 183.006 24.392C183.864 24.392 184.502 24.942 184.502 25.877C184.502 26.779 183.853 27.263 183.303 27.505C182.588 27.824 181.257 28.22 179.871 28.22ZM177.638 20.784H181.609C181.708 19.563 180.883 18.76 179.618 18.76C178.408 18.76 177.726 19.574 177.638 20.784Z" fill="#262626"/>
<defs>
<clipPath id="clip0_784_1148">
<rect width="44" height="38" fill="white" transform="translate(1 1)"/>
</clipPath>
</defs>
</svg>
