<svg width="94" height="80" viewBox="0 0 94 80" fill="none" xmlns="http://www.w3.org/2000/svg">
<g id="Layer_1" clip-path="url(#clip0_587_3386)">
<path id="Vector" d="M78.4008 27.9109C77.9974 27.9109 77.6014 27.9363 77.2089 27.9727C77.6232 26.3084 77.863 24.5751 77.863 22.7837C77.863 10.8942 68.2227 1.25391 56.3332 1.25391C55.3775 1.25391 54.4437 1.33748 53.5207 1.46103C48.8877 2.07149 44.7162 4.13908 41.4931 7.20957C39.3056 6.26844 36.9001 5.74519 34.3674 5.74519C24.3892 5.74519 16.3041 13.8338 16.3041 23.8084C16.3041 23.8556 16.3114 23.8993 16.3114 23.9465C9.44731 24.5206 3.87318 29.5715 2.48873 36.1703C2.27434 37.1987 2.13989 38.2597 2.13989 39.3535C2.13989 47.8964 9.06576 54.8259 17.6123 54.8259H36.3114V65.9414H29.5381L42.347 78.7503L55.1559 65.9414H48.3826V54.8259V43.7103H41.6094L54.4182 30.9014L67.2271 43.7103H60.4538V54.8259H78.4008C85.8317 54.8259 91.8528 48.8011 91.8528 41.3702C91.8528 33.9392 85.8281 27.9145 78.4008 27.9145V27.9109Z" fill="#FFD230" stroke="#5E6066" stroke-width="3" stroke-linecap="round" stroke-linejoin="round"/>
<path id="Vector_2" d="M69.3637 25.3213C69.7126 23.4717 69.7017 21.524 69.2656 19.5691C67.5469 11.8729 59.9124 7.02186 52.2162 8.74061C52.1799 8.74787 52.1472 8.76241 52.1108 8.76968" stroke="#5E6066" stroke-width="3" stroke-linecap="round" stroke-linejoin="round"/>
<path id="Vector_3" d="M55.1049 41.3359H54.3782V42.0627H55.1049V41.3359Z" stroke="#5E6066" stroke-width="3" stroke-miterlimit="10"/>
<path id="Vector_4" d="M55.1049 47.7266H54.3782V48.4533H55.1049V47.7266Z" stroke="#5E6066" stroke-width="3" stroke-miterlimit="10"/>
<path id="Vector_5" d="M55.1049 54.1133H54.3782V54.84H55.1049V54.1133Z" stroke="#5E6066" stroke-width="3" stroke-miterlimit="10"/>
<path id="Vector_6" d="M42.8666 54.8359H42.1399V55.5627H42.8666V54.8359Z" stroke="#5E6066" stroke-width="3" stroke-miterlimit="10"/>
<path id="Vector_7" d="M42.8666 61.2227H42.1399V61.9494H42.8666V61.2227Z" stroke="#5E6066" stroke-width="3" stroke-miterlimit="10"/>
<path id="Vector_8" d="M42.8666 67.6133H42.1399V68.34H42.8666V67.6133Z" stroke="#5E6066" stroke-width="3" stroke-miterlimit="10"/>
</g>
<defs>
<clipPath id="clip0_587_3386">
<rect width="92.2202" height="80" fill="white" transform="translate(0.889893)"/>
</clipPath>
</defs>
</svg>
