<svg width="98" height="72" viewBox="0 0 98 72" fill="none" xmlns="http://www.w3.org/2000/svg">
<g id="Layer_1" clip-path="url(#clip0_587_3555)">
<path id="Vector" d="M20.8596 56.3633H20.1328V57.0901H20.8596V56.3633Z" stroke="#5E6066" stroke-width="3" stroke-miterlimit="10"/>
<path id="Vector_2" d="M14.4609 56.3633H13.7341V57.0901H14.4609V56.3633Z" stroke="#5E6066" stroke-width="3" stroke-miterlimit="10"/>
<path id="Vector_3" d="M8.0659 56.3633H7.33911V57.0901H8.0659V56.3633Z" stroke="#5E6066" stroke-width="3" stroke-miterlimit="10"/>
<path id="Vector_4" d="M55.7604 56.3633H55.0336V57.0901H55.7604V56.3633Z" stroke="#5E6066" stroke-width="3" stroke-miterlimit="10"/>
<path id="Vector_5" d="M49.3617 56.3633H48.6349V57.0901H49.3617V56.3633Z" stroke="#5E6066" stroke-width="3" stroke-miterlimit="10"/>
<path id="Vector_6" d="M42.9665 56.3633H42.2397V57.0901H42.9665V56.3633Z" stroke="#5E6066" stroke-width="3" stroke-miterlimit="10"/>
<path id="Vector_7" d="M90.3214 56.3633H89.5946V57.0901H90.3214V56.3633Z" stroke="#5E6066" stroke-width="3" stroke-miterlimit="10"/>
<path id="Vector_8" d="M83.9263 56.3633H83.1995V57.0901H83.9263V56.3633Z" stroke="#5E6066" stroke-width="3" stroke-miterlimit="10"/>
<path id="Vector_9" d="M77.5276 56.3633H76.8008V57.0901H77.5276V56.3633Z" stroke="#5E6066" stroke-width="3" stroke-miterlimit="10"/>
<path id="Vector_10" d="M61.3738 1.26172H36.6227C36.544 1.26172 36.4802 1.32549 36.4802 1.40416V19.6434C36.4802 19.722 36.544 19.7858 36.6227 19.7858H61.3738C61.4525 19.7858 61.5162 19.722 61.5162 19.6434V1.40416C61.5162 1.32549 61.4525 1.26172 61.3738 1.26172Z" fill="#FFD230" stroke="#5E6066" stroke-width="3" stroke-linecap="round" stroke-linejoin="round"/>
<path id="Vector_11" d="M41.9001 24.7773H56.1" stroke="#5E6066" stroke-width="3" stroke-linecap="round" stroke-linejoin="round"/>
<path id="Vector_12" d="M49 19.7852V24.7777" stroke="#5E6066" stroke-width="3" stroke-linecap="round" stroke-linejoin="round"/>
<path id="Vector_13" d="M61.3738 47.2266H36.6227C36.544 47.2266 36.4802 47.2903 36.4802 47.369V65.6082C36.4802 65.6869 36.544 65.7507 36.6227 65.7507H61.3738C61.4525 65.7507 61.5162 65.6869 61.5162 65.6082V47.369C61.5162 47.2903 61.4525 47.2266 61.3738 47.2266Z" stroke="#5E6066" stroke-width="3" stroke-linecap="round" stroke-linejoin="round"/>
<path id="Vector_14" d="M41.9001 70.7422H56.1" stroke="#5E6066" stroke-width="3" stroke-linecap="round" stroke-linejoin="round"/>
<path id="Vector_15" d="M49 65.75V70.7426" stroke="#5E6066" stroke-width="3" stroke-linecap="round" stroke-linejoin="round"/>
<path id="Vector_16" d="M95.9385 47.2266H71.1874C71.1087 47.2266 71.0449 47.2903 71.0449 47.369V65.6082C71.0449 65.6869 71.1087 65.7507 71.1874 65.7507H95.9385C96.0172 65.7507 96.0809 65.6869 96.0809 65.6082V47.369C96.0809 47.2903 96.0172 47.2266 95.9385 47.2266Z" stroke="#5E6066" stroke-width="3" stroke-linecap="round" stroke-linejoin="round"/>
<path id="Vector_17" d="M76.4648 70.7422H90.661" stroke="#5E6066" stroke-width="3" stroke-linecap="round" stroke-linejoin="round"/>
<path id="Vector_18" d="M83.561 65.75V70.7426" stroke="#5E6066" stroke-width="3" stroke-linecap="round" stroke-linejoin="round"/>
<path id="Vector_19" d="M26.8128 47.2266H2.06163C1.98296 47.2266 1.91919 47.2903 1.91919 47.369V65.6082C1.91919 65.6869 1.98296 65.7507 2.06163 65.7507H26.8128C26.8914 65.7507 26.9552 65.6869 26.9552 65.6082V47.369C26.9552 47.2903 26.8914 47.2266 26.8128 47.2266Z" stroke="#5E6066" stroke-width="3" stroke-linecap="round" stroke-linejoin="round"/>
<path id="Vector_20" d="M7.33911 70.7422H21.5353" stroke="#5E6066" stroke-width="3" stroke-linecap="round" stroke-linejoin="round"/>
<path id="Vector_21" d="M14.4354 65.75V70.7426" stroke="#5E6066" stroke-width="3" stroke-linecap="round" stroke-linejoin="round"/>
<path id="Vector_22" d="M14.4354 47.2262V36.7188H48.6422H83.5611V47.2262" stroke="#5E6066" stroke-width="3" stroke-linecap="round" stroke-linejoin="round"/>
<path id="Vector_23" d="M49 47.2276V36.7201V24.7773" stroke="#5E6066" stroke-width="3" stroke-linecap="round" stroke-linejoin="round"/>
<path id="Vector_24" d="M56.1219 10.5234H55.3951V11.2502H56.1219V10.5234Z" stroke="#5E6066" stroke-width="3" stroke-miterlimit="10"/>
<path id="Vector_25" d="M49.7268 10.5234H49V11.2502H49.7268V10.5234Z" stroke="#5E6066" stroke-width="3" stroke-miterlimit="10"/>
<path id="Vector_26" d="M43.3281 10.5234H42.6013V11.2502H43.3281V10.5234Z" stroke="#5E6066" stroke-width="3" stroke-miterlimit="10"/>
</g>
<defs>
<clipPath id="clip0_587_3555">
<rect width="96.6817" height="72" fill="white" transform="translate(0.65918)"/>
</clipPath>
</defs>
</svg>
