<svg width="76" height="70" viewBox="0 0 76 70" fill="none" xmlns="http://www.w3.org/2000/svg">
<g id="Layer_1" clip-path="url(#clip0_587_3429)">
<path id="Vector" d="M62.2508 1.13672H1.22876V7.9906H62.2508V1.13672Z" fill="#FFD230" stroke="#5E6066" stroke-width="3" stroke-linecap="round" stroke-linejoin="round"/>
<path id="Vector_2" d="M31.1411 50.0483V44.0421H35.0364C35.4982 41.2616 36.5866 38.6955 38.1599 36.4956L35.4091 33.7448L39.6574 29.4966L42.4082 32.2473C44.6114 30.674 47.1742 29.5889 49.9547 29.1238V25.2285H55.9609V29.1238C58.2334 29.5031 60.3477 30.3145 62.2508 31.4524V7.98828H1.22876V56.0314H37.1671C36.1282 54.2075 35.3926 52.1955 35.0331 50.0483H31.1378H31.1411Z" stroke="#5E6066" stroke-width="3" stroke-linecap="round" stroke-linejoin="round"/>
<path id="Vector_3" d="M70.8791 44.044C70.4174 41.2635 69.3289 38.6975 67.7556 36.4975L70.5064 33.7467L66.2582 29.4985L63.5074 32.2493C63.105 31.9623 62.6762 31.7083 62.2508 31.4544C60.3476 30.3198 58.2334 29.5051 55.9609 29.1258V25.2305H49.9547V29.1258C47.1742 29.5875 44.6081 30.676 42.4081 32.2493L39.6573 29.4985L35.4091 33.7467L38.1599 36.4975C36.5866 38.7008 35.4982 41.2635 35.0364 44.044H31.1411V50.0502H35.0364C35.3926 52.1974 36.1315 54.2127 37.1704 56.0334C37.4772 56.571 37.8037 57.0954 38.1599 57.5968L35.4091 60.3476L39.6573 64.5958L42.4081 61.845C44.6114 63.4183 47.1742 64.5067 49.9547 64.9685V68.8638H55.9609V64.9685C58.7414 64.5067 61.3074 63.4183 63.5107 61.845L66.2615 64.5958L70.5097 60.3476L67.7589 57.5968C69.3322 55.3935 70.4174 52.8307 70.8824 50.0469H74.7777V44.0407H70.8824L70.8791 44.044ZM52.9561 57.2801C47.3061 57.2801 42.7248 52.6988 42.7248 47.0488C42.7248 41.3988 47.3061 36.8174 52.9561 36.8174C58.6061 36.8174 63.1875 41.3988 63.1875 47.0488C63.1875 52.6988 58.6061 57.2801 52.9561 57.2801Z" fill="#FFD230" stroke="#5E6066" stroke-width="3" stroke-linecap="round" stroke-linejoin="round"/>
<path id="Vector_4" d="M52.9562 36.8164C47.3062 36.8164 42.7249 41.3978 42.7249 47.0478C42.7249 52.6978 47.3062 57.2791 52.9562 57.2791C58.6062 57.2791 63.1876 52.6978 63.1876 47.0478C63.1876 41.3978 58.6062 36.8164 52.9562 36.8164Z" stroke="#5E6066" stroke-width="3" stroke-linecap="round" stroke-linejoin="round"/>
<path id="Vector_5" d="M5.27588 12.9102H14.6398" stroke="#5E6066" stroke-width="3" stroke-linejoin="round"/>
<path id="Vector_6" d="M9.95605 21.9141H19.32" stroke="#5E6066" stroke-width="3" stroke-linejoin="round"/>
<path id="Vector_7" d="M33.3641 17.3945H14.6396" stroke="#5E6066" stroke-width="3" stroke-linejoin="round"/>
<path id="Vector_8" d="M5.27588 26.4336H14.6398" stroke="#5E6066" stroke-width="3" stroke-linejoin="round"/>
<path id="Vector_9" d="M9.95605 35.4414H19.32" stroke="#5E6066" stroke-width="3" stroke-linejoin="round"/>
<path id="Vector_10" d="M33.3641 30.9219H14.6396" stroke="#5E6066" stroke-width="3" stroke-linejoin="round"/>
<path id="Vector_11" d="M17.2354 17.3945H9.95605" stroke="#5E6066" stroke-width="3" stroke-linejoin="round"/>
<path id="Vector_12" d="M17.2354 30.9219H9.95605" stroke="#5E6066" stroke-width="3" stroke-linejoin="round"/>
<path id="Vector_13" d="M54.1171 3.47266H51.9402V5.65284H54.1171V3.47266Z" fill="#5E6066"/>
<path id="Vector_14" d="M57.0262 3.47266H54.8494V5.65284H57.0262V3.47266Z" fill="#5E6066"/>
<path id="Vector_15" d="M59.9287 3.47266H57.7485V5.65284H59.9287V3.47266Z" fill="#5E6066"/>
</g>
<defs>
<clipPath id="clip0_587_3429">
<rect width="75.8182" height="70" fill="white" transform="translate(0.0908203)"/>
</clipPath>
</defs>
</svg>
