<svg width="88" height="80" viewBox="0 0 88 80" fill="none" xmlns="http://www.w3.org/2000/svg">
<g id="Layer_1" clip-path="url(#clip0_587_3474)">
<path id="Vector" d="M1.42737 56.0276C1.42737 59.1384 3.94897 61.66 7.05973 61.66H80.9403C84.0511 61.66 86.5727 59.1384 86.5727 56.0276V49.543H1.42737V56.0276Z" stroke="#5E6066" stroke-width="3" stroke-linecap="round" stroke-linejoin="round"/>
<path id="Vector_2" d="M80.9403 1.35547H7.05973C3.94897 1.35547 1.42737 3.87707 1.42737 6.98783V49.5448H6.63947V6.42224H81.3606V49.5448H86.5727V6.98783C86.5727 3.87707 84.0511 1.35547 80.9403 1.35547Z" fill="#FFD230" stroke="#5E6066" stroke-width="3" stroke-linecap="round" stroke-linejoin="round"/>
<path id="Vector_3" d="M6.6394 6.42188V47.6081V49.5444H81.3605V6.42188H6.6394Z" stroke="#5E6066" stroke-width="3" stroke-linecap="round" stroke-linejoin="round"/>
<path id="Vector_4" d="M32.5271 61.625V74.5826C32.5271 76.8253 30.7086 78.6439 28.4658 78.6439H52.5624" stroke="#5E6066" stroke-width="3" stroke-linecap="round" stroke-linejoin="round"/>
<path id="Vector_5" d="M33.9961 78.6439H58.0927C55.85 78.6439 54.0314 76.8253 54.0314 74.5826V61.625" stroke="#5E6066" stroke-width="3" stroke-linecap="round" stroke-linejoin="round"/>
<path id="Vector_6" d="M19.3967 41.7656H64.7384" stroke="#5E6066" stroke-width="3" stroke-linecap="round" stroke-linejoin="round"/>
<path id="Vector_7" d="M39.5695 16.625H32.0361V41.7664H39.5695V16.625Z" fill="#FFD230" stroke="#5E6066" stroke-width="3" stroke-linecap="round" stroke-linejoin="round"/>
<path id="Vector_8" d="M24.2199 33.7773H16.6865V41.7663H24.2199V33.7773Z" stroke="#5E6066" stroke-width="3" stroke-linecap="round" stroke-linejoin="round"/>
<path id="Vector_9" d="M54.9191 27.6797H47.3857V41.7685H54.9191V27.6797Z" stroke="#5E6066" stroke-width="3" stroke-linecap="round" stroke-linejoin="round"/>
<path id="Vector_10" d="M70.1586 23.2266H62.6252V41.7654H70.1586V23.2266Z" fill="#FFD230" stroke="#5E6066" stroke-width="3" stroke-linecap="round" stroke-linejoin="round"/>
</g>
<defs>
<clipPath id="clip0_587_3474">
<rect width="87.8555" height="80" fill="white" transform="translate(0.0722656)"/>
</clipPath>
</defs>
</svg>
