<svg width="68" height="60" viewBox="0 0 68 60" fill="none" xmlns="http://www.w3.org/2000/svg">
<g id="Layer_1" clip-path="url(#clip0_587_3445)">
<path id="Vector" d="M5.04643 1.01562C7.08328 1.01562 8.73398 2.66633 8.73398 4.70317V11.306H1.35889V4.70317C1.35889 2.66633 3.00959 1.01562 5.04643 1.01562Z" fill="#FFD230" stroke="#5E6066" stroke-width="3" stroke-linecap="round" stroke-linejoin="round"/>
<path id="Vector_2" d="M22.3935 13.892H44.8902V5.29359C44.8902 2.94135 42.983 1.03125 40.6278 1.03125H4.70154C7.05379 1.03125 8.96388 2.9384 8.96388 5.29359V36.3887C8.96388 38.7439 10.874 40.651 13.2292 40.651H13.5564C15.997 40.651 17.9749 38.6171 17.9749 36.1116V18.3135C17.9749 15.8728 19.9528 13.892 22.3965 13.892H22.3935Z" stroke="#5E6066" stroke-width="3" stroke-linejoin="round"/>
<path id="Vector_3" d="M62.2019 58.9845V58.9609C62.1194 58.9668 62.0398 58.9845 61.9543 58.9845H62.2019Z" stroke="#5E6066" stroke-width="6.9" stroke-linecap="round" stroke-linejoin="round"/>
<path id="Vector_4" d="M36.3626 54.2945V52.3726H62.199V18.7513C62.199 16.069 60.0236 13.8906 57.3383 13.8906H21.9543C24.6367 13.8906 26.8151 16.066 26.8151 18.7513V54.1235C26.8151 56.8059 28.9905 58.9842 31.6758 58.9842C34.3611 58.9842 36.3626 56.8855 36.3626 54.2974V54.2945Z" stroke="#5E6066" stroke-width="3" stroke-linecap="round" stroke-linejoin="round"/>
<path id="Vector_5" d="M62.2019 52.375H36.3655V54.2969C36.3655 56.8849 34.2668 58.9837 31.6787 58.9837H61.9573C62.0427 58.9837 62.1223 58.9631 62.2049 58.9601C64.675 58.8275 66.6441 56.8024 66.6441 54.2969V52.375H62.2049H62.2019Z" fill="#FFD230" stroke="#5E6066" stroke-width="3" stroke-linecap="round" stroke-linejoin="round"/>
<path id="Vector_6" d="M32.2682 20.2695H42.0928" stroke="#5E6066" stroke-width="3" stroke-linejoin="round"/>
<path id="Vector_7" d="M37.182 29.2969H47.0066" stroke="#5E6066" stroke-width="3" stroke-linejoin="round"/>
<path id="Vector_8" d="M37.182 24.7656H56.8342" stroke="#5E6066" stroke-width="3" stroke-linejoin="round"/>
<path id="Vector_9" d="M32.2682 33.8281H42.0928" stroke="#5E6066" stroke-width="3" stroke-linejoin="round"/>
<path id="Vector_10" d="M37.182 42.8516H47.0066" stroke="#5E6066" stroke-width="3" stroke-linejoin="round"/>
<path id="Vector_11" d="M37.182 38.3242H56.8342" stroke="#5E6066" stroke-width="3" stroke-linejoin="round"/>
<path id="Vector_12" d="M32.2682 47.3828H42.0928" stroke="#5E6066" stroke-width="3" stroke-linejoin="round"/>
<path id="Vector_13" d="M14.1783 5.30078H24.003" stroke="#5E6066" stroke-width="3" stroke-linejoin="round"/>
<path id="Vector_14" d="M19.0891 9.79688H38.7442" stroke="#5E6066" stroke-width="3" stroke-linejoin="round"/>
<path id="Vector_15" d="M26.7855 25.3864V18.7512C26.7855 16.1425 24.7251 14.032 22.1459 13.9141C19.8084 14.032 17.9425 15.945 17.9425 18.312V36.1101C17.9425 38.6156 15.9646 40.6466 13.5239 40.6495H26.7855V25.3864Z" fill="#FFD230" stroke="#5E6066" stroke-width="3" stroke-linejoin="round"/>
</g>
<defs>
<clipPath id="clip0_587_3445">
<rect width="67.3161" height="60" fill="white" transform="translate(0.341919)"/>
</clipPath>
</defs>
</svg>
