<svg width="56" height="54" viewBox="0 0 56 54" fill="none" xmlns="http://www.w3.org/2000/svg">
<g id="Layer_1" clip-path="url(#clip0_587_3708)">
<path id="Vector" d="M2.8811 3.60156H13.2005C14.9 3.60156 16.2761 4.97767 16.2761 6.67722V9.05207C16.2761 10.7516 17.6522 12.1277 19.3518 12.1277H31.2175" stroke="#5E6066" stroke-width="2" stroke-linecap="round" stroke-linejoin="round"/>
<path id="Vector_2" d="M31.2742 12.3772C31.2742 14.3605 32.8829 15.9693 34.8662 15.9693C36.8495 15.9693 38.4583 14.3605 38.4583 12.3772C38.4583 10.3939 36.8495 8.78516 34.8662 8.78516C32.8829 8.78516 31.2742 10.3939 31.2742 12.3772Z" fill="#FFD230" stroke="#5E6066" stroke-width="2" stroke-linecap="round" stroke-linejoin="round"/>
<path id="Vector_3" d="M20.4187 53.0254V44.7461" stroke="#5E6066" stroke-width="2" stroke-linecap="round" stroke-linejoin="round"/>
<path id="Vector_4" d="M20.5606 44.149C22.5444 44.149 24.1526 42.5407 24.1526 40.5569C24.1526 38.5731 22.5444 36.9648 20.5606 36.9648C18.5767 36.9648 16.9685 38.5731 16.9685 40.5569C16.9685 42.5407 18.5767 44.149 20.5606 44.149Z" stroke="#5E6066" stroke-width="2" stroke-linecap="round" stroke-linejoin="round"/>
<path id="Vector_5" d="M53.1102 52.4059V28.2319C53.1102 26.5324 51.7341 25.1562 50.0346 25.1562H48.3889" stroke="#5E6066" stroke-width="2" stroke-linecap="round" stroke-linejoin="round"/>
<path id="Vector_6" d="M46.4252 28.0572C47.9516 26.79 48.1617 24.5253 46.8945 22.999C45.6272 21.4726 43.3626 21.2625 41.8362 22.5297C40.3099 23.7969 40.0998 26.0616 41.367 27.5879C42.6342 29.1143 44.8988 29.3244 46.4252 28.0572Z" fill="#FFD230" stroke="#5E6066" stroke-width="2" stroke-linecap="round" stroke-linejoin="round"/>
<path id="Vector_7" d="M3.18469 27.6367V46.4766C3.18469 48.1761 4.5608 49.5522 6.26035 49.5522H7.906" stroke="#5E6066" stroke-width="2" stroke-linecap="round" stroke-linejoin="round"/>
<path id="Vector_8" d="M8.57275 49.4046C8.57275 51.3878 10.1815 52.9966 12.1648 52.9966C14.1481 52.9966 15.7569 51.3878 15.7569 49.4046C15.7569 47.4213 14.1481 45.8125 12.1648 45.8125C10.1815 45.8125 8.57275 47.4213 8.57275 49.4046Z" fill="#FFD230" stroke="#5E6066" stroke-width="2" stroke-linecap="round" stroke-linejoin="round"/>
<path id="Vector_9" d="M41.9851 41.7305H32.0857C30.3861 41.7305 29.01 43.1066 29.01 44.8061V45.8162" stroke="#5E6066" stroke-width="2" stroke-linecap="round" stroke-linejoin="round"/>
<path id="Vector_10" d="M29.0357 45.8125C27.0524 45.8125 25.4436 47.4213 25.4436 49.4046C25.4436 51.3878 27.0524 52.9966 29.0357 52.9966C31.0189 52.9966 32.6277 51.3878 32.6277 49.4046C32.6277 47.4213 31.0189 45.8125 29.0357 45.8125Z" stroke="#5E6066" stroke-width="2" stroke-linecap="round" stroke-linejoin="round"/>
<path id="Vector_11" d="M44.2379 14.6501V7.54832C44.2379 5.84876 42.8618 4.47266 41.1623 4.47266H31.2373" stroke="#5E6066" stroke-width="2" stroke-linecap="round" stroke-linejoin="round"/>
<path id="Vector_12" d="M27.1572 1.11719C25.174 1.11719 23.5652 2.72595 23.5652 4.70924C23.5652 6.69253 25.174 8.3013 27.1572 8.3013C29.1405 8.3013 30.7493 6.69253 30.7493 4.70924C30.7493 2.72595 29.1405 1.11719 27.1572 1.11719Z" stroke="#5E6066" stroke-width="2" stroke-linecap="round" stroke-linejoin="round"/>
<path id="Vector_13" d="M22.3991 27.6797L22.3679 32.0151C22.3679 33.7147 23.744 35.0908 25.4436 35.0908H33.0873" stroke="#5E6066" stroke-width="2" stroke-linecap="round" stroke-linejoin="round"/>
<path id="Vector_14" d="M33.7542 34.9475C33.7542 36.9308 35.3629 38.5396 37.3462 38.5396C39.3295 38.5396 40.9383 36.9308 40.9383 34.9475C40.9383 32.9642 39.3295 31.3555 37.3462 31.3555C35.3629 31.3555 33.7542 32.9642 33.7542 34.9475Z" stroke="#5E6066" stroke-width="2" stroke-linecap="round" stroke-linejoin="round"/>
<path id="Vector_15" d="M41.9851 41.7288C41.9851 43.7121 43.5939 45.3208 45.5772 45.3208C47.5605 45.3208 49.1692 43.7121 49.1692 41.7288C49.1692 39.7455 47.5605 38.1367 45.5772 38.1367C43.5939 38.1367 41.9851 39.7455 41.9851 41.7288Z" fill="#FFD230" stroke="#5E6066" stroke-width="2" stroke-linecap="round" stroke-linejoin="round"/>
<path id="Vector_16" d="M37.4114 28.0539V21.4713C37.4114 19.7717 38.7875 18.3956 40.487 18.3956H47.9833C49.6828 18.3956 51.0589 17.0195 51.0589 15.32V8.58984" stroke="#5E6066" stroke-width="2" stroke-linecap="round" stroke-linejoin="round"/>
<path id="Vector_17" d="M50.917 8.16458C52.9003 8.16458 54.5091 6.55582 54.5091 4.57252C54.5091 2.58923 52.9003 0.980469 50.917 0.980469C48.9337 0.980469 47.325 2.58923 47.325 4.57252C47.325 6.55582 48.9337 8.16458 50.917 8.16458Z" stroke="#5E6066" stroke-width="2" stroke-linecap="round" stroke-linejoin="round"/>
<path id="Vector_18" d="M2.79321 22.1914H23.8206" stroke="#5E6066" stroke-width="2" stroke-linecap="round" stroke-linejoin="round"/>
<path id="Vector_19" d="M24.249 22.1897C24.249 24.173 25.8578 25.7818 27.8411 25.7818C29.8244 25.7818 31.4331 24.173 31.4331 22.1897C31.4331 20.2064 29.8244 18.5977 27.8411 18.5977C25.8578 18.5977 24.249 20.2064 24.249 22.1897Z" stroke="#5E6066" stroke-width="2" stroke-linecap="round" stroke-linejoin="round"/>
<path id="Vector_20" d="M11.0129 27.6367V32.202" stroke="#5E6066" stroke-width="2" stroke-linecap="round" stroke-linejoin="round"/>
<path id="Vector_21" d="M11.013 32.625C9.02966 32.625 7.4209 34.2338 7.4209 36.2171C7.4209 38.2003 9.02966 39.8091 11.013 39.8091C12.9962 39.8091 14.605 38.2003 14.605 36.2171C14.605 34.2338 12.9962 32.625 11.013 32.625Z" fill="#FFD230" stroke="#5E6066" stroke-width="2" stroke-linecap="round" stroke-linejoin="round"/>
<path id="Vector_22" d="M24.7541 15.6602H9.48645" stroke="#5E6066" stroke-width="2" stroke-linecap="round" stroke-linejoin="round"/>
<path id="Vector_23" d="M8.67496 15.6624C8.67496 13.6791 7.06619 12.0703 5.0829 12.0703C3.09961 12.0703 1.49084 13.6791 1.49084 15.6624C1.49084 17.6457 3.09961 19.2544 5.0829 19.2544C7.06619 19.2544 8.67496 17.6457 8.67496 15.6624Z" stroke="#5E6066" stroke-width="2" stroke-linecap="round" stroke-linejoin="round"/>
</g>
<defs>
<clipPath id="clip0_587_3708">
<rect width="54.976" height="54" fill="white" transform="translate(0.511963)"/>
</clipPath>
</defs>
</svg>
