<svg width="16" height="16" viewBox="0 0 16 16" fill="none" xmlns="http://www.w3.org/2000/svg">
<g id="Frame" clip-path="url(#clip0_1100_3371)">
<path id="Vector" d="M3.01495 3.95703L0.930409 1.8725L1.87322 0.929688L15.0726 14.129L14.1298 15.0719L11.9231 12.8652C10.7889 13.5843 9.44384 14.0008 8.0015 14.0008C4.40672 14.0008 1.41607 11.4143 0.789062 8.00079C1.08018 6.41587 1.88085 5.00925 3.01495 3.95703ZM9.83977 10.7819L8.86377 9.80585C8.60264 9.93079 8.31024 10.0008 8.0015 10.0008C6.8969 10.0008 6.00148 9.10532 6.00148 8.00079C6.00148 7.69199 6.07145 7.39959 6.19639 7.13845L5.22041 6.1625C4.8714 6.68945 4.66814 7.32139 4.66814 8.00079C4.66814 9.84172 6.16053 11.3341 8.0015 11.3341C8.68084 11.3341 9.31277 11.1309 9.83977 10.7819ZM5.31761 2.50742C6.14882 2.18038 7.05417 2.00076 8.0015 2.00076C11.5962 2.00076 14.5869 4.58727 15.2139 8.00079C15.0058 9.13385 14.5372 10.1759 13.8725 11.0623L11.2993 8.48912C11.3227 8.32972 11.3348 8.16665 11.3348 8.00079C11.3348 6.15981 9.84244 4.66743 8.0015 4.66743C7.83557 4.66743 7.6725 4.67954 7.5131 4.70294L5.31761 2.50742Z" fill="#8D99A8"/>
</g>
<defs>
<clipPath id="clip0_1100_3371">
<rect width="16" height="16" fill="white"/>
</clipPath>
</defs>
</svg>
