<svg width="48" height="48" viewBox="0 0 48 48" fill="none" xmlns="http://www.w3.org/2000/svg">
<g id="16 / megaphone">
<path id="Vector" d="M26 30.0006V14.0006M26 30.0006L37.008 36.2906C37.3121 36.4643 37.6565 36.5552 38.0068 36.554C38.357 36.5528 38.7008 36.4596 39.0037 36.2839C39.3066 36.1081 39.5581 35.8559 39.733 35.5524C39.9078 35.2489 39.9999 34.9049 40 34.5546V9.44662C39.9999 9.09638 39.9078 8.75232 39.733 8.44885C39.5581 8.14537 39.3066 7.89313 39.0037 7.71736C38.7008 7.5416 38.357 7.44846 38.0068 7.44728C37.6565 7.44609 37.3121 7.5369 37.008 7.71062L26 14.0006M26 30.0006H20M26 14.0006H14C11.8783 14.0006 9.84344 14.8435 8.34315 16.3438C6.84285 17.8441 6 19.8789 6 22.0006V22.0006C6 24.1224 6.84285 26.1572 8.34315 27.6575C9.84344 29.1578 11.8783 30.0006 14 30.0006M14 30.0006V39.0006C14 39.7963 14.3161 40.5593 14.8787 41.1219C15.4413 41.6846 16.2044 42.0006 17 42.0006C17.7956 42.0006 18.5587 41.6846 19.1213 41.1219C19.6839 40.5593 20 39.7963 20 39.0006V30.0006M14 30.0006H20" stroke="#F79009" stroke-width="3" stroke-linecap="round" stroke-linejoin="round"/>
</g>
</svg>
