<svg width="20" height="20" viewBox="0 0 20 20" fill="none" xmlns="http://www.w3.org/2000/svg">
<g id="Frame">
<path id="Vector" d="M15.0271 13.8467L18.5961 17.4156L17.4176 18.5941L13.8486 15.0252C12.5654 16.0518 10.938 16.666 9.16797 16.666C5.02797 16.666 1.66797 13.306 1.66797 9.16602C1.66797 5.02602 5.02797 1.66602 9.16797 1.66602C13.308 1.66602 16.668 5.02602 16.668 9.16602C16.668 10.936 16.0538 12.5634 15.0271 13.8467ZM13.3552 13.2283C14.3742 12.1782 15.0013 10.7457 15.0013 9.16602C15.0013 5.9431 12.3909 3.33268 9.16797 3.33268C5.94505 3.33268 3.33464 5.9431 3.33464 9.16602C3.33464 12.3889 5.94505 14.9993 9.16797 14.9993C10.7476 14.9993 12.1801 14.3723 13.2303 13.3533L13.3552 13.2283Z" fill="black"/>
</g>
</svg>
