<svg width="112" height="80" viewBox="0 0 112 80" fill="none" xmlns="http://www.w3.org/2000/svg">
<g clip-path="url(#clip0_1111_4338)">
<path d="M31.4287 24.209C27.6603 24.209 24.6016 27.2833 24.6016 31.0869C24.6016 34.8905 27.6532 37.9648 31.4287 37.9648C35.2041 37.9648 38.2558 34.8905 38.2558 31.0869V24.209H31.4287Z" fill="#E0E0E0"/>
<path d="M42.3516 24.209V30.1503C42.3516 37.7432 48.4619 43.899 55.9987 43.899C63.5354 43.899 69.6458 37.7432 69.6458 30.1503V24.209H42.3516Z" fill="#06AED4"/>
<path d="M80.5693 24.209C84.3377 24.209 87.3964 27.2833 87.3964 31.0869C87.3964 34.8905 84.3448 37.9648 80.5693 37.9648C76.8009 37.9648 73.7422 34.8905 73.7422 31.0869V24.209H80.5693Z" fill="#E0E0E0"/>
<path d="M56.0065 6.37695C48.4697 6.37695 42.3594 12.5328 42.3594 20.1256H69.6536C69.6536 12.5328 63.5432 6.37695 56.0065 6.37695Z" fill="white"/>
<path d="M49.6391 17.8314C50.9952 17.8314 52.0946 16.599 52.0946 15.0788C52.0946 13.5586 50.9952 12.3262 49.6391 12.3262C48.283 12.3262 47.1836 13.5586 47.1836 15.0788C47.1836 16.599 48.283 17.8314 49.6391 17.8314Z" fill="#262626"/>
<path d="M50.5347 14.4565C50.8365 14.4565 51.0812 14.21 51.0812 13.906C51.0812 13.6019 50.8365 13.3555 50.5347 13.3555C50.2329 13.3555 49.9883 13.6019 49.9883 13.906C49.9883 14.21 50.2329 14.4565 50.5347 14.4565Z" fill="white"/>
<path d="M62.393 17.8314C63.7491 17.8314 64.8485 16.599 64.8485 15.0788C64.8485 13.5586 63.7491 12.3262 62.393 12.3262C61.0369 12.3262 59.9375 13.5586 59.9375 15.0788C59.9375 16.599 61.0369 17.8314 62.393 17.8314Z" fill="#262626"/>
<path d="M61.4996 14.4565C61.8014 14.4565 62.046 14.21 62.046 13.906C62.046 13.6019 61.8014 13.3555 61.4996 13.3555C61.1978 13.3555 60.9531 13.6019 60.9531 13.906C60.9531 14.21 61.1978 14.4565 61.4996 14.4565Z" fill="white"/>
<path d="M80.5692 20.0831H73.7421V20.0474C73.6996 13.6699 70.3357 8.10041 65.3183 4.97603L66.5105 2.8955C67.0357 1.97321 66.7234 0.800673 65.808 0.264454C64.8925 -0.264616 63.7286 0.0499658 63.1963 0.972263L61.8551 3.31733C60.0241 2.67387 58.0583 2.30209 56.0073 2.30209C53.9563 2.30209 51.9905 2.67387 50.1596 3.31733L48.8183 0.972263C48.2931 0.0499658 47.1222 -0.264616 46.2067 0.264454C45.2912 0.793523 44.9789 1.97321 45.5041 2.8955L46.6963 4.97603C41.6718 8.10756 38.3151 13.6699 38.2725 20.0474H38.2654V20.0831H31.4383C25.406 20.0831 20.5234 25.0092 20.5234 31.0792C20.5234 37.1492 25.4131 42.0753 31.4383 42.0753C34.9299 42.0753 38.0383 40.4166 40.0325 37.8427C42.3957 42.7902 46.9376 46.4794 52.4163 47.6091L54.808 50.9765C55.397 51.8059 56.6247 51.8059 57.2067 50.9765L59.5983 47.6091C65.077 46.4723 69.6118 42.7902 71.9821 37.8499C73.9834 40.4166 77.0847 42.0753 80.5692 42.0753C86.6015 42.0753 91.4841 37.1492 91.4841 31.0792C91.4841 25.0092 86.5944 20.0831 80.5692 20.0831ZM69.6047 31.0792H42.4028C42.3815 30.7575 42.3531 30.4357 42.3531 30.1069V24.2013H69.6473V30.1926C69.6473 30.4929 69.626 30.7861 69.6047 31.0792ZM56.0073 6.42025C63.5157 6.42025 69.6047 12.5332 69.6473 20.0831H42.3602C42.4028 12.526 48.4918 6.42025 56.0002 6.42025H56.0073ZM31.4312 37.9571C27.6628 37.9571 24.6041 34.8828 24.6041 31.0792C24.6041 27.2756 27.6557 24.2013 31.4312 24.2013H38.2583V30.1069V31.0792C38.2583 34.8756 35.2067 37.9571 31.4312 37.9571ZM56.0002 43.8627C50.2518 43.8627 45.3409 40.2736 43.3325 35.2117H68.668C66.6596 40.2807 61.7486 43.8627 56.0002 43.8627ZM80.5621 37.9571C76.7938 37.9571 73.7351 34.8828 73.7351 31.0792V30.1926C73.7351 30.1926 73.7351 30.1355 73.7351 30.1069V24.2013H80.5621C84.3305 24.2013 87.3893 27.2756 87.3893 31.0792C87.3893 34.8828 84.3305 37.9571 80.5621 37.9571Z" fill="#262626"/>
</g>
<path d="M9.80021 73.4366C9.86456 74.172 9.86456 75.459 9.80021 76.2128C9.60717 78.4374 7.95248 80.0002 5.3969 80.0002C3.39289 80.0002 1.93125 79.3935 1.34292 78.989C0.975208 78.7316 0.828125 78.4742 0.828125 77.9594V68.0864C0.828125 67.0844 1.43484 66.4777 2.34492 66.4777C3.255 66.4777 3.86172 67.0844 3.86172 68.0864V70.0169C4.33974 69.7963 5.11193 69.6492 5.76461 69.6492C7.95248 69.6492 9.60717 71.212 9.80021 73.4366ZM3.86172 76.746C4.17427 76.9666 4.74422 77.0953 5.24063 77.0953C6.25183 77.0953 6.73904 76.4702 6.80339 75.6061C6.84016 75.1281 6.84935 74.6316 6.80339 74.0433C6.73904 73.1792 6.25183 72.5541 5.24063 72.5541C4.74422 72.5541 4.17427 72.6828 3.86172 72.9034V76.746Z" fill="#262626"/>
<path d="M12.7093 65.8066C13.6377 65.8066 14.3456 66.5145 14.3456 67.4429C14.3456 68.399 13.6377 69.116 12.7093 69.116C11.7808 69.116 11.073 68.399 11.073 67.4429C11.073 66.5145 11.7808 65.8066 12.7093 65.8066ZM11.2017 78.2995V71.3498C11.2017 70.3478 11.8084 69.7411 12.7185 69.7411C13.6285 69.7411 14.2353 70.3478 14.2353 71.3498V78.2995C14.2353 79.3015 13.6285 79.9083 12.7185 79.9083C11.8084 79.9083 11.2017 79.3015 11.2017 78.2995Z" fill="#262626"/>
<path d="M22.2734 77.0034C23.2662 77.0034 23.7994 77.5641 23.7994 78.4099C23.7994 79.2556 23.2662 79.8163 22.2734 79.8163H16.7302C15.811 79.8163 15.3237 79.3015 15.3237 78.5386C15.3237 77.941 15.5628 77.5733 15.9305 77.1321L19.6811 72.6276L17.0887 72.6368C16.0959 72.6368 15.5628 72.0669 15.5628 71.2303C15.5628 70.3938 16.0959 69.833 17.0887 69.833H22.3102C23.1467 69.833 23.7535 70.1916 23.7535 71.0741C23.7535 71.7451 23.4869 72.1772 23.0916 72.646L19.4605 77.0034H22.2734Z" fill="#262626"/>
<path d="M33.9462 73.4366C34.0105 74.172 34.0105 75.459 33.9462 76.2128C33.7531 78.4374 32.0984 80.0002 29.5429 80.0002C27.5389 80.0002 26.0772 79.3935 25.4889 78.989C25.1212 78.7316 24.9741 78.4742 24.9741 77.9594V68.0864C24.9741 67.0844 25.5808 66.4777 26.4909 66.4777C27.401 66.4777 28.0077 67.0844 28.0077 68.0864V70.0169C28.4857 69.7963 29.2579 69.6492 29.9106 69.6492C32.0984 69.6492 33.7531 71.212 33.9462 73.4366ZM28.0077 76.746C28.3202 76.9666 28.8902 77.0953 29.3866 77.0953C30.3978 77.0953 30.885 76.4702 30.9493 75.6061C30.9861 75.1281 30.9953 74.6316 30.9493 74.0433C30.885 73.1792 30.3978 72.5541 29.3866 72.5541C28.8902 72.5541 28.3202 72.6828 28.0077 72.9034V76.746Z" fill="#262626"/>
<path d="M39.7785 80.0002C37.0942 80.0002 35.2833 78.3915 35.1086 76.1668C35.0535 75.4774 35.0443 74.2915 35.0994 73.6756C35.3109 71.3498 37.0023 69.6492 39.6958 69.6492C42.3893 69.6492 43.952 71.3131 43.952 73.9146V74.3375C43.952 75.5601 43.6762 75.7348 42.6007 75.7348H37.9032V75.8727C37.894 76.7552 38.6754 77.3527 39.8704 77.3527C40.6242 77.3527 41.1207 77.1872 41.4056 77.0861C41.7825 76.9574 42.0491 76.8011 42.3984 76.8011C43.1155 76.8011 43.6487 77.2608 43.6487 78.0421C43.6487 78.7959 43.1063 79.2004 42.6466 79.4027C42.0491 79.6693 40.9368 80.0002 39.7785 80.0002ZM37.9124 73.7859H41.231C41.3137 72.7655 40.6242 72.0945 39.5671 72.0945C38.5559 72.0945 37.9859 72.7747 37.9124 73.7859Z" fill="#262626"/>
<path d="M49.6226 80.0002C46.9383 80.0002 45.1274 78.3915 44.9527 76.1668C44.8976 75.4774 44.8884 74.2915 44.9435 73.6756C45.155 71.3498 46.8464 69.6492 49.5399 69.6492C52.2334 69.6492 53.7961 71.3131 53.7961 73.9146V74.3375C53.7961 75.5601 53.5203 75.7348 52.4448 75.7348H47.7473V75.8727C47.7381 76.7552 48.5195 77.3527 49.7146 77.3527C50.4684 77.3527 50.9648 77.1872 51.2497 77.0861C51.6266 76.9574 51.8932 76.8011 52.2425 76.8011C52.9596 76.8011 53.4928 77.2608 53.4928 78.0421C53.4928 78.7959 52.9504 79.2004 52.4907 79.4027C51.8932 79.6693 50.7809 80.0002 49.6226 80.0002ZM47.7565 73.7859H51.0751C51.1578 72.7655 50.4684 72.0945 49.4112 72.0945C48.4 72.0945 47.83 72.7747 47.7565 73.7859Z" fill="#262626"/>
<path d="M66.7168 66.7811C67.6636 66.7811 68.2519 67.351 68.2519 68.1967C68.2519 69.0792 67.6636 69.6492 66.7168 69.6492H64.2255V78.2444C64.2255 79.2832 63.6096 79.9083 62.672 79.9083C61.7343 79.9083 61.1184 79.2832 61.1184 78.2444V69.6492H58.6456C57.6987 69.6492 57.1104 69.0792 57.1104 68.1967C57.1104 67.351 57.6987 66.7811 58.6456 66.7811H66.7168Z" fill="#262626"/>
<path d="M70.8638 80.0002C68.152 80.0002 66.8374 78.4466 66.8374 76.7276C66.8374 75.2292 68.0141 73.7675 70.6064 73.7675C71.2959 73.7675 71.9578 73.8595 72.5645 74.0065V73.3814C72.5645 72.7288 72.1876 72.3151 70.8822 72.3151C70.4501 72.3151 70.0273 72.3794 69.6688 72.4989C69.2735 72.6276 68.9426 72.7563 68.6116 72.7563C67.9222 72.7563 67.3798 72.2507 67.3798 71.5153C67.3798 70.9362 67.674 70.4214 68.437 70.1364C69.1356 69.8698 69.9905 69.6492 71.0753 69.6492C73.925 69.6492 75.451 70.8534 75.451 73.5377V77.9686C75.451 78.4742 75.3131 78.75 74.9362 78.989C74.2835 79.4027 72.8127 80.0002 70.8638 80.0002ZM69.6872 76.7184C69.6872 77.3251 70.2939 77.6652 71.0477 77.6652C71.6176 77.6652 72.1692 77.5365 72.5645 77.3527V75.9002C72.0773 75.7532 71.5625 75.6796 71.0293 75.6796C70.1744 75.6796 69.6872 76.1393 69.6872 76.7184Z" fill="#262626"/>
<path d="M84.2478 79.9083C83.7698 79.9083 83.3929 79.706 82.9976 79.2464L81.0488 77.0034L79.1183 79.2464C78.723 79.706 78.3461 79.9083 77.8497 79.9083C77.0499 79.9083 76.3973 79.3291 76.3973 78.465C76.3973 78.033 76.6455 77.6469 76.958 77.2883L79.1183 74.7787L77.0224 72.361C76.7098 72.0025 76.4616 71.6164 76.4616 71.1844C76.4616 70.3203 77.1143 69.7411 77.9141 69.7411C78.4105 69.7411 78.7874 69.9434 79.1827 70.403L81.0764 72.5817L82.9517 70.403C83.347 69.9434 83.7239 69.7411 84.2203 69.7411C85.02 69.7411 85.6819 70.3203 85.6819 71.1844C85.6819 71.6164 85.4245 72.0025 85.112 72.361L83.0068 74.8063L85.1579 77.2883C85.4705 77.6469 85.7187 78.033 85.7187 78.465C85.7187 79.3291 85.066 79.9083 84.2478 79.9083Z" fill="#262626"/>
<path d="M89.2151 79.8163C87.8362 79.8163 87.1007 79.0809 87.1007 77.702V68.8954C87.1007 67.5165 87.8362 66.7811 89.2151 66.7811H93.4161C95.797 66.7811 97.2127 68.16 97.2127 70.357C97.2127 71.6532 96.5784 72.5909 95.6867 73.0689V73.1057C96.7623 73.4918 97.562 74.5673 97.562 76.1944C97.562 78.5845 95.8246 79.8163 93.3794 79.8163H89.2151ZM90.1895 76.9482H92.9565C93.9125 76.9482 94.363 76.4702 94.363 75.6704C94.363 74.8707 93.8942 74.3743 92.9565 74.3743H90.1895V76.9482ZM90.1987 72.0393H92.7543C93.6368 72.0393 94.0596 71.5613 94.0596 70.8351C94.0596 70.0721 93.6 69.6492 92.7543 69.6492H90.1987V72.0393Z" fill="#262626"/>
<path d="M100.252 65.8066C101.18 65.8066 101.888 66.5145 101.888 67.4429C101.888 68.399 101.18 69.116 100.252 69.116C99.3235 69.116 98.6156 68.399 98.6156 67.4429C98.6156 66.5145 99.3235 65.8066 100.252 65.8066ZM98.7443 78.2995V71.3498C98.7443 70.3478 99.351 69.7411 100.261 69.7411C101.171 69.7411 101.778 70.3478 101.778 71.3498V78.2995C101.778 79.3015 101.171 79.9083 100.261 79.9083C99.351 79.9083 98.7443 79.3015 98.7443 78.2995Z" fill="#262626"/>
<path d="M104.944 79.9083C104.034 79.9083 103.427 79.3015 103.427 78.2995V68.0864C103.427 67.0844 104.034 66.4777 104.944 66.4777C105.854 66.4777 106.461 67.0844 106.461 68.0864V78.2995C106.461 79.3015 105.854 79.9083 104.944 79.9083Z" fill="#262626"/>
<path d="M109.653 79.9083C108.743 79.9083 108.136 79.3015 108.136 78.2995V68.0864C108.136 67.0844 108.743 66.4777 109.653 66.4777C110.563 66.4777 111.17 67.0844 111.17 68.0864V78.2995C111.17 79.3015 110.563 79.9083 109.653 79.9083Z" fill="#262626"/>
<defs>
<clipPath id="clip0_1111_4338">
<rect width="70.9678" height="51.6129" fill="white" transform="translate(20.5156)"/>
</clipPath>
</defs>
</svg>
