<svg width="112" height="80" viewBox="0 0 112 80" fill="none" xmlns="http://www.w3.org/2000/svg">
<g clip-path="url(#clip0_1111_4321)">
<path d="M31.4287 24.209C27.6603 24.209 24.6016 27.2833 24.6016 31.0869C24.6016 34.8905 27.6532 37.9648 31.4287 37.9648C35.2041 37.9648 38.2558 34.8905 38.2558 31.0869V24.209H31.4287Z" fill="#E0E0E0"/>
<path d="M42.3516 24.209V30.1503C42.3516 37.7432 48.4619 43.899 55.9987 43.899C63.5354 43.899 69.6458 37.7432 69.6458 30.1503V24.209H42.3516Z" fill="#32D583"/>
<path d="M80.5693 24.209C84.3377 24.209 87.3964 27.2833 87.3964 31.0869C87.3964 34.8905 84.3448 37.9648 80.5693 37.9648C76.8009 37.9648 73.7422 34.8905 73.7422 31.0869V24.209H80.5693Z" fill="#E0E0E0"/>
<path d="M56.0065 6.37695C48.4697 6.37695 42.3594 12.5328 42.3594 20.1256H69.6536C69.6536 12.5328 63.5432 6.37695 56.0065 6.37695Z" fill="white"/>
<path d="M49.6391 17.8314C50.9952 17.8314 52.0946 16.599 52.0946 15.0788C52.0946 13.5585 50.9952 12.3262 49.6391 12.3262C48.283 12.3262 47.1836 13.5585 47.1836 15.0788C47.1836 16.599 48.283 17.8314 49.6391 17.8314Z" fill="#262626"/>
<path d="M50.5347 14.4565C50.8365 14.4565 51.0812 14.21 51.0812 13.906C51.0812 13.6019 50.8365 13.3555 50.5347 13.3555C50.2329 13.3555 49.9883 13.6019 49.9883 13.906C49.9883 14.21 50.2329 14.4565 50.5347 14.4565Z" fill="white"/>
<path d="M62.393 17.8314C63.7491 17.8314 64.8485 16.599 64.8485 15.0788C64.8485 13.5585 63.7491 12.3262 62.393 12.3262C61.0369 12.3262 59.9375 13.5585 59.9375 15.0788C59.9375 16.599 61.0369 17.8314 62.393 17.8314Z" fill="#262626"/>
<path d="M61.4996 14.4565C61.8014 14.4565 62.046 14.21 62.046 13.906C62.046 13.6019 61.8014 13.3555 61.4996 13.3555C61.1978 13.3555 60.9531 13.6019 60.9531 13.906C60.9531 14.21 61.1978 14.4565 61.4996 14.4565Z" fill="white"/>
<path d="M80.5692 20.0831H73.7421V20.0474C73.6996 13.6699 70.3357 8.1004 65.3183 4.97603L66.5105 2.8955C67.0357 1.97321 66.7234 0.800673 65.8079 0.264453C64.8925 -0.264616 63.7286 0.0499658 63.1963 0.972263L61.855 3.31733C60.0241 2.67387 58.0583 2.30209 56.0073 2.30209C53.9563 2.30209 51.9905 2.67387 50.1596 3.31733L48.8183 0.972263C48.2931 0.0499658 47.1221 -0.264616 46.2067 0.264453C45.2912 0.793523 44.9789 1.97321 45.5041 2.8955L46.6963 4.97603C41.6718 8.10755 38.315 13.6699 38.2725 20.0474H38.2654V20.0831H31.4383C25.406 20.0831 20.5234 25.0092 20.5234 31.0792C20.5234 37.1492 25.4131 42.0753 31.4383 42.0753C34.9299 42.0753 38.0383 40.4166 40.0325 37.8427C42.3957 42.7902 46.9376 46.4794 52.4163 47.609L54.8079 50.9765C55.397 51.8059 56.6247 51.8059 57.2067 50.9765L59.5983 47.609C65.077 46.4723 69.6118 42.7902 71.9821 37.8498C73.9834 40.4165 77.0847 42.0753 80.5692 42.0753C86.6015 42.0753 91.4841 37.1492 91.4841 31.0792C91.4841 25.0092 86.5944 20.0831 80.5692 20.0831ZM69.6047 31.0792H42.4028C42.3815 30.7575 42.3531 30.4357 42.3531 30.1068V24.2013H69.6473V30.1926C69.6473 30.4929 69.626 30.7861 69.6047 31.0792ZM56.0073 6.42025C63.5157 6.42025 69.6047 12.5331 69.6473 20.0831H42.3602C42.4028 12.526 48.4918 6.42025 56.0002 6.42025H56.0073ZM31.4312 37.9571C27.6628 37.9571 24.6041 34.8828 24.6041 31.0792C24.6041 27.2756 27.6557 24.2013 31.4312 24.2013H38.2583V30.1068V31.0792C38.2583 34.8756 35.2067 37.9571 31.4312 37.9571ZM56.0002 43.8627C50.2518 43.8627 45.3409 40.2736 43.3325 35.2117H68.6679C66.6596 40.2807 61.7486 43.8627 56.0002 43.8627ZM80.5621 37.9571C76.7937 37.9571 73.735 34.8828 73.735 31.0792V30.1926C73.735 30.1926 73.735 30.1354 73.735 30.1068V24.2013H80.5621C84.3305 24.2013 87.3892 27.2756 87.3892 31.0792C87.3892 34.8828 84.3305 37.9571 80.5621 37.9571Z" fill="#262626"/>
</g>
<path d="M9.94084 73.4366C10.0052 74.172 10.0052 75.459 9.94084 76.2128C9.74779 78.4374 8.0931 80.0002 5.53753 80.0002C3.53352 80.0002 2.07188 79.3935 1.48354 78.989C1.11583 78.7316 0.96875 78.4742 0.96875 77.9594V68.0864C0.96875 67.0844 1.57547 66.4777 2.48555 66.4777C3.39563 66.4777 4.00235 67.0844 4.00235 68.0864V70.0169C4.48037 69.7963 5.25255 69.6492 5.90524 69.6492C8.0931 69.6492 9.74779 71.212 9.94084 73.4366ZM4.00235 76.746C4.3149 76.9666 4.88485 77.0953 5.38125 77.0953C6.39245 77.0953 6.87966 76.4702 6.94401 75.6061C6.98078 75.128 6.98998 74.6316 6.94401 74.0433C6.87966 73.1792 6.39245 72.5541 5.38125 72.5541C4.88485 72.5541 4.3149 72.6828 4.00235 72.9034V76.746Z" fill="#262626"/>
<path d="M12.8499 65.8066C13.7784 65.8066 14.4862 66.5145 14.4862 67.4429C14.4862 68.399 13.7784 69.116 12.8499 69.116C11.9214 69.116 11.2136 68.399 11.2136 67.4429C11.2136 66.5145 11.9214 65.8066 12.8499 65.8066ZM11.3423 78.2995V71.3498C11.3423 70.3478 11.949 69.7411 12.8591 69.7411C13.7692 69.7411 14.3759 70.3478 14.3759 71.3498V78.2995C14.3759 79.3015 13.7692 79.9083 12.8591 79.9083C11.949 79.9083 11.3423 79.3015 11.3423 78.2995Z" fill="#262626"/>
<path d="M22.4141 77.0034C23.4069 77.0034 23.94 77.5641 23.94 78.4098C23.94 79.2556 23.4069 79.8163 22.4141 79.8163H16.8708C15.9516 79.8163 15.4644 79.3015 15.4644 78.5385C15.4644 77.941 15.7034 77.5733 16.0711 77.1321L19.8217 72.6276L17.2294 72.6368C16.2366 72.6368 15.7034 72.0669 15.7034 71.2303C15.7034 70.3938 16.2366 69.833 17.2294 69.833H22.4508C23.2874 69.833 23.8941 70.1916 23.8941 71.0741C23.8941 71.7451 23.6275 72.1772 23.2322 72.646L19.6011 77.0034H22.4141Z" fill="#262626"/>
<path d="M34.0868 73.4366C34.1511 74.172 34.1511 75.459 34.0868 76.2128C33.8937 78.4374 32.239 80.0002 29.6835 80.0002C27.6795 80.0002 26.2178 79.3935 25.6295 78.989C25.2618 78.7316 25.1147 78.4742 25.1147 77.9594V68.0864C25.1147 67.0844 25.7214 66.4777 26.6315 66.4777C27.5416 66.4777 28.1483 67.0844 28.1483 68.0864V70.0169C28.6263 69.7963 29.3985 69.6492 30.0512 69.6492C32.2391 69.6492 33.8937 71.212 34.0868 73.4366ZM28.1483 76.746C28.4608 76.9666 29.0308 77.0953 29.5272 77.0953C30.5384 77.0953 31.0256 76.4702 31.09 75.6061C31.1267 75.128 31.1359 74.6316 31.09 74.0433C31.0256 73.1792 30.5384 72.5541 29.5272 72.5541C29.0308 72.5541 28.4608 72.6828 28.1483 72.9034V76.746Z" fill="#262626"/>
<path d="M39.9191 80.0002C37.2349 80.0002 35.4239 78.3915 35.2492 76.1668C35.1941 75.4774 35.1849 74.2915 35.24 73.6756C35.4515 71.3498 37.1429 69.6492 39.8364 69.6492C42.5299 69.6492 44.0926 71.3131 44.0926 73.9146V74.3375C44.0926 75.5601 43.8168 75.7348 42.7413 75.7348H38.0438V75.8727C38.0346 76.7552 38.816 77.3527 40.0111 77.3527C40.7649 77.3527 41.2613 77.1872 41.5462 77.0861C41.9231 76.9574 42.1897 76.8011 42.5391 76.8011C43.2561 76.8011 43.7893 77.2608 43.7893 78.0421C43.7893 78.7959 43.2469 79.2004 42.7873 79.4027C42.1897 79.6693 41.0774 80.0002 39.9191 80.0002ZM38.053 73.7859H41.3716C41.4543 72.7655 40.7649 72.0945 39.7077 72.0945C38.6965 72.0945 38.1266 72.7747 38.053 73.7859Z" fill="#262626"/>
<path d="M49.7632 80.0002C47.079 80.0002 45.268 78.3915 45.0933 76.1668C45.0382 75.4774 45.029 74.2915 45.0841 73.6756C45.2956 71.3498 46.987 69.6492 49.6805 69.6492C52.374 69.6492 53.9367 71.3131 53.9367 73.9146V74.3375C53.9367 75.5601 53.6609 75.7348 52.5854 75.7348H47.8879V75.8727C47.8787 76.7552 48.6601 77.3527 49.8552 77.3527C50.609 77.3527 51.1054 77.1872 51.3903 77.0861C51.7672 76.9574 52.0338 76.8011 52.3832 76.8011C53.1002 76.8011 53.6334 77.2608 53.6334 78.0421C53.6334 78.7959 53.091 79.2004 52.6314 79.4027C52.0338 79.6693 50.9215 80.0002 49.7632 80.0002ZM47.8971 73.7859H51.2157C51.2984 72.7655 50.609 72.0945 49.5518 72.0945C48.5406 72.0945 47.9707 72.7747 47.8971 73.7859Z" fill="#262626"/>
<path d="M62.5782 79.9083C61.1257 79.9083 60.5006 79.228 60.1789 77.656L58.3311 68.6012C58.3127 68.4909 58.2852 68.3163 58.2852 68.16C58.2852 67.3418 58.8275 66.6799 59.8387 66.6799C60.6477 66.6799 61.2268 67.1764 61.3647 68.1048L62.6793 76.7644C62.6885 76.8011 62.7069 76.8011 62.7436 76.8011C62.762 76.8011 62.7896 76.8011 62.7988 76.7552L64.2237 68.9689C64.5086 67.3878 65.3819 66.6891 66.6689 66.6891C67.9191 66.6891 68.7924 67.3786 69.105 68.9873L70.6034 76.746C70.6126 76.7919 70.631 76.8011 70.6585 76.8011C70.6953 76.8011 70.7137 76.7919 70.7229 76.7552L72.0375 68.0864C72.1662 67.2131 72.7545 66.6799 73.6278 66.6799C74.5563 66.6799 75.1446 67.351 75.1446 68.1692C75.1446 68.3622 75.117 68.5185 75.0802 68.684L73.0854 77.6469C72.7361 79.2188 72.0926 79.9083 70.6126 79.9083C69.2888 79.9083 68.5258 79.2096 68.2225 77.7112L66.7057 70.2743C66.6965 70.2375 66.6689 70.2283 66.6505 70.2283C66.6413 70.2283 66.6229 70.2283 66.6138 70.2651L65.0326 77.7204C64.7109 79.2188 63.9203 79.9083 62.5782 79.9083Z" fill="#262626"/>
<path d="M80.0295 80.0002C77.4372 80.0002 75.6538 78.3915 75.4516 76.1668C75.3872 75.459 75.3872 74.1904 75.4516 73.4826C75.6538 71.2579 77.4372 69.6492 80.0295 69.6492C82.6219 69.6492 84.4053 71.2579 84.6075 73.4826C84.6718 74.1904 84.6718 75.459 84.6075 76.1668C84.4053 78.3915 82.6219 80.0002 80.0295 80.0002ZM78.4484 75.6153C78.5219 76.4978 79.1102 77.0953 80.0295 77.0953C80.9488 77.0953 81.5371 76.4978 81.6107 75.6153C81.6566 75.0545 81.6566 74.5949 81.6107 74.0341C81.5371 73.1516 80.9488 72.5541 80.0295 72.5541C79.1102 72.5541 78.5219 73.1516 78.4484 74.0341C78.4024 74.5949 78.4024 75.0545 78.4484 75.6153Z" fill="#262626"/>
<path d="M87.4452 79.9083C86.5351 79.9083 85.9284 79.3015 85.9284 78.2995V73.1976C85.9284 71.0557 87.2613 69.6492 89.2929 69.6492C89.8445 69.6492 90.4052 69.7044 90.8924 69.833C91.7382 70.0629 92.3633 70.4949 92.3633 71.3498C92.3633 72.2691 91.7657 72.8207 91.1498 72.8207C90.8648 72.8207 90.6626 72.7655 90.4604 72.7196C90.2397 72.6736 90.0191 72.6276 89.7158 72.6276C89.1826 72.6276 88.962 72.8666 88.962 73.4366V78.2995C88.962 79.3015 88.3552 79.9083 87.4452 79.9083Z" fill="#262626"/>
<path d="M101.785 77.1872C102.199 77.6285 102.328 78.1157 102.328 78.4926C102.328 79.3751 101.73 79.9083 100.912 79.9083C100.406 79.9083 99.9651 79.7336 99.5054 79.2096L97.2348 76.654C96.8855 76.2679 96.7844 76.2496 96.3431 76.2496H96.1777V78.2995C96.1777 79.3015 95.5709 79.9083 94.6609 79.9083C93.7508 79.9083 93.1441 79.3015 93.1441 78.2995V68.0864C93.1441 67.0844 93.7508 66.4777 94.6609 66.4777C95.5709 66.4777 96.1777 67.0844 96.1777 68.0864V73.3814H96.288C96.6097 73.3814 96.7384 73.3447 97.0877 72.977L99.5238 70.4398C99.9834 69.9617 100.388 69.7411 100.884 69.7411C101.684 69.7411 102.318 70.3203 102.318 71.166C102.318 71.6256 102.089 72.0669 101.675 72.4897L99.487 74.7144L101.785 77.1872Z" fill="#262626"/>
<path d="M111.032 76.7368C111.032 78.8051 109.157 80.0002 107.006 80.0002C105.36 80.0002 104.183 79.4854 103.632 79.1177C103.043 78.7316 102.841 78.2812 102.841 77.7847C102.841 77.1964 103.292 76.5162 104 76.5162C104.34 76.5162 104.634 76.6265 105.084 76.8839C105.599 77.178 106.077 77.3895 107.042 77.3895C107.814 77.3895 108.109 77.1137 108.109 76.8011C108.109 76.5437 107.888 76.3323 107.263 76.1944L105.884 75.8819C104.459 75.5601 103.145 74.65 103.145 72.885C103.145 70.8259 104.983 69.6492 107.051 69.6492C108.274 69.6492 109.368 69.9985 109.92 70.3662C110.471 70.7339 110.664 71.1016 110.664 71.6532C110.664 72.2691 110.177 72.9861 109.432 72.9861C109.019 72.9861 108.715 72.8391 108.394 72.6736C108.237 72.5909 107.649 72.3151 107.006 72.3151C106.27 72.3151 106.013 72.5725 106.013 72.8483C106.013 73.1424 106.27 73.2895 106.932 73.4366L108.109 73.694C110.103 74.126 111.032 75.0913 111.032 76.7368Z" fill="#262626"/>
<defs>
<clipPath id="clip0_1111_4321">
<rect width="70.9677" height="51.6129" fill="white" transform="translate(20.5156)"/>
</clipPath>
</defs>
</svg>
