<svg width="92" height="80" viewBox="0 0 92 80" fill="none" xmlns="http://www.w3.org/2000/svg">
<g clip-path="url(#clip0_1111_4269)">
<path d="M21.4287 24.209C17.6603 24.209 14.6016 27.2833 14.6016 31.0869C14.6016 34.8905 17.6532 37.9648 21.4287 37.9648C25.2041 37.9648 28.2558 34.8905 28.2558 31.0869V24.209H21.4287Z" fill="#E0E0E0"/>
<path d="M32.3516 24.209V30.1503C32.3516 37.7432 38.4619 43.899 45.9987 43.899C53.5354 43.899 59.6458 37.7432 59.6458 30.1503V24.209H32.3516Z" fill="#2E90FA"/>
<path d="M70.5693 24.209C74.3377 24.209 77.3964 27.2833 77.3964 31.0869C77.3964 34.8905 74.3448 37.9648 70.5693 37.9648C66.8009 37.9648 63.7422 34.8905 63.7422 31.0869V24.209H70.5693Z" fill="#E0E0E0"/>
<path d="M46.0065 6.37695C38.4697 6.37695 32.3594 12.5328 32.3594 20.1256H59.6536C59.6536 12.5328 53.5433 6.37695 46.0065 6.37695Z" fill="white"/>
<path d="M39.6391 17.8314C40.9952 17.8314 42.0946 16.599 42.0946 15.0788C42.0946 13.5586 40.9952 12.3262 39.6391 12.3262C38.283 12.3262 37.1836 13.5586 37.1836 15.0788C37.1836 16.599 38.283 17.8314 39.6391 17.8314Z" fill="#262626"/>
<path d="M40.5347 14.4565C40.8365 14.4565 41.0812 14.21 41.0812 13.906C41.0812 13.6019 40.8365 13.3555 40.5347 13.3555C40.2329 13.3555 39.9883 13.6019 39.9883 13.906C39.9883 14.21 40.2329 14.4565 40.5347 14.4565Z" fill="white"/>
<path d="M52.393 17.8314C53.7491 17.8314 54.8485 16.599 54.8485 15.0788C54.8485 13.5586 53.7491 12.3262 52.393 12.3262C51.0369 12.3262 49.9375 13.5586 49.9375 15.0788C49.9375 16.599 51.0369 17.8314 52.393 17.8314Z" fill="#262626"/>
<path d="M51.4996 14.4565C51.8014 14.4565 52.046 14.21 52.046 13.906C52.046 13.6019 51.8014 13.3555 51.4996 13.3555C51.1978 13.3555 50.9531 13.6019 50.9531 13.906C50.9531 14.21 51.1978 14.4565 51.4996 14.4565Z" fill="white"/>
<path d="M70.5693 20.0831H63.7422V20.0474C63.6996 13.6699 60.3357 8.10041 55.3183 4.97604L56.5105 2.8955C57.0357 1.97321 56.7234 0.800673 55.808 0.264454C54.8925 -0.264616 53.7286 0.0499658 53.1964 0.972263L51.8551 3.31733C50.0241 2.67387 48.0583 2.30209 46.0073 2.30209C43.9563 2.30209 41.9905 2.67387 40.1596 3.31733L38.8183 0.972263C38.2931 0.0499658 37.1222 -0.264616 36.2067 0.264454C35.2912 0.793523 34.9789 1.97321 35.5041 2.8955L36.6963 4.97604C31.6718 8.10756 28.3151 13.6699 28.2725 20.0474H28.2654V20.0831H21.4383C15.406 20.0831 10.5234 25.0092 10.5234 31.0792C10.5234 37.1492 15.4131 42.0753 21.4383 42.0753C24.9299 42.0753 28.0383 40.4166 30.0325 37.8427C32.3957 42.7902 36.9376 46.4794 42.4163 47.6091L44.808 50.9765C45.397 51.8059 46.6247 51.8059 47.2067 50.9765L49.5983 47.6091C55.077 46.4723 59.6118 42.7902 61.9822 37.8499C63.9834 40.4166 67.0847 42.0753 70.5693 42.0753C76.6015 42.0753 81.4841 37.1492 81.4841 31.0792C81.4841 25.0092 76.5944 20.0831 70.5693 20.0831ZM59.6047 31.0792H32.4028C32.3815 30.7575 32.3531 30.4357 32.3531 30.1069V24.2013H59.6473V30.1926C59.6473 30.4929 59.626 30.7861 59.6047 31.0792ZM46.0073 6.42025C53.5157 6.42025 59.6047 12.5332 59.6473 20.0831H32.3602C32.4028 12.526 38.4918 6.42025 46.0002 6.42025H46.0073ZM21.4312 37.9571C17.6628 37.9571 14.6041 34.8828 14.6041 31.0792C14.6041 27.2756 17.6557 24.2013 21.4312 24.2013H28.2583V30.1069V31.0792C28.2583 34.8756 25.2067 37.9571 21.4312 37.9571ZM46.0002 43.8627C40.2518 43.8627 35.3409 40.2736 33.3325 35.2117H58.668C56.6596 40.2807 51.7486 43.8627 46.0002 43.8627ZM70.5622 37.9571C66.7938 37.9571 63.7351 34.8828 63.7351 31.0792V30.1926C63.7351 30.1926 63.7351 30.1355 63.7351 30.1069V24.2013H70.5622C74.3305 24.2013 77.3893 27.2756 77.3893 31.0792C77.3893 34.8828 74.3305 37.9571 70.5622 37.9571Z" fill="#262626"/>
</g>
<path d="M9.42912 73.4366C9.49347 74.172 9.49347 75.459 9.42912 76.2128C9.23607 78.4374 7.58139 80.0002 5.02581 80.0002C3.0218 80.0002 1.56016 79.3935 0.971823 78.989C0.604115 78.7316 0.457031 78.4742 0.457031 77.9594V68.0864C0.457031 67.0844 1.06375 66.4777 1.97383 66.4777C2.88391 66.4777 3.49063 67.0844 3.49063 68.0864V70.0169C3.96865 69.7963 4.74084 69.6492 5.39352 69.6492C7.58139 69.6492 9.23607 71.212 9.42912 73.4366ZM3.49063 76.746C3.80318 76.9666 4.37313 77.0953 4.86953 77.0953C5.88073 77.0953 6.36795 76.4702 6.4323 75.6061C6.46907 75.1281 6.47826 74.6316 6.4323 74.0433C6.36795 73.1792 5.88073 72.5541 4.86953 72.5541C4.37313 72.5541 3.80318 72.6828 3.49063 72.9034V76.746Z" fill="#262626"/>
<path d="M12.3382 65.8066C13.2666 65.8066 13.9745 66.5145 13.9745 67.4429C13.9745 68.399 13.2666 69.116 12.3382 69.116C11.4097 69.116 10.7019 68.399 10.7019 67.4429C10.7019 66.5145 11.4097 65.8066 12.3382 65.8066ZM10.8306 78.2995V71.3498C10.8306 70.3478 11.4373 69.7411 12.3474 69.7411C13.2575 69.7411 13.8642 70.3478 13.8642 71.3498V78.2995C13.8642 79.3015 13.2575 79.9083 12.3474 79.9083C11.4373 79.9083 10.8306 79.3015 10.8306 78.2995Z" fill="#262626"/>
<path d="M21.9023 77.0034C22.8952 77.0034 23.4283 77.5641 23.4283 78.4099C23.4283 79.2556 22.8952 79.8163 21.9023 79.8163H16.3591C15.4399 79.8163 14.9526 79.3015 14.9526 78.5385C14.9526 77.941 15.1917 77.5733 15.5594 77.1321L19.31 72.6276L16.7176 72.6368C15.7248 72.6368 15.1917 72.0669 15.1917 71.2303C15.1917 70.3938 15.7248 69.833 16.7176 69.833H21.9391C22.7756 69.833 23.3824 70.1916 23.3824 71.0741C23.3824 71.7451 23.1158 72.1772 22.7205 72.646L19.0894 77.0034H21.9023Z" fill="#262626"/>
<path d="M33.5751 73.4366C33.6394 74.172 33.6394 75.459 33.5751 76.2128C33.382 78.4374 31.7273 80.0002 29.1718 80.0002C27.1678 80.0002 25.7061 79.3935 25.1178 78.989C24.7501 78.7316 24.603 78.4742 24.603 77.9594V68.0864C24.603 67.0844 25.2097 66.4777 26.1198 66.4777C27.0299 66.4777 27.6366 67.0844 27.6366 68.0864V70.0169C28.1146 69.7963 28.8868 69.6492 29.5395 69.6492C31.7273 69.6492 33.382 71.212 33.5751 73.4366ZM27.6366 76.746C27.9491 76.9666 28.5191 77.0953 29.0155 77.0953C30.0267 77.0953 30.5139 76.4702 30.5783 75.6061C30.615 75.1281 30.6242 74.6316 30.5783 74.0433C30.5139 73.1792 30.0267 72.5541 29.0155 72.5541C28.5191 72.5541 27.9491 72.6828 27.6366 72.9034V76.746Z" fill="#262626"/>
<path d="M39.4074 80.0002C36.7231 80.0002 34.9122 78.3915 34.7375 76.1668C34.6824 75.4774 34.6732 74.2915 34.7283 73.6756C34.9398 71.3498 36.6312 69.6492 39.3247 69.6492C42.0182 69.6492 43.5809 71.3131 43.5809 73.9146V74.3375C43.5809 75.5601 43.3051 75.7348 42.2296 75.7348H37.5321V75.8727C37.5229 76.7552 38.3043 77.3527 39.4993 77.3527C40.2532 77.3527 40.7496 77.1872 41.0345 77.0861C41.4114 76.9574 41.678 76.8011 42.0273 76.8011C42.7444 76.8011 43.2776 77.2608 43.2776 78.0421C43.2776 78.7959 42.7352 79.2004 42.2756 79.4027C41.678 79.6693 40.5657 80.0002 39.4074 80.0002ZM37.5413 73.7859H40.8599C40.9426 72.7655 40.2532 72.0945 39.196 72.0945C38.1848 72.0945 37.6148 72.7747 37.5413 73.7859Z" fill="#262626"/>
<path d="M49.2515 80.0002C46.5673 80.0002 44.7563 78.3915 44.5816 76.1668C44.5265 75.4774 44.5173 74.2915 44.5724 73.6756C44.7839 71.3498 46.4753 69.6492 49.1688 69.6492C51.8623 69.6492 53.425 71.3131 53.425 73.9146V74.3375C53.425 75.5601 53.1492 75.7348 52.0737 75.7348H47.3762V75.8727C47.367 76.7552 48.1484 77.3527 49.3435 77.3527C50.0973 77.3527 50.5937 77.1872 50.8786 77.0861C51.2555 76.9574 51.5221 76.8011 51.8715 76.8011C52.5885 76.8011 53.1217 77.2608 53.1217 78.0421C53.1217 78.7959 52.5793 79.2004 52.1197 79.4027C51.5221 79.6693 50.4098 80.0002 49.2515 80.0002ZM47.3854 73.7859H50.704C50.7867 72.7655 50.0973 72.0945 49.0401 72.0945C48.0289 72.0945 47.4589 72.7747 47.3854 73.7859Z" fill="#262626"/>
<path d="M60.5864 79.8163C59.2075 79.8163 58.4721 79.0901 58.4721 77.702V68.8954C58.4721 67.5165 59.2075 66.7811 60.5864 66.7811H66.2308C67.1776 66.7811 67.7659 67.351 67.7659 68.2151C67.7659 69.0792 67.1776 69.6492 66.2308 69.6492H61.5884V71.9933H65.7252C66.5985 71.9933 67.15 72.5265 67.15 73.3263C67.15 74.126 66.5985 74.6592 65.7252 74.6592H61.5884V76.9482H66.2491C67.196 76.9482 67.7843 77.5182 67.7843 78.3823C67.7843 79.2464 67.196 79.8163 66.2491 79.8163H60.5864Z" fill="#262626"/>
<path d="M79.1482 77.0401C79.5987 77.5825 79.8469 78.0605 79.8469 78.5477C79.8469 79.4027 79.2126 79.9542 78.4036 79.9542C77.7142 79.9542 77.2729 79.5314 76.8684 79.0258L74.368 75.9186C74.1198 75.6061 74.1014 75.5969 73.6418 75.5969H72.4559V78.2444C72.4559 79.2832 71.84 79.9083 70.9024 79.9083C69.9647 79.9083 69.3488 79.2832 69.3488 78.2444V68.8954C69.3488 67.5165 70.075 66.7811 71.4539 66.7811H75.0207C78.0267 66.7811 79.5895 68.7207 79.5895 71.2487C79.5895 72.7655 78.8081 74.1444 77.2821 74.8247L79.1482 77.0401ZM72.4559 72.7747H74.7265C75.9859 72.7747 76.4548 72.168 76.4548 71.2579C76.4548 70.2835 75.9859 69.6492 74.7265 69.6492H72.4559V72.7747Z" fill="#262626"/>
<path d="M86.856 66.7811C89.5679 66.7811 91.5443 68.4174 91.5443 71.3774C91.5443 74.1352 89.6782 75.9278 86.6906 75.9278H84.3648V78.2444C84.3648 79.2832 83.7489 79.9083 82.8113 79.9083C81.8736 79.9083 81.2577 79.2832 81.2577 78.2444V68.8954C81.2577 67.5165 81.9839 66.7811 83.3628 66.7811H86.856ZM84.3648 73.0597H86.5895C87.8856 73.0597 88.4188 72.361 88.4188 71.3958C88.4188 70.3478 87.8672 69.6492 86.6262 69.6492H84.3648V73.0597Z" fill="#262626"/>
<defs>
<clipPath id="clip0_1111_4269">
<rect width="70.9678" height="51.6129" fill="white" transform="translate(10.5156)"/>
</clipPath>
</defs>
</svg>
