<svg width="86" height="80" viewBox="0 0 86 80" fill="none" xmlns="http://www.w3.org/2000/svg">
<g clip-path="url(#clip0_1111_4286)">
<path d="M18.564 24.2793C14.8158 24.2793 11.7734 27.3627 11.7734 31.1774C11.7734 34.9922 14.8087 38.0756 18.564 38.0756C22.3193 38.0756 25.3546 34.9922 25.3546 31.1774V24.2793H18.564Z" fill="#E0E0E0"/>
<path d="M29.4258 24.2793V30.2381C29.4258 37.8533 35.5034 44.0272 42.9999 44.0272C50.4964 44.0272 56.574 37.8533 56.574 30.2381V24.2793H29.4258Z" fill="#9B8AFB"/>
<path d="M67.439 24.2793C71.1873 24.2793 74.2296 27.3627 74.2296 31.1774C74.2296 34.9922 71.1943 38.0756 67.439 38.0756C63.6908 38.0756 60.6484 34.9922 60.6484 31.1774V24.2793H67.439Z" fill="#E0E0E0"/>
<path d="M43.0077 6.39648C35.5112 6.39648 29.4336 12.5704 29.4336 20.1856H56.5818C56.5818 12.5704 50.5042 6.39648 43.0077 6.39648Z" fill="white"/>
<path d="M36.6767 17.8827C38.0256 17.8827 39.1191 16.6467 39.1191 15.122C39.1191 13.5973 38.0256 12.3613 36.6767 12.3613C35.3279 12.3613 34.2344 13.5973 34.2344 15.122C34.2344 16.6467 35.3279 17.8827 36.6767 17.8827Z" fill="#262626"/>
<path d="M37.567 14.4988C37.8672 14.4988 38.1105 14.2516 38.1105 13.9467C38.1105 13.6417 37.8672 13.3945 37.567 13.3945C37.2668 13.3945 37.0234 13.6417 37.0234 13.9467C37.0234 14.2516 37.2668 14.4988 37.567 14.4988Z" fill="white"/>
<path d="M49.3603 17.8827C50.7092 17.8827 51.8027 16.6467 51.8027 15.122C51.8027 13.5973 50.7092 12.3613 49.3603 12.3613C48.0114 12.3613 46.918 13.5973 46.918 15.122C46.918 16.6467 48.0114 17.8827 49.3603 17.8827Z" fill="#262626"/>
<path d="M48.4732 14.4988C48.7734 14.4988 49.0167 14.2516 49.0167 13.9467C49.0167 13.6417 48.7734 13.3945 48.4732 13.3945C48.173 13.3945 47.9297 13.6417 47.9297 13.9467C47.9297 14.2516 48.173 14.4988 48.4732 14.4988Z" fill="white"/>
<path d="M67.4395 20.1422H60.649V20.1063C60.6066 13.7101 57.2607 8.12421 52.2701 4.99065L53.456 2.904C53.9784 1.97899 53.6678 0.803005 52.7572 0.265208C51.8466 -0.265418 50.689 0.0500898 50.1595 0.9751L48.8254 3.32706C47.0043 2.68171 45.049 2.30883 43.009 2.30883C40.969 2.30883 39.0137 2.68171 37.1925 3.32706L35.8584 0.9751C35.336 0.0500898 34.1713 -0.265418 33.2607 0.265208C32.3501 0.795834 32.0395 1.97899 32.5619 2.904L33.7478 4.99065C28.7501 8.13138 25.4113 13.7101 25.369 20.1063H25.3619V20.1422H18.5713C12.5713 20.1422 7.71484 25.0827 7.71484 31.1706C7.71484 37.2584 12.5784 42.199 18.5713 42.199C22.0443 42.199 25.136 40.5354 27.1195 37.954C29.4701 42.9161 33.9878 46.6161 39.4372 47.7491L41.816 51.1264C42.4019 51.9582 43.6231 51.9582 44.2019 51.1264L46.5807 47.7491C52.0301 46.6089 56.5407 42.916 58.8984 37.9612C60.889 40.5354 63.9737 42.199 67.4395 42.199C73.4395 42.199 78.296 37.2584 78.296 31.1706C78.296 25.0827 73.4325 20.1422 67.4395 20.1422ZM56.5337 31.1706H29.4772C29.456 30.8479 29.4278 30.5252 29.4278 30.1954V24.2724H56.576V30.2814C56.576 30.5826 56.5548 30.8766 56.5337 31.1706ZM43.009 6.43911C50.4772 6.43911 56.5337 12.57 56.576 20.1422H29.4348C29.4772 12.5628 35.5337 6.43911 43.0019 6.43911H43.009ZM18.5643 38.0687C14.816 38.0687 11.7737 34.9853 11.7737 31.1706C11.7737 27.3558 14.809 24.2724 18.5643 24.2724H25.3548V30.1954V31.1706C25.3548 34.9782 22.3195 38.0687 18.5643 38.0687ZM43.0019 43.9916C37.2843 43.9916 32.3995 40.392 30.4019 35.3152H55.6019C53.6042 40.3992 48.7195 43.9916 43.0019 43.9916ZM67.4325 38.0687C63.6842 38.0687 60.6419 34.9853 60.6419 31.1706V30.2814C60.6419 30.2814 60.6419 30.2241 60.6419 30.1954V24.2724H67.4325C71.1807 24.2724 74.2231 27.3558 74.2231 31.1706C74.2231 34.9853 71.1807 38.0687 67.4325 38.0687Z" fill="#262626"/>
</g>
<path d="M9.60101 73.472C9.66522 74.2034 9.66522 75.4835 9.60101 76.2333C9.40838 78.4461 7.75729 80.0005 5.20728 80.0005C3.20763 80.0005 1.74916 79.397 1.16211 78.9947C0.795201 78.7386 0.648438 78.4826 0.648438 77.9706V68.1504C0.648438 67.1538 1.25384 66.5503 2.16194 66.5503C3.07003 66.5503 3.67543 67.1538 3.67543 68.1504V70.0706C4.15242 69.8511 4.92292 69.7048 5.57419 69.7048C7.75729 69.7048 9.40838 71.2592 9.60101 73.472ZM3.67543 76.7636C3.98731 76.9831 4.55601 77.1111 5.05134 77.1111C6.06034 77.1111 6.54649 76.4893 6.6107 75.6298C6.64739 75.1544 6.65657 74.6606 6.6107 74.0754C6.54649 73.2159 6.06034 72.5942 5.05134 72.5942C4.55601 72.5942 3.98731 72.7222 3.67543 72.9416V76.7636Z" fill="#262626"/>
<path d="M12.5037 65.8828C13.4302 65.8828 14.1365 66.5869 14.1365 67.5104C14.1365 68.4613 13.4302 69.1745 12.5037 69.1745C11.5773 69.1745 10.871 68.4613 10.871 67.5104C10.871 66.5869 11.5773 65.8828 12.5037 65.8828ZM10.9994 78.3089V71.3964C10.9994 70.3997 11.6048 69.7963 12.5129 69.7963C13.421 69.7963 14.0264 70.3997 14.0264 71.3964V78.3089C14.0264 79.3055 13.421 79.909 12.5129 79.909C11.6048 79.909 10.9994 79.3055 10.9994 78.3089Z" fill="#262626"/>
<path d="M22.0471 77.0197C23.0378 77.0197 23.5698 77.5774 23.5698 78.4186C23.5698 79.2598 23.0378 79.8176 22.0471 79.8176H16.5159C15.5987 79.8176 15.1125 79.3056 15.1125 78.5466C15.1125 77.9523 15.351 77.5866 15.7179 77.1477L19.4604 72.6673L16.8737 72.6765C15.883 72.6765 15.351 72.1096 15.351 71.2775C15.351 70.4454 15.883 69.8877 16.8737 69.8877H22.0838C22.9185 69.8877 23.5239 70.2443 23.5239 71.1221C23.5239 71.7895 23.2579 72.2193 22.8635 72.6856L19.2402 77.0197H22.0471Z" fill="#262626"/>
<path d="M33.6944 73.472C33.7586 74.2034 33.7586 75.4835 33.6944 76.2333C33.5018 78.4461 31.8507 80.0005 29.3007 80.0005C27.3011 80.0005 25.8426 79.397 25.2555 78.9947C24.8886 78.7386 24.7419 78.4826 24.7419 77.9706V68.1504C24.7419 67.1538 25.3473 66.5503 26.2554 66.5503C27.1635 66.5503 27.7689 67.1538 27.7689 68.1504V70.0706C28.2458 69.8511 29.0164 69.7048 29.6676 69.7048C31.8507 69.7048 33.5018 71.2592 33.6944 73.472ZM27.7689 76.7636C28.0807 76.9831 28.6494 77.1111 29.1448 77.1111C30.1538 77.1111 30.6399 76.4893 30.7041 75.6298C30.7408 75.1544 30.75 74.6606 30.7041 74.0754C30.6399 73.2159 30.1538 72.5942 29.1448 72.5942C28.6494 72.5942 28.0807 72.7222 27.7689 72.9416V76.7636Z" fill="#262626"/>
<path d="M39.5141 80.0005C36.8357 80.0005 35.0286 78.4003 34.8544 76.1876C34.7993 75.5018 34.7901 74.3223 34.8452 73.7097C35.0562 71.3964 36.7439 69.7048 39.4315 69.7048C42.1192 69.7048 43.6785 71.3598 43.6785 73.9474V74.368C43.6785 75.5841 43.4033 75.7579 42.3301 75.7579H37.6429V75.895C37.6337 76.7728 38.4134 77.3671 39.6058 77.3671C40.358 77.3671 40.8533 77.2025 41.1377 77.102C41.5138 76.9739 41.7798 76.8185 42.1283 76.8185C42.8438 76.8185 43.3758 77.2757 43.3758 78.0529C43.3758 78.8027 42.8346 79.205 42.376 79.4061C41.7798 79.6713 40.6699 80.0005 39.5141 80.0005ZM37.652 73.8194H40.9634C41.0459 72.8045 40.358 72.137 39.3031 72.137C38.2941 72.137 37.7254 72.8136 37.652 73.8194Z" fill="#262626"/>
<path d="M49.3368 80.0005C46.6584 80.0005 44.8513 78.4003 44.677 76.1876C44.622 75.5018 44.6128 74.3223 44.6679 73.7097C44.8788 71.3964 46.5666 69.7048 49.2542 69.7048C51.9418 69.7048 53.5012 71.3598 53.5012 73.9474V74.368C53.5012 75.5841 53.226 75.7579 52.1528 75.7579H47.4655V75.895C47.4564 76.7728 48.2361 77.3671 49.4285 77.3671C50.1807 77.3671 50.676 77.2025 50.9604 77.102C51.3364 76.9739 51.6024 76.8185 51.951 76.8185C52.6665 76.8185 53.1985 77.2757 53.1985 78.0529C53.1985 78.8027 52.6573 79.205 52.1987 79.4061C51.6024 79.6713 50.4925 80.0005 49.3368 80.0005ZM47.4747 73.8194H50.7861C50.8686 72.8045 50.1807 72.137 49.1258 72.137C48.1168 72.137 47.5481 72.8136 47.4747 73.8194Z" fill="#262626"/>
<path d="M66.3937 66.852C67.3385 66.852 67.9256 67.4189 67.9256 68.2601C67.9256 69.1379 67.3385 69.7048 66.3937 69.7048H63.9079V78.254C63.9079 79.2873 63.2934 79.909 62.3577 79.909C61.4221 79.909 60.8076 79.2873 60.8076 78.254V69.7048H58.3401C57.3953 69.7048 56.8083 69.1379 56.8083 68.2601C56.8083 67.4189 57.3953 66.852 58.3401 66.852H66.3937Z" fill="#262626"/>
<path d="M70.5318 80.0005C67.8258 80.0005 66.5141 78.4552 66.5141 76.7454C66.5141 75.255 67.6882 73.8011 70.2749 73.8011C70.9629 73.8011 71.6233 73.8926 72.2287 74.0389V73.4171C72.2287 72.7679 71.8527 72.3564 70.5501 72.3564C70.119 72.3564 69.6971 72.4205 69.3393 72.5393C68.9449 72.6673 68.6147 72.7953 68.2845 72.7953C67.5965 72.7953 67.0553 72.2924 67.0553 71.561C67.0553 70.9849 67.3489 70.4729 68.1102 70.1894C68.8073 69.9243 69.6604 69.7048 70.7428 69.7048C73.5863 69.7048 75.109 70.9026 75.109 73.5725V77.9797C75.109 78.4826 74.9714 78.7569 74.5953 78.9947C73.944 79.4061 72.4764 80.0005 70.5318 80.0005ZM69.3577 76.7362C69.3577 77.3397 69.9631 77.678 70.7152 77.678C71.284 77.678 71.8343 77.55 72.2287 77.3671V75.9224C71.7426 75.7761 71.2289 75.703 70.6969 75.703C69.8438 75.703 69.3577 76.1602 69.3577 76.7362Z" fill="#262626"/>
<path d="M83.8867 79.909C83.4097 79.909 83.0336 79.7079 82.6392 79.2507L80.6946 77.0197L78.7683 79.2507C78.3739 79.7079 77.9978 79.909 77.5025 79.909C76.7045 79.909 76.0532 79.333 76.0532 78.4735C76.0532 78.0437 76.3008 77.6597 76.6127 77.3031L78.7683 74.8069L76.6769 72.4022C76.3651 72.0456 76.1174 71.6615 76.1174 71.2318C76.1174 70.3723 76.7687 69.7963 77.5667 69.7963C78.062 69.7963 78.4381 69.9974 78.8325 70.4546L80.7221 72.6216L82.5933 70.4546C82.9878 69.9974 83.3638 69.7963 83.8592 69.7963C84.6572 69.7963 85.3176 70.3723 85.3176 71.2318C85.3176 71.6615 85.0608 72.0456 84.7489 72.4022L82.6484 74.8344L84.7948 77.3031C85.1067 77.6597 85.3543 78.0437 85.3543 78.4735C85.3543 79.333 84.7031 79.909 83.8867 79.909Z" fill="#262626"/>
<defs>
<clipPath id="clip0_1111_4286">
<rect width="70.5882" height="51.7647" fill="white" transform="translate(7.70703)"/>
</clipPath>
</defs>
</svg>
