<svg width="124" height="80" viewBox="0 0 124 80" fill="none" xmlns="http://www.w3.org/2000/svg">
<g clip-path="url(#clip0_1111_4985)">
<path d="M37.432 24.209C33.6639 24.209 30.6055 27.2833 30.6055 31.0869C30.6055 34.8905 33.6568 37.9648 37.432 37.9648C41.2071 37.9648 44.2585 34.8905 44.2585 31.0869V24.209H37.432Z" fill="#E0E0E0"/>
<path d="M48.3555 24.209V30.1503C48.3555 37.7432 54.4653 43.899 62.0014 43.899C69.5375 43.899 75.6473 37.7432 75.6473 30.1503V24.209H48.3555Z" fill="#6172F3"/>
<path d="M86.5687 24.209C90.3367 24.209 93.3952 27.2833 93.3952 31.0869C93.3952 34.8905 90.3438 37.9648 86.5687 37.9648C82.8006 37.9648 79.7422 34.8905 79.7422 31.0869V24.209H86.5687Z" fill="#E0E0E0"/>
<path d="M62.0092 6.37695C54.4731 6.37695 48.3633 12.5328 48.3633 20.1256H75.6551C75.6551 12.5328 69.5453 6.37695 62.0092 6.37695Z" fill="white"/>
<path d="M55.643 17.8314C56.9991 17.8314 58.0985 16.599 58.0985 15.0788C58.0985 13.5585 56.9991 12.3262 55.643 12.3262C54.2869 12.3262 53.1875 13.5585 53.1875 15.0788C53.1875 16.599 54.2869 17.8314 55.643 17.8314Z" fill="#262626"/>
<path d="M56.5347 14.4565C56.8365 14.4565 57.0812 14.21 57.0812 13.906C57.0812 13.6019 56.8365 13.3555 56.5347 13.3555C56.2329 13.3555 55.9883 13.6019 55.9883 13.906C55.9883 14.21 56.2329 14.4565 56.5347 14.4565Z" fill="white"/>
<path d="M68.393 17.8314C69.7491 17.8314 70.8485 16.599 70.8485 15.0788C70.8485 13.5585 69.7491 12.3262 68.393 12.3262C67.0369 12.3262 65.9375 13.5585 65.9375 15.0788C65.9375 16.599 67.0369 17.8314 68.393 17.8314Z" fill="#262626"/>
<path d="M67.4996 14.4565C67.8014 14.4565 68.046 14.21 68.046 13.906C68.046 13.6019 67.8014 13.3555 67.4996 13.3555C67.1978 13.3555 66.9531 13.6019 66.9531 13.906C66.9531 14.21 67.1978 14.4565 67.4996 14.4565Z" fill="white"/>
<path d="M86.5679 20.0831H79.7414V20.0474C79.6988 13.6699 76.3352 8.1004 71.3183 4.97603L72.5104 2.8955C73.0355 1.97321 72.7233 0.800673 71.8079 0.264453C70.8925 -0.264616 69.7287 0.0499658 69.1965 0.972263L67.8553 3.31733C66.0245 2.67387 64.0589 2.30209 62.0081 2.30209C59.9573 2.30209 57.9917 2.67387 56.1609 3.31733L54.8197 0.972263C54.2946 0.0499658 53.1237 -0.264616 52.2083 0.264453C51.2929 0.793523 50.9807 1.97321 51.5058 2.8955L52.698 4.97603C47.6739 8.10755 44.3174 13.6699 44.2748 20.0474H44.2677V20.0831H37.4412C31.4095 20.0831 26.5273 25.0092 26.5273 31.0792C26.5273 37.1492 31.4166 42.0753 37.4412 42.0753C40.9325 42.0753 44.0407 40.4166 46.0347 37.8427C48.3977 42.7902 52.9392 46.4794 58.4175 47.609L60.8089 50.9765C61.3978 51.8059 62.6255 51.8059 63.2074 50.9765L65.5988 47.609C71.077 46.4723 75.6114 42.7902 77.9815 37.8498C79.9827 40.4165 83.0837 42.0753 86.5679 42.0753C92.5996 42.0753 97.4818 37.1492 97.4818 31.0792C97.4818 25.0092 92.5925 20.0831 86.5679 20.0831ZM75.6043 31.0792H48.4048C48.3835 30.7575 48.3551 30.4357 48.3551 30.1068V24.2013H75.6469V30.1926C75.6469 30.4929 75.6256 30.7861 75.6043 31.0792ZM62.0081 6.42025C69.5158 6.42025 75.6043 12.5331 75.6469 20.0831H48.3622C48.4048 12.526 54.4933 6.42025 62.001 6.42025H62.0081ZM37.4341 37.9571C33.6661 37.9571 30.6076 34.8828 30.6076 31.0792C30.6076 27.2756 33.659 24.2013 37.4341 24.2013H44.2606V30.1068V31.0792C44.2606 34.8756 41.2093 37.9571 37.4341 37.9571ZM62.001 43.8627C56.2531 43.8627 51.3426 40.2736 49.3344 35.2117H74.6676C72.6594 40.2807 67.7489 43.8627 62.001 43.8627ZM86.5608 37.9571C82.7927 37.9571 79.7343 34.8828 79.7343 31.0792V30.1926C79.7343 30.1926 79.7343 30.1354 79.7343 30.1068V24.2013H86.5608C90.3289 24.2013 93.3873 27.2756 93.3873 31.0792C93.3873 34.8828 90.3289 37.9571 86.5608 37.9571Z" fill="#262626"/>
</g>
<path d="M9.43129 73.4366C9.49535 74.172 9.49535 75.459 9.43129 76.2128C9.23912 78.4374 7.59196 80.0002 5.048 80.0002C3.0531 80.0002 1.59811 79.3935 1.01245 78.989C0.646415 78.7316 0.5 78.4742 0.5 77.9594V68.0864C0.5 67.0844 1.10396 66.4777 2.0099 66.4777C2.91584 66.4777 3.5198 67.0844 3.5198 68.0864V70.0169C3.99565 69.7963 4.76433 69.6492 5.41404 69.6492C7.59196 69.6492 9.23912 71.212 9.43129 73.4366ZM3.5198 76.746C3.83093 76.9666 4.39829 77.0953 4.89244 77.0953C5.89904 77.0953 6.38404 76.4702 6.44809 75.6061C6.4847 75.128 6.49385 74.6316 6.44809 74.0433C6.38404 73.1792 5.89904 72.5541 4.89244 72.5541C4.39829 72.5541 3.83093 72.6828 3.5198 72.9034V76.746Z" fill="#262626"/>
<path d="M12.3271 65.8066C13.2514 65.8066 13.956 66.5145 13.956 67.4429C13.956 68.399 13.2514 69.116 12.3271 69.116C11.4029 69.116 10.6983 68.399 10.6983 67.4429C10.6983 66.5145 11.4029 65.8066 12.3271 65.8066ZM10.8264 78.2995V71.3498C10.8264 70.3478 11.4303 69.7411 12.3363 69.7411C13.2422 69.7411 13.8462 70.3478 13.8462 71.3498V78.2995C13.8462 79.3015 13.2422 79.9083 12.3363 79.9083C11.4303 79.9083 10.8264 79.3015 10.8264 78.2995Z" fill="#262626"/>
<path d="M21.8478 77.0034C22.8361 77.0034 23.3668 77.5641 23.3668 78.4098C23.3668 79.2556 22.8361 79.8163 21.8478 79.8163H16.3298C15.4147 79.8163 14.9297 79.3015 14.9297 78.5385C14.9297 77.941 15.1676 77.5733 15.5337 77.1321L19.2672 72.6276L16.6867 72.6368C15.6984 72.6368 15.1676 72.0669 15.1676 71.2303C15.1676 70.3938 15.6984 69.833 16.6867 69.833H21.8844C22.7171 69.833 23.3211 70.1916 23.3211 71.0741C23.3211 71.7451 23.0557 72.1772 22.6622 72.646L19.0476 77.0034H21.8478Z" fill="#262626"/>
<path d="M33.4675 73.4366C33.5315 74.172 33.5315 75.459 33.4675 76.2128C33.2753 78.4374 31.6281 80.0002 29.0842 80.0002C27.0893 80.0002 25.6343 79.3935 25.0486 78.989C24.6826 78.7316 24.5362 78.4742 24.5362 77.9594V68.0864C24.5362 67.0844 25.1401 66.4777 26.0461 66.4777C26.952 66.4777 27.556 67.0844 27.556 68.0864V70.0169C28.0318 69.7963 28.8005 69.6492 29.4502 69.6492C31.6281 69.6492 33.2753 71.212 33.4675 73.4366ZM27.556 76.746C27.8671 76.9666 28.4344 77.0953 28.9286 77.0953C29.9352 77.0953 30.4202 76.4702 30.4843 75.6061C30.5209 75.128 30.53 74.6316 30.4843 74.0433C30.4202 73.1792 29.9352 72.5541 28.9286 72.5541C28.4344 72.5541 27.8671 72.6828 27.556 72.9034V76.746Z" fill="#262626"/>
<path d="M39.2733 80.0002C36.6012 80.0002 34.7985 78.3915 34.6246 76.1668C34.5697 75.4774 34.5606 74.2915 34.6155 73.6756C34.8259 71.3498 36.5097 69.6492 39.1909 69.6492C41.8721 69.6492 43.4278 71.3131 43.4278 73.9146V74.3375C43.4278 75.5601 43.1533 75.7348 42.0826 75.7348H37.4065V75.8727C37.3973 76.7552 38.1752 77.3527 39.3648 77.3527C40.1152 77.3527 40.6093 77.1872 40.893 77.0861C41.2682 76.9574 41.5336 76.8011 41.8813 76.8011C42.5951 76.8011 43.1258 77.2608 43.1258 78.0421C43.1258 78.7959 42.5859 79.2004 42.1284 79.4027C41.5336 79.6693 40.4263 80.0002 39.2733 80.0002ZM37.4156 73.7859H40.7191C40.8015 72.7655 40.1152 72.0945 39.0628 72.0945C38.0562 72.0945 37.4888 72.7747 37.4156 73.7859Z" fill="#262626"/>
<path d="M49.0726 80.0002C46.4006 80.0002 44.5978 78.3915 44.424 76.1668C44.369 75.4774 44.3599 74.2915 44.4148 73.6756C44.6253 71.3498 46.309 69.6492 48.9903 69.6492C51.6715 69.6492 53.2271 71.3131 53.2271 73.9146V74.3375C53.2271 75.5601 52.9526 75.7348 51.8819 75.7348H47.2058V75.8727C47.1967 76.7552 47.9745 77.3527 49.1641 77.3527C49.9145 77.3527 50.4087 77.1872 50.6923 77.0861C51.0675 76.9574 51.3329 76.8011 51.6806 76.8011C52.3944 76.8011 52.9252 77.2608 52.9252 78.0421C52.9252 78.7959 52.3853 79.2004 51.9277 79.4027C51.3329 79.6693 50.2256 80.0002 49.0726 80.0002ZM47.215 73.7859H50.5185C50.6008 72.7655 49.9145 72.0945 48.8621 72.0945C47.8555 72.0945 47.2882 72.7747 47.215 73.7859Z" fill="#262626"/>
<path d="M63.6778 80.0002C60.5115 80.0002 58.0957 77.7664 57.8578 74.7236C57.7846 73.7767 57.7937 72.8299 57.8669 71.8738C58.0957 68.831 60.5115 66.5972 63.6778 66.5972C66.8348 66.5972 69.2873 68.831 69.4977 71.8738C69.5618 72.8207 69.5618 73.7675 69.4886 74.7236C69.2598 77.7664 66.8348 80.0002 63.6778 80.0002ZM60.9325 72.2323C60.8959 72.9218 60.8959 73.6572 60.9416 74.3651C61.0423 76.0657 62.1313 77.1321 63.6778 77.1321C65.206 77.1321 66.3041 76.0657 66.4139 74.3651C66.4596 73.6756 66.4413 72.9402 66.3956 72.2323C66.2858 70.5225 65.206 69.4653 63.6778 69.4653C62.1313 69.4653 61.024 70.5317 60.9325 72.2323Z" fill="#262626"/>
<path d="M73.2565 79.9083C72.3505 79.9083 71.7466 79.3015 71.7466 78.2995V73.1608H71.4904C70.7583 73.1608 70.2092 72.6092 70.2092 71.8371C70.2092 71.0649 70.7583 70.5133 71.4904 70.5133H71.7466V70.0445C71.7466 67.5624 73.1741 66.4777 75.5168 66.4777C75.9011 66.4777 76.6698 66.5696 77.0541 66.6799C77.8685 66.9098 78.3627 67.3051 78.3627 68.0956C78.3627 68.7851 77.896 69.3274 77.1822 69.3274C77.0175 69.3274 76.807 69.2999 76.5783 69.2447C76.2397 69.162 75.956 69.1436 75.7913 69.1436C75.0592 69.1436 74.7664 69.5573 74.7664 70.2835V70.5133H76.1665C77.0084 70.5133 77.5391 71.0649 77.5391 71.8371C77.5391 72.6092 77.0084 73.1608 76.1665 73.1608H74.7664V78.2995C74.7664 79.3015 74.1624 79.9083 73.2565 79.9083Z" fill="#262626"/>
<path d="M80.6609 79.9083C79.7549 79.9083 79.151 79.3015 79.151 78.2995V73.1608H78.8947C78.1627 73.1608 77.6136 72.6092 77.6136 71.8371C77.6136 71.0649 78.1627 70.5133 78.8947 70.5133H79.151V70.0445C79.151 67.5624 80.5785 66.4777 82.9211 66.4777C83.3055 66.4777 84.0741 66.5696 84.4585 66.6799C85.2729 66.9098 85.7671 67.3051 85.7671 68.0956C85.7671 68.7851 85.3004 69.3274 84.5866 69.3274C84.4219 69.3274 84.2114 69.2999 83.9826 69.2447C83.6441 69.162 83.3604 69.1436 83.1957 69.1436C82.4636 69.1436 82.1708 69.5573 82.1708 70.2835V70.5133H83.5708C84.4127 70.5133 84.9435 71.0649 84.9435 71.8371C84.9435 72.6092 84.4127 73.1608 83.5708 73.1608H82.1708V78.2995C82.1708 79.3015 81.5668 79.9083 80.6609 79.9083ZM86.1606 67.4429C86.1606 66.5145 86.8652 65.8066 87.7894 65.8066C88.7137 65.8066 89.4183 66.5145 89.4183 67.4429C89.4183 68.399 88.7137 69.116 87.7894 69.116C86.8652 69.116 86.1606 68.399 86.1606 67.4429ZM86.2887 78.2995V71.3498C86.2887 70.3478 86.8926 69.7411 87.7986 69.7411C88.7045 69.7411 89.3085 70.3478 89.3085 71.3498V78.2995C89.3085 79.3015 88.7045 79.9083 87.7986 79.9083C86.8926 79.9083 86.2887 79.3015 86.2887 78.2995Z" fill="#262626"/>
<path d="M93.6785 74.0249C93.6327 74.5857 93.6327 75.0637 93.6785 75.6245C93.7517 76.4978 94.3373 77.0953 95.2616 77.0953C95.9662 77.0953 96.378 76.7552 96.6617 76.4242C96.9087 76.1301 97.229 75.7256 97.9153 75.698C98.7298 75.6704 99.4069 76.2128 99.4069 77.0953C99.4069 77.5825 99.2148 77.987 99.0134 78.272C98.3912 79.1545 97.1833 80.0002 95.2067 80.0002C92.681 80.0002 90.8874 78.4007 90.6861 76.176C90.6221 75.4682 90.6312 74.1904 90.6953 73.4734C90.8966 71.2487 92.681 69.6492 95.2067 69.6492C97.1833 69.6492 98.3729 70.4949 99.0043 71.3774C99.2056 71.6624 99.4069 72.0669 99.4069 72.5541C99.4069 73.4366 98.7298 73.9698 97.9153 73.9514C97.2565 73.933 96.9362 73.5561 96.6617 73.2252C96.378 72.885 95.9662 72.5541 95.2616 72.5541C94.3373 72.5541 93.7517 73.1516 93.6785 74.0249Z" fill="#262626"/>
<path d="M104.955 80.0002C102.283 80.0002 100.481 78.3915 100.307 76.1668C100.252 75.4774 100.243 74.2915 100.298 73.6756C100.508 71.3498 102.192 69.6492 104.873 69.6492C107.554 69.6492 109.11 71.3131 109.11 73.9146V74.3375C109.11 75.5601 108.835 75.7348 107.765 75.7348H103.089V75.8727C103.079 76.7552 103.857 77.3527 105.047 77.3527C105.797 77.3527 106.291 77.1872 106.575 77.0861C106.95 76.9574 107.216 76.8011 107.563 76.8011C108.277 76.8011 108.808 77.2608 108.808 78.0421C108.808 78.7959 108.268 79.2004 107.81 79.4027C107.216 79.6693 106.108 80.0002 104.955 80.0002ZM103.098 73.7859H106.401C106.484 72.7655 105.797 72.0945 104.745 72.0945C103.738 72.0945 103.171 72.7747 103.098 73.7859Z" fill="#262626"/>
<path d="M121.972 66.7811C122.914 66.7811 123.5 67.351 123.5 68.1967C123.5 69.0792 122.914 69.6492 121.972 69.6492H119.492V78.2444C119.492 79.2832 118.879 79.9083 117.945 79.9083C117.012 79.9083 116.399 79.2832 116.399 78.2444V69.6492H113.937C112.995 69.6492 112.409 69.0792 112.409 68.1967C112.409 67.351 112.995 66.7811 113.937 66.7811H121.972Z" fill="#262626"/>
<defs>
<clipPath id="clip0_1111_4985">
<rect width="70.9615" height="51.6129" fill="white" transform="translate(26.5195)"/>
</clipPath>
</defs>
</svg>
