<svg width="94" height="80" viewBox="0 0 94 80" fill="none" xmlns="http://www.w3.org/2000/svg">
<g clip-path="url(#clip0_1111_4355)">
<path d="M23.4746 23.1797C19.8663 23.1797 16.9375 26.1234 16.9375 29.7655C16.9375 33.4075 19.8595 36.3513 23.4746 36.3513C27.0898 36.3513 30.0118 33.4075 30.0118 29.7655V23.1797H23.4746Z" fill="#E0E0E0"/>
<path d="M33.9336 23.1797V28.8687C33.9336 36.1391 39.7844 42.0334 47.0011 42.0334C54.2178 42.0334 60.0686 36.1391 60.0686 28.8687V23.1797H33.9336Z" fill="#9E77ED"/>
<path d="M70.5254 23.1797C74.1338 23.1797 77.0626 26.1234 77.0626 29.7655C77.0626 33.4075 74.1406 36.3513 70.5254 36.3513C66.9171 36.3513 63.9883 33.4075 63.9883 29.7655V23.1797H70.5254Z" fill="#E0E0E0"/>
<path d="M47.0089 6.10742C39.7922 6.10742 33.9414 12.0018 33.9414 19.2722H60.0764C60.0764 12.0018 54.2256 6.10742 47.0089 6.10742Z" fill="white"/>
<path d="M40.9098 17.0741C42.2083 17.0741 43.261 15.8941 43.261 14.4384C43.261 12.9828 42.2083 11.8027 40.9098 11.8027C39.6113 11.8027 38.5586 12.9828 38.5586 14.4384C38.5586 15.8941 39.6113 17.0741 40.9098 17.0741Z" fill="#262626"/>
<path d="M41.7693 13.8433C42.0583 13.8433 42.2926 13.6073 42.2926 13.3162C42.2926 13.0251 42.0583 12.7891 41.7693 12.7891C41.4804 12.7891 41.2461 13.0251 41.2461 13.3162C41.2461 13.6073 41.4804 13.8433 41.7693 13.8433Z" fill="white"/>
<path d="M53.1246 17.0741C54.4232 17.0741 55.4758 15.8941 55.4758 14.4384C55.4758 12.9828 54.4232 11.8027 53.1246 11.8027C51.8261 11.8027 50.7734 12.9828 50.7734 14.4384C50.7734 15.8941 51.8261 17.0741 53.1246 17.0741Z" fill="#262626"/>
<path d="M52.2654 13.8433C52.5544 13.8433 52.7887 13.6073 52.7887 13.3162C52.7887 13.0251 52.5544 12.7891 52.2654 12.7891C51.9765 12.7891 51.7422 13.0251 51.7422 13.3162C51.7422 13.6073 51.9765 13.8433 52.2654 13.8433Z" fill="white"/>
<path d="M70.5269 19.2305H63.9897V19.1963C63.9489 13.0897 60.7279 7.75671 55.9236 4.76503L57.0652 2.77286C57.5681 1.88973 57.2691 0.766999 56.3925 0.253554C55.5159 -0.253046 54.4015 0.0481755 53.8918 0.931302L52.6075 3.17677C50.8543 2.56064 48.972 2.20465 47.0081 2.20465C45.0442 2.20465 43.1619 2.56064 41.4087 3.17677L40.1244 0.931302C39.6215 0.0481755 38.5003 -0.253046 37.6237 0.253554C36.7471 0.760153 36.4481 1.88973 36.9509 2.77286L38.0926 4.76503C33.2814 7.76355 30.0672 13.0897 30.0265 19.1963H30.0197V19.2305H23.4825C17.7065 19.2305 13.0312 23.9474 13.0312 29.7596C13.0312 35.5718 17.7133 40.2886 23.4825 40.2886C26.8258 40.2886 29.8022 38.7004 31.7117 36.2358C33.9746 40.9732 38.3236 44.5057 43.5696 45.5874L45.8597 48.8118C46.4237 49.6059 47.5993 49.6059 48.1565 48.8118L50.4465 45.5874C55.6926 44.4989 60.0348 40.9732 62.3045 36.2427C64.2208 38.7004 67.1903 40.2886 70.5269 40.2886C76.3029 40.2886 80.9781 35.5718 80.9781 29.7596C80.9781 23.9474 76.2961 19.2305 70.5269 19.2305ZM60.028 29.7596H33.9814C33.961 29.4515 33.9338 29.1434 33.9338 28.8285V23.1738H60.0688V28.9107C60.0688 29.1982 60.0484 29.4789 60.028 29.7596ZM47.0081 6.14791C54.1976 6.14791 60.028 12.0012 60.0688 19.2305H33.9406C33.9814 11.9943 39.8118 6.14791 47.0013 6.14791H47.0081ZM23.4757 36.3454C19.8674 36.3454 16.9386 33.4016 16.9386 29.7596C16.9386 26.1175 19.8606 23.1738 23.4757 23.1738H30.0129V28.8285V29.7596C30.0129 33.3948 27.0909 36.3454 23.4757 36.3454ZM47.0013 42.0001C41.497 42.0001 36.7947 38.5634 34.8716 33.7165H59.131C57.2079 38.5703 52.5055 42.0001 47.0013 42.0001ZM70.5201 36.3454C66.9117 36.3454 63.9829 33.4016 63.9829 29.7596V28.9107C63.9829 28.9107 63.9829 28.8559 63.9829 28.8285V23.1738H70.5201C74.1284 23.1738 77.0572 26.1175 77.0572 29.7596C77.0572 33.4016 74.1284 36.3454 70.5201 36.3454Z" fill="#262626"/>
</g>
<path d="M9.44112 70.4526C9.50387 71.1697 9.50387 72.4248 9.44112 73.1599C9.25285 75.3294 7.63918 76.8535 5.14694 76.8535C3.1926 76.8535 1.76719 76.2618 1.19344 75.8673C0.834844 75.6163 0.691406 75.3653 0.691406 74.8633V65.235C0.691406 64.2578 1.28309 63.6662 2.17061 63.6662C3.05813 63.6662 3.64981 64.2578 3.64981 65.235V67.1176C4.11599 66.9025 4.86903 66.759 5.50554 66.759C7.63918 66.759 9.25285 68.2831 9.44112 70.4526ZM3.64981 73.6799C3.95462 73.8951 4.51044 74.0206 4.99454 74.0206C5.98068 74.0206 6.45581 73.411 6.51857 72.5683C6.55443 72.1021 6.56339 71.618 6.51857 71.0442C6.45581 70.2015 5.98068 69.5919 4.99454 69.5919C4.51044 69.5919 3.95462 69.7174 3.64981 69.9326V73.6799Z" fill="#262626"/>
<path d="M12.2781 63.0117C13.1835 63.0117 13.8738 63.702 13.8738 64.6075C13.8738 65.5398 13.1835 66.2391 12.2781 66.2391C11.3726 66.2391 10.6823 65.5398 10.6823 64.6075C10.6823 63.702 11.3726 63.0117 12.2781 63.0117ZM10.8078 75.195V68.4175C10.8078 67.4404 11.3995 66.8487 12.287 66.8487C13.1746 66.8487 13.7662 67.4404 13.7662 68.4175V75.195C13.7662 76.1721 13.1746 76.7638 12.287 76.7638C11.3995 76.7638 10.8078 76.1721 10.8078 75.195Z" fill="#262626"/>
<path d="M21.6052 73.9309C22.5734 73.9309 23.0933 74.4778 23.0933 75.3025C23.0933 76.1273 22.5734 76.6742 21.6052 76.6742H16.1994C15.3029 76.6742 14.8277 76.1721 14.8277 75.4281C14.8277 74.8453 15.0608 74.4867 15.4194 74.0564L19.0771 69.6636L16.549 69.6726C15.5808 69.6726 15.0608 69.1168 15.0608 68.301C15.0608 67.4852 15.5808 66.9383 16.549 66.9383H21.641C22.4568 66.9383 23.0485 67.288 23.0485 68.1486C23.0485 68.803 22.7885 69.2244 22.403 69.6816L18.8619 73.9309H21.6052Z" fill="#262626"/>
<path d="M32.9886 70.4526C33.0513 71.1697 33.0513 72.4248 32.9886 73.1599C32.8003 75.3294 31.1867 76.8535 28.6944 76.8535C26.7401 76.8535 25.3147 76.2618 24.7409 75.8673C24.3823 75.6163 24.2389 75.3653 24.2389 74.8633V65.235C24.2389 64.2578 24.8306 63.6662 25.7181 63.6662C26.6056 63.6662 27.1973 64.2578 27.1973 65.235V67.1176C27.6635 66.9025 28.4165 66.759 29.053 66.759C31.1867 66.759 32.8003 68.2831 32.9886 70.4526ZM27.1973 73.6799C27.5021 73.8951 28.0579 74.0206 28.542 74.0206C29.5282 74.0206 30.0033 73.411 30.066 72.5683C30.1019 72.1021 30.1109 71.618 30.066 71.0442C30.0033 70.2015 29.5282 69.5919 28.542 69.5919C28.0579 69.5919 27.5021 69.7174 27.1973 69.9326V73.6799Z" fill="#262626"/>
<path d="M38.6764 76.8535C36.0586 76.8535 34.2926 75.2846 34.1222 73.1151C34.0684 72.4428 34.0595 71.2863 34.1133 70.6856C34.3195 68.4175 35.969 66.759 38.5957 66.759C41.2224 66.759 42.7464 68.3817 42.7464 70.9187V71.3311C42.7464 72.5234 42.4775 72.6938 41.4286 72.6938H36.8475V72.8282C36.8386 73.6889 37.6006 74.2716 38.766 74.2716C39.5011 74.2716 39.9853 74.1102 40.2632 74.0116C40.6307 73.8861 40.8907 73.7337 41.2314 73.7337C41.9306 73.7337 42.4506 74.1819 42.4506 74.944C42.4506 75.6791 41.9217 76.0735 41.4734 76.2708C40.8907 76.5307 39.806 76.8535 38.6764 76.8535ZM36.8565 70.7932H40.0928C40.1735 69.7981 39.5011 69.1437 38.4702 69.1437C37.4841 69.1437 36.9282 69.8071 36.8565 70.7932Z" fill="#262626"/>
<path d="M48.2765 76.8535C45.6587 76.8535 43.8927 75.2846 43.7223 73.1151C43.6685 72.4428 43.6596 71.2863 43.7134 70.6856C43.9196 68.4175 45.5691 66.759 48.1958 66.759C50.8225 66.759 52.3465 68.3817 52.3465 70.9187V71.3311C52.3465 72.5234 52.0776 72.6938 51.0287 72.6938H46.4477V72.8282C46.4387 73.6889 47.2007 74.2716 48.3661 74.2716C49.1013 74.2716 49.5854 74.1102 49.8633 74.0116C50.2308 73.8861 50.4908 73.7337 50.8315 73.7337C51.5307 73.7337 52.0507 74.1819 52.0507 74.944C52.0507 75.6791 51.5218 76.0735 51.0735 76.2708C50.4908 76.5307 49.4061 76.8535 48.2765 76.8535ZM46.4566 70.7932H49.6929C49.7736 69.7981 49.1013 69.1437 48.0703 69.1437C47.0842 69.1437 46.5283 69.8071 46.4566 70.7932Z" fill="#262626"/>
<path d="M61.9123 76.8535C59.6263 76.8535 58.2278 76.1721 57.4478 75.6701C56.9368 75.3384 56.65 74.8543 56.65 74.2895C56.65 73.4379 57.2685 72.891 58.0485 72.891C58.5146 72.891 58.8374 73.0524 59.2049 73.2586C59.8235 73.5992 60.5676 74.0564 61.9123 74.0564C63.1226 74.0564 63.8218 73.7158 63.8218 73.0075C63.8218 72.2276 62.7102 71.9318 61.2848 71.6359C58.2816 71.0084 56.9458 69.9505 56.9458 67.6645C56.9458 65.3336 58.9987 63.7827 61.6703 63.7827C63.526 63.7827 64.7811 64.2399 65.5521 64.6702C66.081 64.975 66.3499 65.4053 66.3499 65.9791C66.3499 66.7411 65.7583 67.3776 65.0231 67.3776C64.6018 67.3776 64.2432 67.2073 63.8218 67.028C63.3019 66.8128 62.6743 66.5797 61.6703 66.5797C60.4959 66.5797 59.9938 67.01 59.9938 67.5748C59.9938 68.2203 60.6393 68.5699 62.1813 68.8568C65.3997 69.4485 66.8699 70.6319 66.8699 72.8641C66.8699 75.1053 64.9694 76.8535 61.9123 76.8535Z" fill="#262626"/>
<path d="M69.3315 64.6881C70.219 64.6881 70.8107 65.2798 70.8107 66.257V66.9383H72.8009C73.7511 66.9383 74.2532 67.4673 74.2532 68.2741C74.2532 69.0809 73.7511 69.6099 72.8009 69.6099H70.8107V72.9269C70.8107 73.8054 71.0886 74.1282 71.8506 74.1282C72.1733 74.1282 72.4154 74.0654 72.5947 74.0116C72.8815 73.922 73.1415 73.8054 73.4732 73.8054C74.1277 73.8054 74.6656 74.3433 74.6656 75.0784C74.6656 75.8494 74.1994 76.2439 73.5539 76.4859C73.0608 76.6652 72.3257 76.8535 71.6444 76.8535C69.4301 76.8535 67.8522 75.6701 67.8522 73.2406V66.257C67.8522 65.2798 68.4439 64.6881 69.3315 64.6881Z" fill="#262626"/>
<path d="M78.7489 76.8535C76.1043 76.8535 74.8223 75.3384 74.8223 73.662C74.8223 72.2007 75.9698 70.7753 78.4979 70.7753C79.1703 70.7753 79.8157 70.8649 80.4074 71.0084V70.3988C80.4074 69.7623 80.0398 69.3588 78.7668 69.3588C78.3455 69.3588 77.9331 69.4216 77.5835 69.5381C77.198 69.6636 76.8753 69.7892 76.5525 69.7892C75.8801 69.7892 75.3512 69.2961 75.3512 68.5789C75.3512 68.0141 75.6381 67.5121 76.3822 67.2342C77.0635 66.9742 77.8972 66.759 78.9551 66.759C81.7342 66.759 83.2224 67.9334 83.2224 70.5512V74.8722C83.2224 75.3653 83.0879 75.6342 82.7203 75.8673C82.0838 76.2708 80.6495 76.8535 78.7489 76.8535ZM77.6014 73.653C77.6014 74.2447 78.1931 74.5764 78.9282 74.5764C79.484 74.5764 80.0219 74.4509 80.4074 74.2716V72.8551C79.9323 72.7117 79.4302 72.64 78.9103 72.64C78.0765 72.64 77.6014 73.0882 77.6014 73.653Z" fill="#262626"/>
<path d="M86.5055 80.0001C85.618 80.0001 85.0173 79.3188 85.0173 78.5837C85.0173 78.1086 85.2235 77.75 85.6 77.4272C86.0572 77.0417 86.6848 76.5307 86.9985 75.8494L84.085 69.1706C83.9057 68.7582 83.8519 68.5072 83.8519 68.2741C83.8519 67.4673 84.4884 66.8487 85.3669 66.8487C86.0752 66.8487 86.5593 67.1625 86.8192 67.8976L88.5315 72.7834C88.5853 72.9358 88.6032 72.9538 88.675 72.9538C88.7467 72.9538 88.7646 72.9358 88.8184 72.7834L90.45 67.8796C90.6831 67.1893 91.1582 66.8487 91.8665 66.8487C92.6733 66.8487 93.3098 67.4673 93.3098 68.2382C93.3098 68.4803 93.265 68.7403 93.1395 69.0451L90.3155 75.8135C89.4908 77.8037 88.7019 78.6464 87.6978 79.516C87.3661 79.8029 86.9806 80.0001 86.5055 80.0001Z" fill="#262626"/>
<defs>
<clipPath id="clip0_1111_4355">
<rect width="67.9537" height="49.4209" fill="white" transform="translate(13.0234)"/>
</clipPath>
</defs>
</svg>
