<svg width="16" height="16" viewBox="0 0 16 16" fill="none" xmlns="http://www.w3.org/2000/svg">
<g clip-path="url(#clip0_1111_4053)">
<path d="M3.33203 4C3.33203 3.46957 3.54274 2.96086 3.91782 2.58579C4.29289 2.21071 4.8016 2 5.33203 2H10.6654C11.1958 2 11.7045 2.21071 12.0796 2.58579C12.4547 2.96086 12.6654 3.46957 12.6654 4V12C12.6654 12.5304 12.4547 13.0391 12.0796 13.4142C11.7045 13.7893 11.1958 14 10.6654 14H5.33203C4.8016 14 4.29289 13.7893 3.91782 13.4142C3.54274 13.0391 3.33203 12.5304 3.33203 12V4Z" stroke="black" stroke-linecap="round" stroke-linejoin="round"/>
<path d="M6.66797 8.66732C6.66797 9.02094 6.80844 9.36008 7.05849 9.61013C7.30854 9.86017 7.64768 10.0007 8.0013 10.0007C8.35492 10.0007 8.69406 9.86017 8.94411 9.61013C9.19416 9.36008 9.33464 9.02094 9.33464 8.66732C9.33464 8.3137 9.19416 7.97456 8.94411 7.72451C8.69406 7.47446 8.35492 7.33398 8.0013 7.33398C7.64768 7.33398 7.30854 7.47446 7.05849 7.72451C6.80844 7.97456 6.66797 8.3137 6.66797 8.66732Z" stroke="black" stroke-linecap="round" stroke-linejoin="round"/>
<path d="M6.66797 4H9.33464" stroke="black" stroke-linecap="round" stroke-linejoin="round"/>
<path d="M6 12H10" stroke="black" stroke-linecap="round" stroke-linejoin="round"/>
</g>
<defs>
<clipPath id="clip0_1111_4053">
<rect width="16" height="16" fill="white"/>
</clipPath>
</defs>
</svg>
